<svg xmlns="http://www.w3.org/2000/svg" viewBox="0 0 1921 940.15"><defs><style>.cls-1{fill:#192842;}.cls-2{fill:#cacdd3;}</style></defs><g id="Calque_2" data-name="Calque 2"><g id="Calque_1-2" data-name="Calque 1"><path class="cls-1" d="M0,78c69.9,5.54,174.66,12.88,302,18,172.23,6.92,618.66,19.13,1208-43,102-10.75,242.9-27.38,411-53l-1,726c-9.7,5-24.15,12.12-42,20a834.22,834.22,0,0,1-95,35c-105.28,32.64-157.92,49-207,61-40,9.81-158.87,37.76-320,55a2685.59,2685.59,0,0,1-490,7A2695.19,2695.19,0,0,1,167,789C98.18,767.41,41.44,746.54,1.11,730.89Z"/><path class="cls-2" d="M.67,784.33c286.67,94.63,525.15,129.81,690,144,23.24,2,110.83,9.26,227,11,130.47,2,325.82,3.94,563-40,125.27-23.2,244.85-56,298.33-70.66,58.43-16,106.93-30.64,141.33-41.34V724.67c-2.29,1.08-5.76,2.71-10,4.66-58.09,26.85-145.52,62.68-286,98.67-179.55,46-333.9,63.6-368,67.33a2631.36,2631.36,0,0,1-381.33,14c-75.18-2.71-245.45-12.09-459.33-57.33A2756.87,2756.87,0,0,1,.33,729.33Z"/></g></g></svg>