<svg xmlns="http://www.w3.org/2000/svg" viewBox="0 0 1921.17 811.44"><defs><style>.cls-1{fill:#192842;}</style></defs><g id="Calque_2" data-name="Calque 2"><g id="Calque_1-2" data-name="Calque 1"><path class="cls-1" d="M0,727.33c69-5.38,165.11-11.81,280-16,258.6-9.43,455.62-1.8,598,4,226.36,9.23,398.44,24.67,501,34,240,21.85,389.75,44.34,442,47a500.56,500.56,0,0,1,73,9c11.88,2.35,21.39,4.68,27,6.11L1921.17,0A3951.5,3951.5,0,0,1,1448,228.33c-146,58.84-319.77,127.93-560,177-186.24,38.05-436.09,86.63-745,29-59.61-11.12-108.24-23.73-141-33Z"/></g></g></svg>