<svg xmlns="http://www.w3.org/2000/svg" width="76.635" height="97.38" viewBox="0 0 76.635 97.38">
  <g id="Group_446" data-name="Group 446" transform="translate(933.21 128.8)">
    <path id="Path_3784" data-name="Path 3784" d="M-930.45-31.42a2.053,2.053,0,0,0-.339-.144c-2.433-.554-3.122-2.355-1.656-4.386a6.392,6.392,0,0,1,1.012-1.128c6.816-5.808,11.358-13.2,14.881-21.307a115.7,115.7,0,0,0,6.038-18.171,1.9,1.9,0,0,0-.262-1.36c-2.435-3.592-4.939-7.136-7.376-10.726a3.9,3.9,0,0,1,2.173-6.2,3.872,3.872,0,0,1,4.214,1.688c1.213,1.7,2.387,3.424,3.834,5.145l1.989-14.126h-1.211c-2.535,0-5.071-.019-7.606.006a3.353,3.353,0,0,1-3.5-2.094,3.441,3.441,0,0,1,1.015-3.962q9.689-9.673,19.377-19.346a12.408,12.408,0,0,1,1.84-1.274h1.522a22.156,22.156,0,0,1,2.414,1.769c1.949,1.859,3.846,3.773,5.711,5.717a2.3,2.3,0,0,1,.642,1.469,1.413,1.413,0,0,1-.844,1.074,2.108,2.108,0,0,1-1.6-.411c-1.607-1.48-3.119-3.064-4.666-4.61q-.706-.706-1.412-1.412c-.938-.936-.972-.94-1.875-.034q-9.4,9.425-18.8,18.853a3.244,3.244,0,0,0-.451.487c-.112.173-.278.467-.212.564a.839.839,0,0,0,.6.3c1.837.036,3.675.045,5.513.052,1.426.006,2.852-.005,4.279,0,1.8,0,2.342.534,2.1,2.293-.805,5.832-1.67,11.656-2.479,17.487a2.046,2.046,0,0,0,.254,1.3c1.09,1.67,2.261,3.288,3.384,4.938a4.021,4.021,0,0,0,3.509,1.908c2.123,0,4.247.016,6.37.01a4.08,4.08,0,0,0,3.593-1.938c1.07-1.609,2.223-3.162,3.262-4.79a2.515,2.515,0,0,0,.346-1.564c-.791-5.833-1.646-11.657-2.456-17.487-.22-1.585.316-2.148,1.941-2.152,3.169-.008,6.339.006,9.508-.015a4.474,4.474,0,0,0,1.046-.263,3.586,3.586,0,0,0-.484-.937c-2.487-2.532-5-5.041-7.5-7.559a5.518,5.518,0,0,1-.641-.7,1.328,1.328,0,0,1,.1-1.82,1.336,1.336,0,0,1,1.815-.163,2.56,2.56,0,0,1,.432.367c2.691,2.687,5.4,5.353,8.062,8.073a3.319,3.319,0,0,1-1.1,5.642,5.459,5.459,0,0,1-1.775.214c-2.784.021-5.569.009-8.571.009l1.987,14.261c.295-.331.463-.489.6-.673,1.142-1.6,2.245-3.224,3.423-4.794a3.817,3.817,0,0,1,4.555-1.339,3.777,3.777,0,0,1,2.4,4.015,6.307,6.307,0,0,1-1.117,2.46q-3.385,5.052-6.888,10.024a2.165,2.165,0,0,0-.344,2.01c2.362,9.035,5.415,17.8,10.127,25.911a48.562,48.562,0,0,0,11.484,13.8,5.275,5.275,0,0,1,1.412,1.743,2.076,2.076,0,0,1-1.478,3.086c-.207.058-.408.135-.612.2h-52.3c-.669-.42-1.26-.892-1-1.815.275-.964,1.036-1.083,1.88-1.058.506.015,1.013,0,1.52,0h4.939c.024-.27.049-.422.049-.575q-.018-14.443-.047-28.886c-.014-3.959-1.754-7.224-4.27-10.232-.095.3-.179.534-.246.775a116.534,116.534,0,0,1-6.234,17.491c-3.551,7.723-8.006,14.805-14.495,20.447-.289.252-.544.544-.967.973h1.307c3.642,0,7.285,0,10.927.016,1.245,0,2.01.835,1.634,1.822-.154.4-.589.7-.9,1.041Zm36.677-2.856h2.78c1.5,0,1.594-.093,1.594-1.633,0-9.158.017-18.316-.008-27.474a17.012,17.012,0,0,1,3.149-10.062q4.522-6.46,8.992-12.958c.918-1.328,1.8-2.683,2.7-4.023a.964.964,0,0,0-.279-1.48.95.95,0,0,0-1.4.331c-.3.41-.617.8-.905,1.221q-4.518,6.521-9.028,13.048a6.776,6.776,0,0,1-5.774,3.106c-2.155.024-4.31.018-6.464,0a6.876,6.876,0,0,1-5.913-3.21q-4.682-6.812-9.4-13.6c-.18-.26-.328-.649-.574-.732a2.108,2.108,0,0,0-1.362-.092c-.52.22-.6.768-.266,1.29.137.213.267.431.411.64,3.736,5.425,7.436,10.875,11.224,16.264A17.9,17.9,0,0,1-901-63.034q-.012,13.547,0,27.094a2.581,2.581,0,0,0,.041.94c.115.276.409.661.642.674,1.215.068,2.435.031,3.7.031v-1.185q0-8.461,0-16.922c0-.348-.106-.782.059-1.026a2.821,2.821,0,0,1,1.2-1.141,1.153,1.153,0,0,1,1.453.9,4.087,4.087,0,0,1,.138,1.216q.012,8.461.006,16.922Zm11.322-39.491c-2.355,2.838-4.081,6.091-4.083,10.069q-.006,14.353-.029,28.707c0,.21.038.42.057.628h26.158c-1.455-1.392-2.91-2.667-4.231-4.067A61.6,61.6,0,0,1-876.8-58.075C-878.864-63.233-880.579-68.533-882.451-73.767Z" transform="translate(0 0)" fill="#192842"/>
    <path id="Path_3785" data-name="Path 3785" d="M-798.589,31.373a7.872,7.872,0,0,1-7.88-7.835,7.884,7.884,0,0,1,7.841-7.878,7.931,7.931,0,0,1,7.9,7.839A7.918,7.918,0,0,1-798.589,31.373Zm.016-2.852a5.038,5.038,0,0,0,4.991-5.039,5.044,5.044,0,0,0-5.068-4.967,4.994,4.994,0,0,0-4.967,5.043A4.993,4.993,0,0,0-798.572,28.521Z" transform="translate(-96.609 -110.115)" fill="#192842"/>
  </g>
</svg>
