<svg xmlns="http://www.w3.org/2000/svg" width="83.697" height="83.606" viewBox="0 0 83.697 83.606">
  <g id="Group_502" data-name="Group 502" transform="translate(-423.988 -760.956)">
    <path id="Path_4401" data-name="Path 4401" d="M423.988,863.281q3.344-9.108,6.688-18.216,6.638-18.11,13.271-36.221c.944-2.576,3.1-3.786,5.331-2.9a5.935,5.935,0,0,1,1.845,1.3c2.181,2.128,4.316,4.3,6.54,6.533a18.112,18.112,0,0,0,2.611-5.094,19.34,19.34,0,0,0-1.033-14.911c-.071-.147-.153-.288-.219-.438a1.649,1.649,0,0,1,.72-2.291,1.551,1.551,0,0,1,2.176.824,32.764,32.764,0,0,1,1.913,5.013,22.449,22.449,0,0,1-3.354,18.606c-.135.2-.265.406-.365.56l10.492,10.5c.129-.119.325-.287.508-.469,1.2-1.192,2.382-2.394,3.585-3.578a1.646,1.646,0,1,1,2.311,2.307c-1.355,1.371-2.735,2.716-4.117,4.085l2.741,2.571c.117-.086.368-.276.626-.458,8.577-6.064,17.624-6.9,27.122-2.386a2.689,2.689,0,0,1,1.156,1.247,1.341,1.341,0,0,1-.5,1.6,1.745,1.745,0,0,1-1.912.151,36.655,36.655,0,0,0-5.027-1.876,21.932,21.932,0,0,0-18.659,3.717c-.175.125-.334.274-.562.462.214.23.4.445.6.647q3.174,3.181,6.351,6.359c2.532,2.545,1.8,5.867-1.579,7.107-17.711,6.5-35.435,12.959-53.127,19.506-2.783,1.03-5.251.089-6.132-2.789Zm45.32-13.633a9.53,9.53,0,0,1-.883-.67q-3.65-3.631-7.288-7.273a1.766,1.766,0,0,1-.647-1.744,1.644,1.644,0,0,1,2.9-.622q4.32,4.29,8.6,8.615a.963.963,0,0,0,1.2.3c2.95-1.114,5.918-2.181,8.876-3.273,1.207-.446,1.3-.883.4-1.786q-16.843-16.845-33.689-33.686c-.858-.858-1.306-.749-1.734.414-1.089,2.96-2.163,5.926-3.271,8.879a.963.963,0,0,0,.266,1.2c2.639,2.6,5.249,5.229,7.869,7.849.308.308.629.6.919.93a1.657,1.657,0,0,1,.019,2.289,1.6,1.6,0,0,1-2.279.038c-.186-.159-.355-.338-.528-.511q-3.555-3.553-7.109-7.106c-.182-.182-.379-.35-.635-.585-.5,1.359-.95,2.639-1.456,3.9a.95.95,0,0,0,.282,1.2q5.37,5.32,10.7,10.68,6.126,6.124,12.261,12.239c.2.2.587.41.8.341C466.263,850.8,467.629,850.269,469.308,849.648Zm-29.94-18.676a2.724,2.724,0,0,0-.159.3c-1.246,3.391-2.482,6.786-3.745,10.172a.8.8,0,0,0,.253.984q6.942,6.914,13.853,13.859a.856.856,0,0,0,1.061.224c2.723-1.018,5.454-2.013,8.182-3.016q1.126-.414,2.247-.831Zm-5.394,14.6c-.48,1.314-1,2.7-1.483,4.109a.751.751,0,0,0,.2.614q4.487,4.522,9.012,9.008a.826.826,0,0,0,.687.2c1.384-.47,2.751-.989,4.044-1.463Zm-2.882,7.917c-.092.234-.183.455-.265.678-1.116,3.031-2.246,6.057-3.326,9.1a1.539,1.539,0,0,0,.063,1.235c.142.193.8.143,1.162.015,3.068-1.092,6.122-2.227,9.178-3.351.214-.079.419-.179.588-.252Z" transform="translate(0 -23.383)"/>
    <path id="Path_4402" data-name="Path 4402" d="M501.88,760.956a13.484,13.484,0,0,1,2.143.953,5.151,5.151,0,0,1,1.9,6.208,5.229,5.229,0,1,1-6.576-6.861c.249-.088.49-.2.735-.3Zm-.807,3.275a1.956,1.956,0,1,0,1.944,1.985A1.976,1.976,0,0,0,501.073,764.231Z" transform="translate(-56.154 0)"/>
    <path id="Path_4403" data-name="Path 4403" d="M788.905,760.956c1.442.986,1.532,1.917.3,3.16-.382.385-.753.783-1.157,1.144a1.642,1.642,0,0,1-2.338,0,1.6,1.6,0,0,1,.019-2.273c.693-.715,1.461-1.357,2.2-2.031Z" transform="translate(-282.379 0)"/>
    <path id="Path_4404" data-name="Path 4404" d="M751.953,760.956c.816.746,1.686,1.442,2.429,2.255a1.511,1.511,0,0,1-.218,2.126,1.594,1.594,0,0,1-2.089.055,17.409,17.409,0,0,1-1.785-1.781c-.716-.837-.455-1.747.682-2.654Z" transform="translate(-254.743 0)"/>
    <path id="Path_4405" data-name="Path 4405" d="M646.34,845.43a5.227,5.227,0,1,1-5.277-5.179A5.244,5.244,0,0,1,646.34,845.43Zm-3.272.026a1.935,1.935,0,0,0-1.98-1.932,1.968,1.968,0,0,0-1.928,1.916,2,2,0,0,0,1.952,1.99A1.974,1.974,0,0,0,643.068,845.456Z" transform="translate(-165.632 -61.982)"/>
    <path id="Path_4406" data-name="Path 4406" d="M764.595,892.32a5.218,5.218,0,1,1,5.2-5.284A5.23,5.23,0,0,1,764.595,892.32Zm-.02-3.279a1.94,1.94,0,1,0-1.961-1.955A1.937,1.937,0,0,0,764.575,889.041Z" transform="translate(-262.131 -94.523)"/>
    <path id="Path_4407" data-name="Path 4407" d="M710.525,848.889a1.633,1.633,0,1,1-.318-3.249c1.974-.29,2.684-1.061,2.8-3.039a5.88,5.88,0,0,1,5.607-5.544,1.632,1.632,0,1,1,.316,3.236c-1.84.274-2.524,1.008-2.687,2.882A5.94,5.94,0,0,1,710.525,848.889Z" transform="translate(-222.524 -59.483)"/>
    <path id="Path_4408" data-name="Path 4408" d="M642.383,777.665a5.7,5.7,0,0,1,5.2-5.439c2.1-.154,2.648-.652,3.023-2.76a1.634,1.634,0,0,1,3.246.344,5.779,5.779,0,0,1-4.743,5.545c-.161.025-.324.042-.486.06-2.21.255-2.594.6-3.037,2.758a1.639,1.639,0,0,1-1.732,1.393A1.656,1.656,0,0,1,642.383,777.665Z" transform="translate(-170.708 -5.572)"/>
    <path id="Path_4409" data-name="Path 4409" d="M755.133,1057.967c.028,1.37-2.2,3.669-3.2,3.505a2.056,2.056,0,0,1-1.378-.921,1.953,1.953,0,0,1,.166-1.638,10.2,10.2,0,0,1,1.812-1.856,1.309,1.309,0,0,1,1.664-.161A4.99,4.99,0,0,1,755.133,1057.967Z" transform="translate(-255.174 -231.144)"/>
    <path id="Path_4410" data-name="Path 4410" d="M753.1,795.473a7.037,7.037,0,0,1,1.3,1.08,1.293,1.293,0,0,1-.123,1.664,16.71,16.71,0,0,1-1.9,1.893,1.487,1.487,0,0,1-1.955-.03,1.433,1.433,0,0,1-.459-1.885,25.127,25.127,0,0,1,2.459-2.43c.121-.113.357-.1.539-.15Z" transform="translate(-254.641 -26.98)"/>
    <path id="Path_4411" data-name="Path 4411" d="M784.6,1024.806a4.905,4.905,0,0,1,.515-1.124,19.34,19.34,0,0,1,1.776-1.787,1.606,1.606,0,0,1,2.3,2.211,9.465,9.465,0,0,1-1.917,1.86,1.992,1.992,0,0,1-1.647.1C785.181,1025.86,784.924,1025.225,784.6,1024.806Z" transform="translate(-281.874 -203.652)"/>
    <path id="Path_4412" data-name="Path 4412" d="M784.858,1058.067a5.876,5.876,0,0,1,.966-1.151,1.3,1.3,0,0,1,1.668.1,17.1,17.1,0,0,1,1.946,1.957,1.5,1.5,0,0,1-.146,2.01,1.463,1.463,0,0,1-1.921.3,22.118,22.118,0,0,1-2.232-2.229C784.979,1058.881,784.987,1058.551,784.858,1058.067Z" transform="translate(-282.075 -231.138)"/>
    <path id="Path_4413" data-name="Path 4413" d="M751.609,1021.577c1.359-.037,3.674,2.188,3.517,3.188a2.056,2.056,0,0,1-.914,1.381,1.95,1.95,0,0,1-1.639-.151,6.575,6.575,0,0,1-1.828-1.827,2.047,2.047,0,0,1-.169-1.645C750.758,1022.059,751.382,1021.77,751.609,1021.577Z" transform="translate(-255.199 -203.715)"/>
    <path id="Path_4414" data-name="Path 4414" d="M784.82,797.505a6.107,6.107,0,0,1,1.014-1.2,1.3,1.3,0,0,1,1.665.142,18.315,18.315,0,0,1,1.89,1.9,1.594,1.594,0,0,1-2.087,2.323,21.633,21.633,0,0,1-2.174-2.174C784.965,798.316,784.963,797.992,784.82,797.505Z" transform="translate(-282.045 -27.441)"/>
    <path id="Path_4415" data-name="Path 4415" d="M679.024,905.261c.419.334,1.027.59,1.207,1.023a2.1,2.1,0,0,1-.08,1.648,6.228,6.228,0,0,1-1.571,1.616,1.436,1.436,0,0,1-1.939-.083,1.332,1.332,0,0,1-.446-1.8,15.043,15.043,0,0,1,2.067-2.119c.132-.125.411-.095.622-.136Z" transform="translate(-196.98 -112.796)"/>
    <path id="Path_4416" data-name="Path 4416" d="M529.24,914.342c-1.679.621-3.045,1.153-4.435,1.609-.21.069-.6-.146-.8-.341q-6.145-6.1-12.261-12.239-5.345-5.344-10.7-10.68a.95.95,0,0,1-.282-1.2c.505-1.256.952-2.536,1.456-3.9.257.236.453.4.635.585q3.556,3.551,7.109,7.106c.173.173.342.353.528.511a1.6,1.6,0,0,0,2.279-.038,1.657,1.657,0,0,0-.019-2.288c-.289-.325-.611-.622-.919-.93-2.619-2.62-5.229-5.249-7.869-7.848a.963.963,0,0,1-.265-1.2c1.109-2.953,2.182-5.919,3.271-8.879.428-1.163.876-1.272,1.734-.414q16.847,16.841,33.689,33.686c.9.9.809,1.34-.4,1.786-2.958,1.093-5.926,2.159-8.876,3.273a.963.963,0,0,1-1.2-.3q-4.282-4.327-8.6-8.615a1.644,1.644,0,0,0-2.9.622,1.766,1.766,0,0,0,.647,1.744q3.649,3.632,7.288,7.273A9.55,9.55,0,0,0,529.24,914.342ZM518.42,899.83a1.585,1.585,0,0,0-1.591-1.617,1.635,1.635,0,0,0-1.659,1.571,1.686,1.686,0,0,0,1.654,1.68A1.63,1.63,0,0,0,518.42,899.83Z" transform="translate(-59.932 -88.077)" fill="#75bfd3"/>
    <path id="Path_4417" data-name="Path 4417" d="M464.361,1041.388l12.462,12.468c-1.292.474-2.659.994-4.044,1.464a.826.826,0,0,1-.687-.2q-4.526-4.483-9.012-9.008a.751.751,0,0,1-.2-.615C463.358,1044.092,463.881,1042.7,464.361,1041.388Z" transform="translate(-30.387 -219.201)" fill="#75bfd3"/>
    <path id="Path_4418" data-name="Path 4418" d="M570.358,987.812a1.631,1.631,0,0,1-1.6,1.633,1.686,1.686,0,0,1-1.654-1.68,1.636,1.636,0,0,1,1.659-1.571A1.585,1.585,0,0,1,570.358,987.812Z" transform="translate(-111.87 -176.059)"/>
  </g>
</svg>
