<svg xmlns="http://www.w3.org/2000/svg" width="77.128" height="91.795" viewBox="0 0 77.128 91.795">
  <g id="Group_445" data-name="Group 445" transform="translate(803.935 305.465)">
    <path id="Path_3777" data-name="Path 3777" d="M-734.7-305.465a10.8,10.8,0,0,1,4.823,2.374,9.175,9.175,0,0,1,3.053,6.274c.011.149.012.3.012.448q0,36.786-.008,73.572a9.156,9.156,0,0,1-7.021,8.849,10.68,10.68,0,0,1-2.483.265q-29.035.021-58.069.008a9.211,9.211,0,0,1-9.512-9.57c-.005-24.2.033-48.391-.033-72.586a9.5,9.5,0,0,1,7.7-9.5c.079-.013.147-.089.22-.135Zm-65.548,45.878q0,18.059,0,36.119c0,3.841,2.233,6.124,6.03,6.126q28.859.017,57.718,0c3.761,0,6.024-2.273,6.026-6.038q.013-36.208,0-72.416c0-3.714-2.272-5.984-5.982-5.987q-28.9-.018-57.807.019a6.964,6.964,0,0,0-2.852.583c-2.32,1.08-3.143,3.094-3.14,5.565Q-800.232-277.6-800.246-259.587Z" fill="#192842"/>
    <path id="Path_3778" data-name="Path 3778" d="M-764.652-263.821c.855-.831,1.7-1.677,2.57-2.486a.817.817,0,0,0,.22-1.088c-.636-1.446-1.217-2.917-1.823-4.376-.358-.863-1-1.737.332-2.521h-2.922c1.376.854.576,1.8.215,2.708-.481,1.22-.95,2.45-1.526,3.626a1.432,1.432,0,0,0,.391,2.052c.786.626,1.471,1.379,2.2,2.076l-.1.288c-1.612-.1-3.24-.089-4.833-.32a29.437,29.437,0,0,1-4.865-1.107c-1.491-.484-1.766-1.258-1.267-2.808a10.76,10.76,0,0,1,5.278-6.062c.925-.528,1.942-.895,2.987-1.367a8.821,8.821,0,0,1-3.139-4.839,6.352,6.352,0,0,1,3.891-7.625,6.057,6.057,0,0,1,6.554,1.341,6.211,6.211,0,0,1,1.7,6.493,8.483,8.483,0,0,1-2.981,4.536c1.449.8,2.964,1.49,4.316,2.418a9.578,9.578,0,0,1,3.86,5.126c.477,1.543.211,2.3-1.3,2.8a25.764,25.764,0,0,1-4.512,1.048c-1.7.242-3.427.27-5.143.391Z" transform="translate(-10.101 -6.347)" fill="#192842"/>
    <path id="Path_3779" data-name="Path 3779" d="M-755.182-242.2q9.45,0,18.9,0c1.3,0,2.033.576,2.052,1.609a1.511,1.511,0,0,1-1.218,1.642,4.719,4.719,0,0,1-1.151.12q-18.63.009-37.261,0a4.679,4.679,0,0,1-1.15-.12,1.517,1.517,0,0,1-1.216-1.645,1.592,1.592,0,0,1,1.342-1.562,6.344,6.344,0,0,1,1.072-.046Q-764.5-242.2-755.182-242.2Z" transform="translate(-10.125 -23.116)" fill="#192842"/>
    <path id="Path_3780" data-name="Path 3780" d="M-755.2-230.081q9.27,0,18.54,0a7.091,7.091,0,0,1,1.072.044,1.6,1.6,0,0,1,1.354,1.549,1.564,1.564,0,0,1-1.207,1.656,5.682,5.682,0,0,1-1.243.112q-18.54.008-37.08,0a5.893,5.893,0,0,1-1.243-.107,1.563,1.563,0,0,1-1.229-1.64,1.6,1.6,0,0,1,1.335-1.566,6.547,6.547,0,0,1,1.071-.049Q-764.511-230.083-755.2-230.081Z" transform="translate(-10.122 -27.546)" fill="#192842"/>
    <path id="Path_3781" data-name="Path 3781" d="M-755.236-217.97q9.315,0,18.63,0c1.623,0,2.361.515,2.377,1.644.017,1.165-.742,1.706-2.411,1.706q-18.586,0-37.172,0a6.547,6.547,0,0,1-1.071-.063,1.581,1.581,0,0,1-1.352-1.631,1.59,1.59,0,0,1,1.385-1.6,7.452,7.452,0,0,1,1.072-.049Q-764.506-217.973-755.236-217.97Z" transform="translate(-10.122 -31.971)" fill="#192842"/>
    <path id="Path_3782" data-name="Path 3782" d="M-734.414-202.522c-3.133,0-6.267.01-9.4-.006-1.25-.006-1.974-.678-1.917-1.736a1.512,1.512,0,0,1,1.262-1.521,5.319,5.319,0,0,1,1.156-.091q8.908-.009,17.816,0a5.8,5.8,0,0,1,1.156.091,1.569,1.569,0,0,1,1.258,1.618,1.6,1.6,0,0,1-1.307,1.587,6.2,6.2,0,0,1-1.071.056Q-729.938-202.518-734.414-202.522Z" transform="translate(-21.267 -36.388)" fill="#192842"/>
    <path id="Path_3783" data-name="Path 3783" d="M-728.2-178.588c-2.09,0-4.181.006-6.272-.006a3.254,3.254,0,0,1-1.053-.148,1.523,1.523,0,0,1-1.072-1.589,1.514,1.514,0,0,1,1.177-1.509,4.554,4.554,0,0,1,1.149-.128q6.092-.013,12.184,0a5.4,5.4,0,0,1,.8.032,1.643,1.643,0,0,1,1.534,1.764A1.644,1.644,0,0,1-721.4-178.6c-.595.043-1.194.015-1.792.015Z" transform="translate(-24.604 -45.124)" fill="#192842"/>
  </g>
</svg>
