<svg xmlns="http://www.w3.org/2000/svg" width="98.215" height="98.261" viewBox="0 0 98.215 98.261">
  <g id="Group_499" data-name="Group 499" transform="translate(-221.401 -303.491)">
    <path id="Path_4360" data-name="Path 4360" d="M313.494,341.513c.269,1.5.493,2.893.794,4.274a1.15,1.15,0,0,0,.645.695c2.923,1.064,4.631,3.282,4.639,6.095a6.427,6.427,0,0,1-4.6,6.128,1.212,1.212,0,0,0-.7.757,44.349,44.349,0,0,1-4.265,13.2c-.072.142-.118.3-.211.533.512.126.98.236,1.445.356a11.005,11.005,0,0,1,8.309,10.442c.062,4.321.04,8.643.008,12.964a4.743,4.743,0,0,1-9.486.034c-.015-.59,0-1.18,0-1.835-.464.071-.841.151-1.223.183a4.745,4.745,0,0,1-5.1-4.634q-.065-3.264,0-6.531a4.738,4.738,0,0,1,9.476.021c.041,4.09,0,8.181.034,12.271a2.261,2.261,0,0,0,.477,1.519,1.814,1.814,0,0,0,1.567.374,2.154,2.154,0,0,0,1.05-1.361,10.443,10.443,0,0,0,.053-2.364c0-3.365.011-6.73,0-10.095a7.92,7.92,0,1,0-15.83.012q-.013,2.87,0,5.74a7.917,7.917,0,0,0,7.533,8.226c.095.01.188.037.332.066v3.1a11.048,11.048,0,0,1-8.674-4.272c-2.217-2.751-2.561-5.988-2.312-9.527-.379.24-.623.375-.847.538a44.133,44.133,0,0,1-19.173,7.948,1.292,1.292,0,0,0-.839.716,6.351,6.351,0,0,1-12.193.053c-.1-.288-.37-.669-.625-.727-2.112-.482-4.239-.9-6.417-1.346-.342.678-.736,1.4-1.076,2.142-1.888,4.131-5.032,4.92-8.586,4.39a30.989,30.989,0,0,1-26.027-25.037,15.572,15.572,0,0,1-.231-3.834,6.448,6.448,0,0,1,3.552-5.471c1.007-.553,2.049-1.042,3.026-1.535-.446-2.171-.867-4.3-1.341-6.411a1.073,1.073,0,0,0-.628-.6c-2.934-1.067-4.638-3.277-4.648-6.085-.01-2.851,1.665-5.033,4.684-6.157a1.027,1.027,0,0,0,.6-.627,44.332,44.332,0,0,1,4.494-13.77h-9.7v-28.5h37.906v6.057c1.544-.3,3-.536,4.428-.894.29-.073.556-.568.68-.922a6.252,6.252,0,0,1,10.221-2.607,15.839,15.839,0,0,1,1.833,2.871c.187.285.477.654.764.7a44.266,44.266,0,0,1,16.477,6.1,4.142,4.142,0,0,0,.453.194c0-2.165,0-4.231,0-6.3,0-3.353,1.921-5.264,5.286-5.266q7.421,0,14.843,0c3.274,0,5.2,1.948,5.205,5.249,0,9.072-.082,18.145.041,27.215.051,3.747-2.654,5.888-5.549,5.547A5.63,5.63,0,0,0,313.494,341.513Zm-2.239,5.047c-.318-1.464-.656-2.87-.916-4.29-.114-.626-.4-.775-1-.77-3.3.027-6.6.016-9.9.012-3.276,0-5.207-1.948-5.209-5.246,0-5.476-.013-10.953.016-16.429a1.416,1.416,0,0,0-.73-1.353,41.064,41.064,0,0,0-12.549-5.667c-1.482-.384-2.994-.655-4.472-.974-1.228,2.787-3.187,4.338-6.111,4.307s-4.823-1.664-5.981-4.323c-1.4.3-2.747.625-4.106.862-.735.128-.925.463-.921,1.188.031,5.674.017,11.348.017,17.022v1.11h-1.2q-11.231,0-22.462-.013a1.184,1.184,0,0,0-1.31.747c-.939,2.174-2.073,4.277-2.846,6.506-.824,2.374-1.322,4.861-1.954,7.27,2.851,1.266,4.434,3.2,4.416,6.131s-1.666,4.819-4.354,6.024c.491,2.035.942,4.024,1.476,5.99a1.33,1.33,0,0,0,.834.762,6.765,6.765,0,0,1,4.852,4.124c.423,1,.811,2.017,1.2,3.03a9.523,9.523,0,0,1-1.641,10.09,1.132,1.132,0,0,0-.1,1.064c.925,1.052,1.926,2.04,2.935,3.014.449.434.863.307,1.354-.114a9.023,9.023,0,0,1,8.2-2.1,33.9,33.9,0,0,1,4.363,1.563,6.768,6.768,0,0,1,4.5,5.1,1.023,1.023,0,0,0,.564.672c2.058.547,4.131,1.037,6.194,1.543,1.239-2.792,3.176-4.374,6.1-4.362s4.813,1.673,5.987,4.255a41.181,41.181,0,0,0,19.985-8.8,2.731,2.731,0,0,0,1.085-1.865c.582-3.824,2.58-6.8,6.147-8.249a6.593,6.593,0,0,0,3.846-3.948c.3-.729.663-1.435.964-2.166a38.836,38.836,0,0,0,2.635-9.671c-2.67-1.191-4.267-3.116-4.249-6.049C306.947,349.667,308.534,347.769,311.256,346.56ZM297.47,331.9h18.839V313.1H297.47Zm-48.3,66.623a3.751,3.751,0,0,0,3.731-1.77,24.477,24.477,0,0,0,1.425-2.819,3.421,3.421,0,0,0-1.558-4.492,26.935,26.935,0,0,0-4.4-1.732,7.364,7.364,0,0,0-2.821-.068c-1.782.216-3,1.413-4.145,2.67a1.041,1.041,0,0,1-1.285.326,11.937,11.937,0,0,1-7.444-7.024,1.741,1.741,0,0,1,.576-2.411,5.833,5.833,0,0,0,2.146-6.444,25.1,25.1,0,0,0-1.774-4.491,3.439,3.439,0,0,0-4.515-1.491c-.575.242-1.111.579-1.685.825-2.864,1.224-3.144,2.939-2.748,5.437a27.36,27.36,0,0,0,13.016,19.611A25.343,25.343,0,0,0,249.17,398.526Zm-22.348-91.74c.308.369.489.6.685.818,2.646,2.941,5.462,5.749,7.885,8.862,1.767,2.271,3.732,3.265,6.542,2.844a2.23,2.23,0,0,0,1.508-.724q4.873-5.46,9.783-10.887c.233-.259.453-.528.782-.913Zm1.743,21.93H252.24c-1.961-1.31-3.839-2.364-5.48-3.708a10.171,10.171,0,0,0-8.283-2.435,2.425,2.425,0,0,0-.938.187C234.6,324.686,231.682,326.641,228.565,328.716Zm-3.87-19.259v17.85l10.037-6.7Zm31.445-.038-10.067,11.191,10.067,6.706Zm60.208.311c0-.494.017-.889,0-1.283a1.6,1.6,0,0,0-1.757-1.71q-7.67-.025-15.339,0a1.592,1.592,0,0,0-1.773,1.588c-.035.449-.006.9-.006,1.405Zm0,25.577H297.465c0,.432-.01.792,0,1.152a1.641,1.641,0,0,0,1.848,1.821q7.62.019,15.239,0a1.6,1.6,0,0,0,1.784-1.579C316.374,336.25,316.343,335.794,316.343,335.307Zm-45.811-28.567a3.146,3.146,0,0,0-3.124,3.05,3.238,3.238,0,0,0,3.075,3.132,3.192,3.192,0,0,0,3.1-3.085A3.1,3.1,0,0,0,270.532,306.741Zm-39.715,45.864a3.085,3.085,0,1,0-3.14,3.079A3.253,3.253,0,0,0,230.817,352.605Zm82.39,3.079a3.086,3.086,0,1,0-3.051-3.169A3.242,3.242,0,0,0,313.207,355.684Zm-42.683,42.76a3.086,3.086,0,1,0-3.123-3.1A3.247,3.247,0,0,0,270.524,398.444Zm39.547-11c0-1.022.022-2.045-.006-3.067a1.577,1.577,0,1,0-3.149-.007q-.039,3.066,0,6.133a1.577,1.577,0,1,0,3.149.007C310.094,389.488,310.071,388.465,310.071,387.443Z"/>
    <path id="Path_4361" data-name="Path 4361" d="M509.116,358.626V339.818h18.839v18.808Z" transform="translate(-211.646 -26.723)" fill="#fff"/>
    <path id="Path_4362" data-name="Path 4362" d="M257.866,579.31a25.342,25.342,0,0,1-11.485-3.873,27.359,27.359,0,0,1-13.016-19.611c-.4-2.5-.116-4.214,2.748-5.437.574-.246,1.11-.583,1.685-.825a3.439,3.439,0,0,1,4.515,1.491,25.108,25.108,0,0,1,1.774,4.491,5.833,5.833,0,0,1-2.146,6.444,1.741,1.741,0,0,0-.576,2.411,11.936,11.936,0,0,0,7.444,7.024,1.041,1.041,0,0,0,1.285-.326c1.141-1.257,2.363-2.454,4.145-2.67a7.365,7.365,0,0,1,2.821.068,26.94,26.94,0,0,1,4.4,1.732,3.421,3.421,0,0,1,1.558,4.492,24.481,24.481,0,0,1-1.425,2.819A3.751,3.751,0,0,1,257.866,579.31Z" transform="translate(-8.696 -180.785)" fill="#fff"/>
    <path id="Path_4363" data-name="Path 4363" d="M241.907,315.954h27.185c-.329.385-.549.655-.782.913q-4.894,5.441-9.783,10.887a2.23,2.23,0,0,1-1.508.724c-2.809.421-4.774-.573-6.542-2.844-2.423-3.114-5.24-5.922-7.885-8.862C242.4,316.554,242.215,316.323,241.907,315.954Z" transform="translate(-15.085 -9.168)" fill="#fff"/>
    <path id="Path_4364" data-name="Path 4364" d="M248.5,381.478c3.116-2.075,6.035-4.03,8.974-5.956a2.424,2.424,0,0,1,.938-.187,10.171,10.171,0,0,1,8.283,2.435c1.641,1.343,3.519,2.4,5.48,3.708Z" transform="translate(-19.934 -52.762)" fill="#fff"/>
    <path id="Path_4365" data-name="Path 4365" d="M233.86,326.057,243.9,337.211l-10.037,6.7Z" transform="translate(-9.165 -16.6)" fill="#fff"/>
    <path id="Path_4366" data-name="Path 4366" d="M324.787,325.912v17.9L314.72,337.1Z" transform="translate(-68.647 -16.493)" fill="#fff"/>
    <path id="Path_4367" data-name="Path 4367" d="M527.964,423.831c0,.487.031.943-.006,1.393a1.6,1.6,0,0,1-1.784,1.579q-7.62.021-15.239,0a1.641,1.641,0,0,1-1.848-1.821c-.011-.36,0-.72,0-1.152Z" transform="translate(-211.621 -88.524)" fill="#fff"/>
    <path id="Path_4368" data-name="Path 4368" d="M239.85,480.648a3.085,3.085,0,1,1-3.028-3.093A3.243,3.243,0,0,1,239.85,480.648Z" transform="translate(-9.033 -128.043)" fill="#fff"/>
    <path id="Path_4369" data-name="Path 4369" d="M560.141,483.729a3.086,3.086,0,1,1,3.118-3.1A3.261,3.261,0,0,1,560.141,483.729Z" transform="translate(-246.935 -128.045)" fill="#fff"/>
    <path id="Path_4370" data-name="Path 4370" d="M398.511,645.461a3.086,3.086,0,1,1,3.047-3.073A3.254,3.254,0,0,1,398.511,645.461Z" transform="translate(-127.986 -247.017)" fill="#fff"/>
    <path id="Path_4371" data-name="Path 4371" d="M547.948,607.817c0,1.022.023,2.045-.006,3.066a1.577,1.577,0,1,1-3.149-.007q-.037-3.066,0-6.133a1.577,1.577,0,1,1,3.149.007C547.97,605.772,547.948,606.795,547.948,607.817Z" transform="translate(-237.876 -220.374)" fill="#fff"/>
    <path id="Path_4372" data-name="Path 4372" d="M370.37,431.961a20.584,20.584,0,1,1-20.573-20.6A20.623,20.623,0,0,1,370.37,431.961Zm-14.252,1.658H343.446l.726,6.166h11.239ZM355.4,424.1H344.163c-.235,2.057-.468,4.1-.7,6.164h12.665Zm-15.2,6.193.644-6.229c-2.085,0-4.122-.009-6.158.015a.713.713,0,0,0-.525.331,14.665,14.665,0,0,0-1.61,5.883Zm-7.674,3.327a15.486,15.486,0,0,0,1.656,5.9.624.624,0,0,0,.446.3c2.064.02,4.128.013,6.214.013-.221-2.145-.429-4.164-.641-6.219Zm26.833-.014c-.217,2.125-.423,4.139-.638,6.239,1.726,0,3.378-.106,5.009.034a1.833,1.833,0,0,0,2.2-1.5,15.134,15.134,0,0,0,1.057-4.773Zm-.64-9.545.642,6.224h7.656a14.752,14.752,0,0,0-1.641-5.9.831.831,0,0,0-.635-.314C362.772,424.049,360.8,424.059,358.723,424.059Zm-4.249-3.247a12.66,12.66,0,0,0-2.927-5.4,2.229,2.229,0,0,0-3.489-.032,12.34,12.34,0,0,0-2.955,5.435Zm-9.383,22.276a12.733,12.733,0,0,0,2.968,5.435c1,.95,1.968,1.106,2.943.387,1.948-1.436,2.71-3.585,3.457-5.822Zm10.872,5.091a16.962,16.962,0,0,0,7.117-5.115c-1.688,0-3.164-.022-4.639.022a.947.947,0,0,0-.687.485C357.139,445.055,356.583,446.561,355.963,448.179ZM341.57,420.8l2.069-5.075A17.072,17.072,0,0,0,336.5,420.8Zm21.558.041A17.235,17.235,0,0,0,356,415.754c.616,1.619,1.173,3.145,1.793,4.646a.959.959,0,0,0,.733.419C359.965,420.858,361.409,420.838,363.128,420.838Zm-26.7,22.226a17.269,17.269,0,0,0,7.148,5.069c-.616-1.617-1.179-3.145-1.795-4.652a.859.859,0,0,0-.651-.4C339.655,443.047,338.182,443.064,336.426,443.064Z" transform="translate(-79.299 -79.352)"/>
    <path id="Path_4373" data-name="Path 4373" d="M401.256,373.008v-9.391H404.3v9.391Z" transform="translate(-132.303 -44.23)"/>
    <path id="Path_4374" data-name="Path 4374" d="M281.491,483.408h9.374v3.062h-9.374Z" transform="translate(-44.203 -132.349)"/>
    <path id="Path_4375" data-name="Path 4375" d="M506.573,483.5v3.047H497.2V483.5Z" transform="translate(-202.878 -132.418)"/>
    <path id="Path_4376" data-name="Path 4376" d="M401.226,588.727v-9.38h3.066v9.38Z" transform="translate(-132.281 -202.923)"/>
    <path id="Path_4377" data-name="Path 4377" d="M395.75,495.542l-.707,6.166H383.8l-.726-6.166Z" transform="translate(-118.931 -141.275)" fill="#75bfd3"/>
    <path id="Path_4378" data-name="Path 4378" d="M395.07,459.532l.722,6.164H383.127l.7-6.164Z" transform="translate(-118.967 -114.786)" fill="#75bfd3"/>
    <path id="Path_4379" data-name="Path 4379" d="M349.539,465.619h-7.648a14.664,14.664,0,0,1,1.61-5.883.713.713,0,0,1,.525-.331c2.037-.023,4.073-.015,6.158-.015Z" transform="translate(-88.634 -114.68)" fill="#75bfd3"/>
    <path id="Path_4380" data-name="Path 4380" d="M341.791,495.539h7.675c.212,2.055.42,4.074.641,6.219-2.086,0-4.15.007-6.214-.013a.624.624,0,0,1-.446-.3A15.486,15.486,0,0,1,341.791,495.539Z" transform="translate(-88.56 -141.273)" fill="#75bfd3"/>
    <path id="Path_4381" data-name="Path 4381" d="M441.506,495.485h7.627a15.135,15.135,0,0,1-1.057,4.773,1.833,1.833,0,0,1-2.2,1.5c-1.63-.14-3.282-.034-5.009-.034C441.083,499.624,441.289,497.61,441.506,495.485Z" transform="translate(-161.442 -141.233)" fill="#75bfd3"/>
    <path id="Path_4382" data-name="Path 4382" d="M440.861,459.378c2.077,0,4.049-.01,6.022.014a.831.831,0,0,1,.635.314,14.753,14.753,0,0,1,1.641,5.9H441.5Z" transform="translate(-161.437 -114.671)" fill="#75bfd3"/>
    <path id="Path_4383" data-name="Path 4383" d="M398.719,429.686h-9.37a12.34,12.34,0,0,1,2.955-5.435,2.229,2.229,0,0,1,3.489.032A12.659,12.659,0,0,1,398.719,429.686Z" transform="translate(-123.544 -88.225)" fill="#75bfd3"/>
    <path id="Path_4384" data-name="Path 4384" d="M389.3,531.359h9.367c-.747,2.237-1.509,4.386-3.457,5.822-.975.719-1.946.563-2.943-.387A12.732,12.732,0,0,1,389.3,531.359Z" transform="translate(-123.509 -167.622)" fill="#75bfd3"/>
    <path id="Path_4385" data-name="Path 4385" d="M430.421,536.365c.621-1.618,1.177-3.125,1.79-4.608a.947.947,0,0,1,.687-.485c1.475-.044,2.952-.022,4.64-.022A16.961,16.961,0,0,1,430.421,536.365Z" transform="translate(-153.757 -167.538)" fill="#75bfd3"/>
    <path id="Path_4386" data-name="Path 4386" d="M361.888,432.923h-5.066a17.072,17.072,0,0,1,7.135-5.075Z" transform="translate(-99.617 -91.479)" fill="#75bfd3"/>
    <path id="Path_4387" data-name="Path 4387" d="M437.679,433.054c-1.719,0-3.163.021-4.606-.019a.959.959,0,0,1-.733-.419c-.62-1.5-1.178-3.026-1.793-4.646A17.235,17.235,0,0,1,437.679,433.054Z" transform="translate(-153.85 -91.568)" fill="#75bfd3"/>
    <path id="Path_4388" data-name="Path 4388" d="M356.527,531.253c1.756,0,3.23-.017,4.7.018a.859.859,0,0,1,.651.4c.615,1.507,1.179,3.035,1.795,4.652A17.269,17.269,0,0,1,356.527,531.253Z" transform="translate(-99.4 -167.542)" fill="#75bfd3"/>
  </g>
</svg>
