<svg xmlns="http://www.w3.org/2000/svg" width="62.97" height="76.925" viewBox="0 0 62.97 76.925">
  <g id="Group_500" data-name="Group 500" transform="translate(322.316 -374.995)">
    <path id="Path_4389" data-name="Path 4389" d="M-291.841,451.92a9.2,9.2,0,0,1-3.974-1.806,7.84,7.84,0,0,1-2.951-6.143c0-.225-.01-.45-.023-.674,0-.044-.039-.087-.1-.217H-320.23c-1.677,0-2.223-.575-2.059-2.245a9.649,9.649,0,0,1,4.169-7.231,1.242,1.242,0,0,0,.607-1.155q-.027-11.452-.013-22.9A26.265,26.265,0,0,1-307.452,388.2a24.243,24.243,0,0,1,9.078-4.656c.631-.17.875-.424.838-1.118a6.645,6.645,0,0,1,2.675-6.042,6.42,6.42,0,0,1,6.672-.806,6.349,6.349,0,0,1,4.02,5.45c.036.323.075.647.084.971.041,1.437.05,1.4,1.362,1.864a26.175,26.175,0,0,1,16.775,16.866,26.168,26.168,0,0,1,1.322,8.71c-.012,7.56,0,15.12-.018,22.679a1.232,1.232,0,0,0,.66,1.193,9.609,9.609,0,0,1,4.635,8.037q.076,1.729-1.837,1.728-10.326.007-20.652,0h-.96c-.05.629-.078,1.218-.147,1.8a8.021,8.021,0,0,1-6.386,6.894,2.856,2.856,0,0,0-.407.144Zm29.3-11.9a6.63,6.63,0,0,0-3.676-4.5,2.244,2.244,0,0,1-1.453-2.338q.047-11.862,0-23.724a25.928,25.928,0,0,0-.388-4.7,22.511,22.511,0,0,0-11.087-15.913c-7.6-4.432-15.494-4.624-23.163-.383-8.058,4.456-12.064,11.6-12.173,20.81-.088,7.482-.018,14.965-.018,22.448v.817h5.3q10.623,0,21.247,0c1.166,0,1.842.566,1.853,1.508.01.963-.645,1.516-1.816,1.532-.2,0-.4,0-.6,0q-13.176,0-26.352,0a1.837,1.837,0,0,0-.81.063,6.711,6.711,0,0,0-3.419,4.38Zm-33.11,3.155a4.953,4.953,0,0,0,4.764,5.691,4.962,4.962,0,0,0,4.955-4.968c.026-.582-.154-.79-.755-.785-2.776.025-5.553.01-8.33.013C-295.217,443.131-295.413,443.16-295.655,443.179Zm8.53-60.731a3.787,3.787,0,0,0-1.662-3.812,3.559,3.559,0,0,0-4.1.016,3.7,3.7,0,0,0-1.622,3.8Z" transform="translate(0)"/>
    <path id="Path_4390" data-name="Path 4390" d="M-248.672,484.911h-56.557a6.71,6.71,0,0,1,3.419-4.38,1.837,1.837,0,0,1,.81-.063q13.176,0,26.352,0c.2,0,.4,0,.6,0,1.171-.016,1.826-.57,1.816-1.532-.01-.942-.686-1.508-1.853-1.508q-10.624-.007-21.247,0h-5.3V476.6c0-7.483-.07-14.966.018-22.448.109-9.211,4.115-16.354,12.173-20.81,7.67-4.241,15.566-4.049,23.163.383a22.511,22.511,0,0,1,11.087,15.913,25.931,25.931,0,0,1,.388,4.7q.056,11.862,0,23.724a2.244,2.244,0,0,0,1.453,2.338A6.63,6.63,0,0,1-248.672,484.911Zm-17.753-5.978a1.576,1.576,0,0,0-1.57-1.5,1.535,1.535,0,0,0-1.441,1.532,1.5,1.5,0,0,0,1.552,1.482A1.539,1.539,0,0,0-266.426,478.933Z" transform="translate(-13.873 -44.887)" fill="#75bfd3"/>
    <path id="Path_4391" data-name="Path 4391" d="M-180.742,737.188c.242-.019.438-.049.635-.049,2.777,0,5.554.012,8.33-.013.6-.005.78.2.755.785a4.962,4.962,0,0,1-4.955,4.968A4.954,4.954,0,0,1-180.742,737.188Z" transform="translate(-114.914 -294.009)" fill="#fff"/>
    <path id="Path_4392" data-name="Path 4392" d="M-111.949,682.44a1.539,1.539,0,0,1-1.459,1.518,1.5,1.5,0,0,1-1.552-1.482,1.535,1.535,0,0,1,1.441-1.532A1.576,1.576,0,0,1-111.949,682.44Z" transform="translate(-168.35 -248.394)"/>
  </g>
</svg>
