<svg xmlns="http://www.w3.org/2000/svg" width="94.226" height="94.261" viewBox="0 0 94.226 94.261">
  <g id="Group_498" data-name="Group 498" transform="translate(-511.482 165.718)">
    <path id="Path_4355" data-name="Path 4355" d="M555.647-71.457c-1.695-.234-3.4-.417-5.082-.711A45.9,45.9,0,0,1,523.028-87.71a46.026,46.026,0,0,1-11.507-32.947A46.934,46.934,0,0,1,549.477-164.8a46.257,46.257,0,0,1,37.7,8.747c1.12.835,1.338,1.928.6,2.845-.664.826-1.7.812-2.795.131a76.454,76.454,0,0,0-8.18-4.9,41.612,41.612,0,0,0-33.934-1.033c-13.547,5.391-22.591,15.25-26.181,29.393-4.21,16.585.16,31.019,12.476,42.974.152.148.323.277.6.513a29.315,29.315,0,0,1,11.824-17.835,28.651,28.651,0,0,1,20.734-5.183A29.488,29.488,0,0,1,587.4-86.181a5.664,5.664,0,0,0,.574-.412,42.5,42.5,0,0,0,13.7-26.654,42.886,42.886,0,0,0-5.718-27.485,2.018,2.018,0,0,1-.069-2.474,1.573,1.573,0,0,1,1.881-.6,2.685,2.685,0,0,1,1.231,1,46.075,46.075,0,0,1,6.149,17c.219,1.42.376,2.85.562,4.275v5.891c-.075.6-.159,1.207-.225,1.812a46.468,46.468,0,0,1-11.394,26.2,46.182,46.182,0,0,1-27.381,15.448c-1.712.3-3.447.48-5.171.715Zm2.769-3.692A43.3,43.3,0,0,0,582.3-82.2c1.908-1.244,1.908-1.244,1.381-3.494a25.643,25.643,0,0,0-30.2-19.468,25.6,25.6,0,0,0-20.244,20.62,1.471,1.471,0,0,0,.707,1.735A43.322,43.322,0,0,0,558.416-75.15Z" transform="translate(0 0)"/>
    <path id="Path_4356" data-name="Path 4356" d="M652.25-53.181A16.6,16.6,0,0,1,635.7-69.751a16.592,16.592,0,0,1,16.636-16.573,16.591,16.591,0,0,1,16.5,16.614A16.6,16.6,0,0,1,652.25-53.181Zm12.887-16.6a12.9,12.9,0,0,0-12.918-12.838A12.9,12.9,0,0,0,639.4-69.771a12.907,12.907,0,0,0,12.871,12.887A12.908,12.908,0,0,0,665.137-69.783Z" transform="translate(-93.679 -59.874)"/>
    <path id="Path_4357" data-name="Path 4357" d="M835.186-104.248a1.854,1.854,0,0,1,1.84,1.786,1.861,1.861,0,0,1-1.833,1.887,1.856,1.856,0,0,1-1.839-1.88A1.853,1.853,0,0,1,835.186-104.248Z" transform="translate(-242.736 -46.357)"/>
    <path id="Path_4358" data-name="Path 4358" d="M625.005,109.032a43.322,43.322,0,0,1-24.468-7.655,1.471,1.471,0,0,1-.707-1.735,25.76,25.76,0,0,1,50.443-1.151c.527,2.25.527,2.25-1.381,3.494A43.3,43.3,0,0,1,625.005,109.032Z" transform="translate(-66.589 -184.182)" fill="#75bfd3"/>
    <path id="Path_4359" data-name="Path 4359" d="M676.5-58.423a12.908,12.908,0,0,1-12.861,12.9,12.907,12.907,0,0,1-12.871-12.887,12.9,12.9,0,0,1,12.814-12.85A12.9,12.9,0,0,1,676.5-58.423Z" transform="translate(-105.037 -71.234)" fill="#75bfd3"/>
  </g>
</svg>
