<svg xmlns="http://www.w3.org/2000/svg" width="31.875" height="27.937" viewBox="0 0 31.875 27.937">
  <g id="art" transform="translate(0 -26.576)">
    <g id="Group_11" data-name="Group 11" transform="translate(0 26.576)">
      <g id="Group_10" data-name="Group 10" transform="translate(0 0)">
        <path id="Path_11" data-name="Path 11" d="M177.24,159.668a3.251,3.251,0,1,0,3.251,3.251A3.251,3.251,0,0,0,177.24,159.668Zm0,4.955a1.7,1.7,0,0,1,0-3.406h0a1.7,1.7,0,0,1,0,3.406Z" transform="translate(-161.098 -149.807)"/>
        <path id="Path_12" data-name="Path 12" d="M29.109,29,7.975,26.6a2.9,2.9,0,0,0-2.284.658,2.942,2.942,0,0,0-1.123,2.013l-.387,3.174h-1.2A3.111,3.111,0,0,0,0,35.662V51.494a2.942,2.942,0,0,0,2.863,3.018H24.232a3.177,3.177,0,0,0,3.251-3.019v-.619a3.87,3.87,0,0,0,1.471-.619,3.213,3.213,0,0,0,1.123-2.09l1.781-15.715A3.135,3.135,0,0,0,29.109,29ZM25.935,51.494a1.63,1.63,0,0,1-1.7,1.471H2.981a1.393,1.393,0,0,1-1.434-1.352q0-.059,0-.119V48.629l6-4.413a1.858,1.858,0,0,1,2.4.116l4.219,3.716a3.639,3.639,0,0,0,2.284.852,3.522,3.522,0,0,0,1.858-.5l7.625-4.413v7.509Zm0-9.329L17.5,47.081a1.974,1.974,0,0,1-2.284-.194l-4.258-3.755a3.445,3.445,0,0,0-4.3-.155L1.549,46.694V35.662A1.563,1.563,0,0,1,2.981,34h21.25a1.781,1.781,0,0,1,1.7,1.664ZM30.31,32.24l0,.015L28.49,47.971a1.316,1.316,0,0,1-.5,1.045c-.155.155-.5.232-.5.31V35.662a3.329,3.329,0,0,0-3.251-3.213H5.73l.348-3.019a1.781,1.781,0,0,1,.581-1.006,1.78,1.78,0,0,1,1.161-.31l21.1,2.439A1.548,1.548,0,0,1,30.31,32.24Z" transform="translate(0 -26.576)"/>
      </g>
    </g>
  </g>
</svg>
