<svg xmlns="http://www.w3.org/2000/svg" width="26.602" height="29.016" viewBox="0 0 26.602 29.016">
  <g id="paper-clip" transform="translate(-21.301)">
    <g id="Group_9" data-name="Group 9" transform="translate(21.301)">
      <path id="Path_10" data-name="Path 10" d="M39.759,8.494,38.54,7.275,28.545,17.27a3.184,3.184,0,0,0,4.5,4.5L46.47,8.349a4.891,4.891,0,1,0-6.917-6.916l-16.32,16.32a6.6,6.6,0,1,0,9.331,9.331L45.456,14.192l-1.219-1.219L31.346,25.865a4.874,4.874,0,0,1-6.893-6.893l16.32-16.32A3.167,3.167,0,1,1,45.252,7.13L31.829,20.553a1.46,1.46,0,0,1-2.065-2.065Z" transform="translate(-21.301)"/>
    </g>
  </g>
</svg>
