<svg id="smile" xmlns="http://www.w3.org/2000/svg" width="31.333" height="31.333" viewBox="0 0 31.333 31.333">
  <g id="Group_13" data-name="Group 13">
    <g id="Group_12" data-name="Group 12">
      <path id="Path_13" data-name="Path 13" d="M15.667,0A15.667,15.667,0,1,0,31.333,15.667,15.685,15.685,0,0,0,15.667,0Zm0,29.971a14.3,14.3,0,1,1,14.3-14.3A14.32,14.32,0,0,1,15.667,29.971Z"/>
      <path id="Path_14" data-name="Path 14" d="M100.087,130.043a2.043,2.043,0,1,0-2.043,2.043A2.046,2.046,0,0,0,100.087,130.043Zm-2.725,0a.681.681,0,1,1,.681.681A.682.682,0,0,1,97.362,130.043Z" transform="translate(-87.826 -117.101)"/>
      <path id="Path_15" data-name="Path 15" d="M226.043,128a2.043,2.043,0,1,0,2.043,2.043A2.046,2.046,0,0,0,226.043,128Zm0,2.725a.681.681,0,1,1,.681-.681A.682.682,0,0,1,226.043,130.725Z" transform="translate(-204.927 -117.101)"/>
      <path id="Path_16" data-name="Path 16" d="M117.4,224.173a.681.681,0,0,0-.962.053,7.578,7.578,0,0,1-11.246,0,.681.681,0,0,0-1.015.909,8.94,8.94,0,0,0,13.276,0A.682.682,0,0,0,117.4,224.173Z" transform="translate(-95.145 -204.927)"/>
    </g>
  </g>
</svg>
