<svg id="Group_444" data-name="Group 444" xmlns="http://www.w3.org/2000/svg" width="97.291" height="83.643" viewBox="0 0 97.291 83.643">
  <path id="Path_3775" data-name="Path 3775" d="M-548-355.564a2.521,2.521,0,0,1,2.584-1.35c1.953.072,3.911.02,5.967.02v-1.193q0-23.753,0-47.505c0-2.024.581-2.61,2.587-2.611q5.843,0,11.686,0h1.119v-1.1q0-6.793,0-13.586c0-1.755.656-2.414,2.4-2.415q13.776,0,27.553,0c1.684,0,2.345.672,2.348,2.373,0,2.4,0,4.792,0,7.332.409-.252.7-.418.978-.6q6.321-4.212,12.635-8.433a2.218,2.218,0,0,1,2.456-.449,2.2,2.2,0,0,1,1.036,2.361c-.013.221,0,.443,0,.665V-408.2h2.046q5.415,0,10.831,0c1.89,0,2.515.619,2.515,2.494q0,23.8,0,47.6v1.215c2.1,0,4.119,0,6.136,0,1.785,0,2.463.711,2.406,2.5a13.236,13.236,0,0,1-12.652,12.663c-9.088.124-18.178.041-27.267.034a1.9,1.9,0,0,1-2.061-1.89,1.925,1.925,0,0,1,2.147-1.9c8.8-.007,17.609.008,26.413-.009a9.478,9.478,0,0,0,9.355-7.294,1.382,1.382,0,0,0,0-.244h-89.144c.613,4.211,4.676,7.525,9.306,7.537,8.646.021,17.292.006,25.938.007a8.514,8.514,0,0,1,.949.017,1.9,1.9,0,0,1,1.717,1.843,1.905,1.905,0,0,1-1.734,1.924,8.759,8.759,0,0,1-.949.016q-12.732,0-25.463,0c-7.149,0-12.333-4.3-13.688-11.338a3.142,3.142,0,0,0-.155-.443Zm12.394-1.4h22.953c0-1.965-.014-3.862,0-5.759a13.29,13.29,0,0,1,10.308-12.822c.543-.124,1.09-.231,1.794-.378-4.443-1.342-6.825-4.549-6.369-8.388a7.657,7.657,0,0,1,7.076-6.774,7.622,7.622,0,0,1,7.877,5.812,7.44,7.44,0,0,1-1.028,5.909,8.079,8.079,0,0,1-4.98,3.436,11.883,11.883,0,0,0,1.307.3,13.316,13.316,0,0,1,10.613,13.065c.011,1.859,0,3.718,0,5.608h22.928v-47.373h-11.526c0,1.09-.024,2.1.007,3.115a2.195,2.195,0,0,1-1.023,2.277,2.2,2.2,0,0,1-2.458-.426q-6.307-4.23-12.632-8.432c-.281-.187-.571-.358-1-.624v1.045c0,2.121.006,4.243,0,6.364-.006,1.615-.7,2.3-2.323,2.3q-13.821.005-27.643,0c-1.668,0-2.331-.685-2.337-2.385,0-1.093,0-2.187,0-3.264h-11.55Zm39.988-45.582v-18.886h-24.587v18.886Zm-13.074,45.585h18.83c0-2.055.05-4.046-.01-6.035a9.515,9.515,0,0,0-8.812-9.081,9.316,9.316,0,0,0-9.955,7.858A57.209,57.209,0,0,0-508.691-356.96Zm30.218-62.872L-490.214-412l11.74,7.82Zm-20.857,40.13a3.814,3.814,0,0,0,3.776-3.82,3.81,3.81,0,0,0-3.819-3.776,3.808,3.808,0,0,0-3.775,3.819A3.812,3.812,0,0,0-499.331-379.7Z" transform="translate(548 425.307)" fill="#192842"/>
  <path id="Path_3776" data-name="Path 3776" d="M-360.047-109.027a1.913,1.913,0,0,1-1.913,1.922,1.914,1.914,0,0,1-1.873-1.866,1.909,1.909,0,0,1,1.912-1.921A1.914,1.914,0,0,1-360.047-109.027Z" transform="translate(410.588 190.713)" fill="#192842"/>
</svg>
