<svg xmlns="http://www.w3.org/2000/svg" width="88.33" height="88.333" viewBox="0 0 88.33 88.333">
  <g id="Group_447" data-name="Group 447" transform="translate(773.292 -336.182)">
    <path id="Path_3786" data-name="Path 3786" d="M-594.311,514.786a1.357,1.357,0,0,1-1.674.823c-.786-.253-.9-.916-.891-1.653.02-1.956.007-3.912.007-6.1a11.936,11.936,0,0,1-8.476,4.223c0,.7.021,1.351,0,2a4.66,4.66,0,0,1-4.63,4.612,4.672,4.672,0,0,1-4.679-4.652c-.021-.62,0-1.24,0-1.917H-634.39c0,.633.01,1.25,0,1.866a4.708,4.708,0,0,1-4.643,4.7,4.718,4.718,0,0,1-4.709-4.643c-.021-.622,0-1.245,0-1.961a11.861,11.861,0,0,1-8.374-4.173c-.03.437-.063.7-.063.964q0,8.314,0,16.628c0,3.051,1.763,4.789,4.836,4.79q22.806,0,45.612,0c3.1,0,4.863-1.764,4.866-4.856,0-1.506.012-3.013,0-4.52-.008-.716.042-1.387.823-1.7s1.276.16,1.74.684V526.9a6.967,6.967,0,0,1-2.905,4.62,21.9,21.9,0,0,1-3.064,1.351h-48.435c-.51-.157-1.035-.278-1.527-.477a6.707,6.707,0,0,1-4.473-5.991c-.028-.311-.028-.625-.028-.937q0-14.2,0-28.4a6.852,6.852,0,0,1,5.314-7.086,9.448,9.448,0,0,1,2.029-.2c2.046-.025,4.093-.009,6.139-.009h1.028c0-1.348-.042-2.594.008-3.836a8.42,8.42,0,0,1,6.725-8.058,10.981,10.981,0,0,1,2.285-.208q6.693-.028,13.386-.007c5.406.013,9.014,3.647,9.019,9.062,0,.987,0,1.974,0,3.047,2.1,0,4.113-.021,6.123.009a14.179,14.179,0,0,1,3.048.215,6.69,6.69,0,0,1,5.146,5.13c.051.189.119.373.18.56Zm-10.905-5.293a8.721,8.721,0,0,0,7.442-5.053c1.4-2.893,1.119-6.011.657-9.033-.3-1.99-2.208-3.079-4.54-3.08q-22.717,0-45.434,0c-.256,0-.512-.008-.767,0a4.3,4.3,0,0,0-4.317,4.353c-.034,1.477-.009,2.955.022,4.433a7.963,7.963,0,0,0,1.4,4.318,8.8,8.8,0,0,0,6.912,4.047c.653-3.1,2.231-4.763,4.685-4.683a6.168,6.168,0,0,1,2.847.92,4.478,4.478,0,0,1,1.96,3.723h19.617c.5-2.927,2.066-4.537,4.5-4.684C-607.737,504.607-606.148,506.1-605.216,509.493Zm-8.826-19.789h2.677c0-1.138.005-2.213,0-3.288a5.9,5.9,0,0,0-5.92-6.172c-4.826-.088-9.656-.067-14.483,0a5.574,5.574,0,0,0-5.567,4.081,34.708,34.708,0,0,0-.48,5.4h2.768c0-1.12-.009-2.192,0-3.264a3.341,3.341,0,0,1,3.578-3.563q6.944-.012,13.888,0a3.291,3.291,0,0,1,3.536,3.5C-614.029,487.465-614.042,488.54-614.042,489.7Zm-18.438.008H-616.6c0-1.1-.021-2.141.007-3.183.022-.815-.353-1.105-1.139-1.092-1.7.029-3.406.009-5.109.009-2.839,0-5.677.006-8.516,0-.57,0-1.082.106-1.109.764C-632.516,487.359-632.481,488.517-632.481,489.713Zm-4.47,22.028c0-.767.024-1.534-.005-2.3a2.129,2.129,0,0,0-2.11-2.127,2.1,2.1,0,0,0-2.1,2.045c-.057,1.56-.055,3.124,0,4.684a2.109,2.109,0,0,0,2.151,2.083,2.133,2.133,0,0,0,2.068-2.17C-636.929,513.218-636.949,512.479-636.95,511.741Zm29.042.028h-.006c0-.823.039-1.647-.009-2.467a2.081,2.081,0,0,0-2.051-1.986,2.062,2.062,0,0,0-2.1,2.017q-.074,2.38,0,4.764a2.064,2.064,0,0,0,2.1,2.028,2.093,2.093,0,0,0,2.069-2.06C-607.877,513.3-607.909,512.534-607.909,511.768Z" transform="translate(-91.15 -108.852)" fill="#192842" stroke="#192842" stroke-width="1"/>
    <path id="Path_3787" data-name="Path 3787" d="M-767.323,424.015a1.462,1.462,0,0,0-.3-.144,6.3,6.3,0,0,1-5.16-6.483q-.008-20.768,0-41.535c0-6.4.019-12.793-.011-19.19a6.911,6.911,0,0,1,2.127-5.2q6.3-6.243,12.539-12.547a7.194,7.194,0,0,1,5.41-2.24q21.105.032,42.21.012c4.29,0,6.933,2.624,6.936,6.89q.006,10.362,0,20.725a3.8,3.8,0,0,1-.086,1.012,1.156,1.156,0,0,1-1.354.9,1.147,1.147,0,0,1-1.1-1.108,7.531,7.531,0,0,1-.019-.852q0-10.32,0-20.64c0-2.88-1.484-4.368-4.353-4.368h-42.21a3.907,3.907,0,0,1-.426,0c-.719-.08-.986.181-.976.953.042,3.383.02,6.766.017,10.149,0,3.3-1.756,5.058-5.044,5.06H-769.1c-1.12,0-1.125,0-1.125,1.1q0,9.723,0,19.446,0,20.554,0,41.109c0,2.89,1.468,4.372,4.337,4.373q9,0,17.992,0c1.182,0,1.878.731,1.518,1.653-.14.358-.541.614-.823.917Zm10.681-82.548-11.367,11.373c3.113,0,6.37.03,9.627-.018a1.738,1.738,0,0,0,1.727-1.864C-756.618,347.754-756.642,344.55-756.642,341.467Z" transform="translate(0 0)" fill="#192842" stroke="#192842" stroke-width="1"/>
    <path id="Path_3788" data-name="Path 3788" d="M-634.764,407.657h12.527a7.148,7.148,0,0,1,.851.021,1.151,1.151,0,0,1,1.1,1.1,1.159,1.159,0,0,1-.906,1.35,3.808,3.808,0,0,1-1.011.08q-12.612.006-25.224,0a3.786,3.786,0,0,1-1.011-.083,1.156,1.156,0,0,1-.9-1.355,1.155,1.155,0,0,1,1.107-1.1,7.062,7.062,0,0,1,.851-.021Z" transform="translate(-95.321 -54.803)" fill="#192842" stroke="#192842" stroke-width="1"/>
    <path id="Path_3789" data-name="Path 3789" d="M-634.821,374.78c4.318,0,8.635.006,12.953-.006.715,0,1.309.15,1.542.909a1.249,1.249,0,0,1-.976,1.613,4.2,4.2,0,0,1-.848.041q-12.655,0-25.31,0a5.131,5.131,0,0,1-.766-.023,1.237,1.237,0,0,1-1.118-1.365,1.161,1.161,0,0,1,1.228-1.158c1.363-.029,2.727-.012,4.09-.012Z" transform="translate(-95.318 -29.413)" fill="#192842" stroke="#192842" stroke-width="1"/>
  </g>
</svg>
