<svg xmlns="http://www.w3.org/2000/svg" width="92.669" height="96.655" viewBox="0 0 92.669 96.655">
  <g id="E-learning_log-in_privacy" transform="translate(0.5 0.729)">
    <path id="Path_3752" data-name="Path 3752" d="M100.8,23.42H77.535a16.461,16.461,0,1,0-32.75,0H21.134a6.006,6.006,0,0,0-6,6V70.655s0,0,0,0,0,0,0,0v7.844a6.006,6.006,0,0,0,6,6H53.773l-1.956,14.3H47.176a.951.951,0,0,0,0,1.9H75.125a.951.951,0,0,0,0-1.9h-4.64l-1.956-14.3H100.8a6.007,6.007,0,0,0,6-6V29.419A6.007,6.007,0,0,0,100.8,23.42Zm0,1.9a4.1,4.1,0,0,1,4.1,4.1v2.266H74.263a16.4,16.4,0,0,0,2.963-6.363ZM61.16,7.177A14.558,14.558,0,1,1,46.6,21.735,14.558,14.558,0,0,1,61.16,7.177ZM21.134,25.322h23.96a16.4,16.4,0,0,0,2.963,6.363H17.037V29.419a4.1,4.1,0,0,1,4.1-4.1ZM68.564,98.8H53.736l1.956-14.3H66.608Zm32.239-16.2H21.134a4.1,4.1,0,0,1-4.1-4.1v-6.9H91.222a.951.951,0,0,0,0-1.9H17.037V33.589H49.751a16.431,16.431,0,0,0,22.818,0H104.9v36.12H95.482a.951.951,0,0,0,0,1.9H104.9v6.9a4.1,4.1,0,0,1-4.1,4.1Z" transform="translate(-15.134 -5.282)" fill="#192842" stroke="#192842" stroke-width="1"/>
    <path id="Path_3753" data-name="Path 3753" d="M242.457,366.063a3.182,3.182,0,1,0,3.182,3.182A3.182,3.182,0,0,0,242.457,366.063Zm0,4.462a1.279,1.279,0,1,1,1.279-1.279,1.279,1.279,0,0,1-1.279,1.279Z" transform="translate(-196.622 -297.41)" fill="#192842" stroke="#192842" stroke-width="1"/>
    <path id="Path_3754" data-name="Path 3754" d="M136.209,199.772a1.011,1.011,0,0,1-.207-.117.449.449,0,0,1-.185-.327.567.567,0,0,1,.153-.438,3,3,0,0,0,.783-2.312,2.961,2.961,0,0,0-2.644-2.7,2.994,2.994,0,0,0-2.532,5.015.555.555,0,0,1,.142.469.49.49,0,0,1-.247.359.955.955,0,0,1-.1.048,3.372,3.372,0,0,0-2.061,3.15v.129a1.675,1.675,0,0,0,1.673,1.673H136.6a1.675,1.675,0,0,0,1.673-1.673v-.109A3.4,3.4,0,0,0,136.209,199.772Zm.351,3.24h-5.537v-.089a1.687,1.687,0,0,1,1-1.566,2.71,2.71,0,0,0,.279-.134,2.194,2.194,0,0,0,1.108-1.588,2.257,2.257,0,0,0-.58-1.906,1.283,1.283,0,1,1,1.883,0,2.281,2.281,0,0,0-.6,1.769A2.172,2.172,0,0,0,135,201.04a2.745,2.745,0,0,0,.555.312h0a1.716,1.716,0,0,1,1.01,1.589Z" transform="translate(-107.584 -157.978)" fill="#192842" stroke="#192842" stroke-width="1"/>
    <path id="Path_3755" data-name="Path 3755" d="M214.627,53.454h11.222a2.8,2.8,0,0,0,2.792-2.792V42.287a2.793,2.793,0,0,0-2.608-2.783v-1.24a5.591,5.591,0,1,0-11.183,0V39.5h-.223a2.8,2.8,0,0,0-2.792,2.792v8.375a2.8,2.8,0,0,0,2.792,2.792Zm2.127-15.19a3.688,3.688,0,1,1,7.377,0V39.5h-7.377Zm-3.015,4.023a.89.89,0,0,1,.889-.889H225.85a.89.89,0,0,1,.889.889v8.375a.89.89,0,0,1-.889.889H214.627a.89.89,0,0,1-.889-.889Z" transform="translate(-174.405 -27.461)" fill="#192842" stroke="#192842" stroke-width="1"/>
    <path id="Path_3756" data-name="Path 3756" d="M244.34,91.392v1.4a.761.761,0,1,0,1.522,0v-1.4a2.56,2.56,0,1,0-1.522,0Zm.761-3.482a1.037,1.037,0,1,1-1.037,1.037A1.037,1.037,0,0,1,245.1,87.91Z" transform="translate(-199.268 -70.954)" fill="#192842" stroke="#192842" stroke-width="1"/>
    <path id="Path_3757" data-name="Path 3757" d="M215.771,193.365h-28.6A2.642,2.642,0,0,0,184.528,196v5.774a2.642,2.642,0,0,0,2.639,2.639h28.6a2.642,2.642,0,0,0,2.639-2.639V196A2.642,2.642,0,0,0,215.771,193.365Zm.736,8.413a.737.737,0,0,1-.736.736h-28.6a.737.737,0,0,1-.736-.736V196a.737.737,0,0,1,.736-.736h28.6a.737.737,0,0,1,.736.736Z" transform="translate(-152.294 -157.575)" fill="#192842" stroke="#192842" stroke-width="1"/>
    <path id="Path_3758" data-name="Path 3758" d="M225.8,216.962h-2.9a.951.951,0,1,0,0,1.9h2.9a.951.951,0,0,0,0-1.9Z" transform="translate(-182.594 -176.681)" fill="#192842" stroke="#192842" stroke-width="1"/>
    <path id="Path_3759" data-name="Path 3759" d="M264.919,216.962h-2.9a.951.951,0,0,0,0,1.9h2.9a.951.951,0,1,0,0-1.9Z" transform="translate(-214.271 -176.681)" fill="#192842" stroke="#192842" stroke-width="1"/>
    <path id="Path_3760" data-name="Path 3760" d="M304.039,216.962h-2.9a.951.951,0,0,0,0,1.9h2.9a.951.951,0,0,0,0-1.9Z" transform="translate(-245.947 -176.681)" fill="#192842" stroke="#192842" stroke-width="1"/>
    <path id="Path_3761" data-name="Path 3761" d="M215.771,262.977h-28.6a2.642,2.642,0,0,0-2.639,2.639v5.775a2.642,2.642,0,0,0,2.639,2.639h28.6a2.642,2.642,0,0,0,2.639-2.639v-5.775A2.642,2.642,0,0,0,215.771,262.977Zm.736,8.413a.737.737,0,0,1-.736.736h-28.6a.737.737,0,0,1-.736-.736v-5.775a.737.737,0,0,1,.736-.736h28.6a.737.737,0,0,1,.736.736Z" transform="translate(-152.294 -213.94)" fill="#192842" stroke="#192842" stroke-width="1"/>
    <path id="Path_3762" data-name="Path 3762" d="M225.8,287.017h-2.9a.951.951,0,1,0,0,1.9h2.9a.951.951,0,1,0,0-1.9Z" transform="translate(-182.594 -233.406)" fill="#192842" stroke="#192842" stroke-width="1"/>
    <path id="Path_3763" data-name="Path 3763" d="M264.919,287.017h-2.9a.951.951,0,0,0,0,1.9h2.9a.951.951,0,1,0,0-1.9Z" transform="translate(-214.271 -233.406)" fill="#192842" stroke="#192842" stroke-width="1"/>
    <path id="Path_3764" data-name="Path 3764" d="M304.039,287.017h-2.9a.951.951,0,0,0,0,1.9h2.9a.951.951,0,1,0,0-1.9Z" transform="translate(-245.947 -233.406)" fill="#192842" stroke="#192842" stroke-width="1"/>
    <path id="Path_3765" data-name="Path 3765" d="M139.285,268.291v-1.7a1.971,1.971,0,0,0-1.969-1.969h-1.927a1.972,1.972,0,0,0-1.969,1.969v1.7a1.8,1.8,0,0,0-.947,1.586v3.284a1.8,1.8,0,0,0,1.8,1.8h4.153a1.805,1.805,0,0,0,1.8-1.8v-3.284A1.8,1.8,0,0,0,139.285,268.291Zm-3.9-1.96h1.927a.257.257,0,0,1,.256.257v1.487h-2.44v-1.487a.257.257,0,0,1,.257-.257Zm3.131,6.83a.09.09,0,0,1-.091.09h-4.154a.09.09,0,0,1-.09-.09v-3.284a.09.09,0,0,1,.09-.09h4.153a.09.09,0,0,1,.09.09Z" transform="translate(-110.144 -215.27)" fill="#192842" stroke="#192842" stroke-width="1"/>
  </g>
</svg>
