<svg xmlns="http://www.w3.org/2000/svg" width="105.7" height="92.323" viewBox="0 0 105.7 92.323">
  <g id="Group_443" data-name="Group 443" transform="translate(0.1 0.097)">
    <path id="Path_3767" data-name="Path 3767" d="M-475.189-33.471c.13-.383.264-.765.39-1.15a7.478,7.478,0,0,1,6.7-5.265c2.808-.119,5.625-.025,8.512-.025v2.992c-.331.019-.689.058-1.047.058-2.095.006-4.189,0-6.284,0-3.328.007-5.177,1.842-5.177,5.146q0,12.878,0,25.755c0,3.247,1.829,5.125,5.09,5.149,4.327.032,8.654.009,12.981.009,5.082,0,10.165-.015,15.247.016a1.32,1.32,0,0,0,1.467-.892,5.714,5.714,0,0,1,5.648-3.556,5.7,5.7,0,0,1,5.519,3.595,1.253,1.253,0,0,0,1.391.85c6.49-.021,12.98-.013,19.471-.013h1.31V2.292h-21.49v8.513c3.939-1.463,6.929-.35,8.9,3.388a6.416,6.416,0,0,1,9.254,3.106,6.283,6.283,0,0,1,5.113-.684,6.064,6.064,0,0,1,4.442,5.586c.069,3.707.017,7.416.017,11.21h-3.072c0-.333,0-.7,0-1.058,0-3.194.006-6.387-.016-9.581A3.062,3.062,0,0,0-403.36,19.5a3.033,3.033,0,0,0-3.629,2.972c-.03.755-.009,1.511-.01,2.266s0,1.5,0,2.335h-3.091c0-2.306.006-4.6-.005-6.887a6.652,6.652,0,0,0-.116-1.429,2.957,2.957,0,0,0-3.263-2.364,2.942,2.942,0,0,0-2.777,2.916c-.05,2.2-.018,4.4-.02,6.593,0,.372,0,.743,0,1.183h-3.091V26.031c0-3.159.017-6.318-.007-9.478a3.027,3.027,0,0,0-2.778-3.252,3,3,0,0,0-3.387,3.134c-.028,3.159-.009,6.318-.009,9.478v1.179h-3.091v-1.17q0-12.311,0-24.622c0-2.169-1.268-3.509-3.211-3.454A2.977,2.977,0,0,0-434.794.6c-.038.409-.022.823-.022,1.235q0,16.638,0,33.275v1.257h-3.059V22.653a28.256,28.256,0,0,0-3.75.034,2.883,2.883,0,0,0-2.435,2.913c-.03,6.112-.046,12.225.009,18.337a4.809,4.809,0,0,0,.8,1.958c.559,1.057.952,2.457,1.848,3.006.856.524,2.264.164,3.429.164q17.874.006,35.748,0h1.415V36.693h3.027V52.158H-398.9q-21.686,0-43.371.019a1.586,1.586,0,0,1-1.663-.993c-1.017-2.021-2.547-3.887-3.09-6.015s-.146-4.5-.147-6.767q0-6.181.009-12.362a6.194,6.194,0,0,1,6.5-6.554c.883-.011,1.766,0,2.7,0V2.356c-.438-.021-.867-.061-1.3-.061q-13.753-.005-27.506-.006c-3.9,0-6.747-1.833-7.942-5.057-.176-.475-.323-.962-.483-1.443Z" transform="translate(475.189 39.95)" fill="#192842" stroke="#192842" stroke-width="0.2"/>
    <path id="Path_3768" data-name="Path 3768" d="M-351.017,2.284V-.807h1.225q10.508,0,21.016-.008a8.971,8.971,0,0,0,2.145-.195,4.514,4.514,0,0,0,3.383-4.405q.03-13.444,0-26.888a4.543,4.543,0,0,0-4.41-4.551c-.445-.026-.893-.013-1.339-.013h-77.829V-39.9c.349-.018.709-.053,1.069-.053q38.735,0,77.471,0c4.882,0,8.136,3.266,8.14,8.139q.012,12.878,0,25.755c0,5.081-3.179,8.311-8.277,8.335-6.765.032-13.53.008-20.295.008Z" transform="translate(425.646 39.958)" fill="#192842" stroke="#192842" stroke-width="0.2"/>
    <path id="Path_3769" data-name="Path 3769" d="M-255.516,3.018l3.361,17.841-3.03.569-2.123-11.2-.184-.025c-.224.745-.455,1.488-.67,2.236-.786,2.734-1.585,5.465-2.334,8.209-.181.662-.434.935-1.179.919-2.1-.045-2.1,0-2.711-2.031q-1.3-4.279-2.61-8.556c-.086-.282-.2-.557-.376-1.058-.69,3.953-1.338,7.66-2,11.472l-3.037-.524,3.095-17.854a23.15,23.15,0,0,1,2.63.036c.275.032.632.443.729.751,1.108,3.532,2.173,7.077,3.249,10.618.089.294.187.585.367,1.15.2-.555.327-.878.423-1.211.984-3.426,1.987-6.847,2.922-10.286.215-.792.518-1.178,1.387-1.073A18.535,18.535,0,0,0-255.516,3.018Z" transform="translate(328.234 8.836)" fill="#192842" stroke="#192842" stroke-width="0.2"/>
    <path id="Path_3770" data-name="Path 3770" d="M-314.333,11.116a5.679,5.679,0,0,1,2.09,6.368,5.425,5.425,0,0,1-5.033,4.028c-2.261.089-4.526.057-6.79.074a3.027,3.027,0,0,1-.45-.07V2.985a56.138,56.138,0,0,1,7.068.058c3.166.406,4.962,4.155,3.631,7.076C-313.957,10.429-314.129,10.725-314.333,11.116Zm-7.11,7.286c1.467,0,2.839.08,4.2-.023a2.408,2.408,0,0,0,2.16-2.464,2.41,2.41,0,0,0-1.967-2.625c-1.441-.14-2.906-.033-4.39-.033Zm-.01-8.278c1.206-.059,2.4-.03,3.563-.2a1.78,1.78,0,0,0,1.4-2,1.735,1.735,0,0,0-1.492-1.831,27.718,27.718,0,0,0-3.467-.034Z" transform="translate(365.992 8.902)" fill="#192842" stroke="#192842" stroke-width="0.2"/>
    <path id="Path_3771" data-name="Path 3771" d="M-380.838,3.1h3.022c.026.246.065.443.065.641,0,3.775.042,7.55-.011,11.324a6.847,6.847,0,0,1-6.211,6.573c-3.739.427-7.172-1.688-8.022-4.951a3.7,3.7,0,0,1-.151-.909c-.01-4.185-.007-8.37-.007-12.645h3.054v1.1c0,3.5.1,7-.034,10.5-.1,2.439,2.3,3.907,4.042,3.9,1.863,0,4.343-1.37,4.278-3.919C-380.909,10.886-380.838,7.045-380.838,3.1Z" transform="translate(415.011 8.751)" fill="#192842" stroke="#192842" stroke-width="0.2"/>
    <path id="Path_3772" data-name="Path 3772" d="M-439.283,5.134l-1.86,2.242a14.991,14.991,0,0,0-2.942-.992,4.789,4.789,0,0,0-2.547.437A1.985,1.985,0,0,0-447.46,8.4a1.966,1.966,0,0,0,1.041,1.3c1.251.627,2.586,1.085,3.885,1.616.38.156.764.309,1.126.5a5.346,5.346,0,0,1,3.178,5.1,5.54,5.54,0,0,1-4.351,4.782,8.715,8.715,0,0,1-8.565-2.5l2.26-2.057a5.88,5.88,0,0,0,5.232,1.651,3.457,3.457,0,0,0,1.466-.676,1.842,1.842,0,0,0-.088-3.188,8.352,8.352,0,0,0-1.637-.844c-1.229-.522-2.481-.989-3.71-1.51a4.316,4.316,0,0,1-2.994-4.332,4.755,4.755,0,0,1,3.156-4.523C-444.534,2.547-441.9,3.365-439.283,5.134Z" transform="translate(457.765 8.702)" fill="#192842" stroke="#192842" stroke-width="0.2"/>
    <path id="Path_3773" data-name="Path 3773" d="M-159.558,22.14h-3.1V6.906h-4.961V3.822h12.961V6.84h-4.9Z" transform="translate(252.289 8.23)" fill="#192842" stroke="#192842" stroke-width="0.2"/>
    <path id="Path_3774" data-name="Path 3774" d="M-189.947,3.381h2.957v18.4h-2.957Z" transform="translate(268.468 8.549)" fill="#192842" stroke="#192842" stroke-width="0.2"/>
  </g>
</svg>
