<svg xmlns="http://www.w3.org/2000/svg" width="32.75" height="32.75" viewBox="0 0 32.75 32.75"><g transform="translate(-3.375 -3.375)"><path d="M26.021,17.636H20.156V11.771a1.26,1.26,0,0,0-2.519,0v5.865H11.771a1.206,1.206,0,0,0-1.26,1.26,1.219,1.219,0,0,0,1.26,1.26h5.865v5.865a1.22,1.22,0,0,0,1.26,1.26,1.253,1.253,0,0,0,1.26-1.26V20.156h5.865a1.26,1.26,0,0,0,0-2.519Z" transform="translate(0.854 0.854)"/><path d="M19.75,5.579A14.165,14.165,0,1,1,9.728,9.728,14.077,14.077,0,0,1,19.75,5.579m0-2.2A16.375,16.375,0,1,0,36.125,19.75,16.373,16.373,0,0,0,19.75,3.375Z"/></g></svg>