<svg xmlns="http://www.w3.org/2000/svg" width="25.952" height="25.295" viewBox="0 0 25.952 25.295"><defs><style>.a{fill:#2a2960;}</style></defs><path class="a" d="M11.034,4.341,12.32,3.056a1.384,1.384,0,0,1,1.964,0L25.544,14.31a1.384,1.384,0,0,1,0,1.964l-11.26,11.26a1.384,1.384,0,0,1-1.964,0l-1.286-1.286a1.392,1.392,0,0,1,.023-1.987l6.98-6.649H1.39A1.387,1.387,0,0,1,0,16.221V14.368a1.387,1.387,0,0,1,1.39-1.39H18.037l-6.98-6.649A1.382,1.382,0,0,1,11.034,4.341Z" transform="translate(0 -2.647)"/></svg>