<svg xmlns="http://www.w3.org/2000/svg" width="21.99" height="25.131" viewBox="0 0 21.99 25.131">
  <path id="Icon_metro-attachment" data-name="Icon metro-attachment" d="M19.09,9.955,17.5,8.361l-7.972,7.97a3.382,3.382,0,0,0,4.783,4.782l9.566-9.564A5.636,5.636,0,1,0,15.9,3.579L5.859,13.621l-.021.021A7.86,7.86,0,0,0,16.955,24.758l.02-.021h0l6.855-6.854-1.595-1.593-6.855,6.854-.021.021a5.606,5.606,0,0,1-7.929-7.927l.022-.021h0L17.5,5.173A3.382,3.382,0,1,1,22.28,9.955l-9.566,9.564a1.127,1.127,0,0,1-1.595-1.593l7.972-7.971Z" transform="translate(-3.535 -1.928)" fill="#7d7d7d"/>
</svg>
