<svg xmlns="http://www.w3.org/2000/svg" width="30.667" height="25.455" viewBox="0 0 30.667 25.455">
  <g id="Icon_feather-camera" data-name="Icon feather-camera" transform="translate(-0.5 -3.5)">
    <path id="Path_3720" data-name="Path 3720" d="M30.167,25.348a2.606,2.606,0,0,1-2.606,2.606H4.106A2.606,2.606,0,0,1,1.5,25.348V11.015A2.606,2.606,0,0,1,4.106,8.409H9.318L11.924,4.5h7.818l2.606,3.909h5.212a2.606,2.606,0,0,1,2.606,2.606Z" transform="translate(0 0)" fill="none" stroke="#7d7d7d" stroke-linecap="round" stroke-linejoin="round" stroke-width="2"/>
    <path id="Path_3721" data-name="Path 3721" d="M23.467,19.233A5.733,5.733,0,1,1,17.733,13.5,5.733,5.733,0,0,1,23.467,19.233Z" transform="translate(-1.9 -1.807)" fill="none" stroke="#7d7d7d" stroke-linecap="round" stroke-linejoin="round" stroke-width="2"/>
  </g>
</svg>
