<svg xmlns="http://www.w3.org/2000/svg" width="87.152" height="87.152" viewBox="0 0 87.152 87.152"><defs><style>.a{fill:#192842;}</style></defs><path class="a" d="M46.951,3.375A43.576,43.576,0,1,0,90.527,46.951,43.57,43.57,0,0,0,46.951,3.375ZM69.263,34.9,41.253,63.041h-.021a3.783,3.783,0,0,1-2.43,1.152A3.668,3.668,0,0,1,36.35,63L24.618,51.267a.835.835,0,0,1,0-1.194l3.729-3.729a.81.81,0,0,1,1.173,0l9.3,9.3L64.382,29.9a.827.827,0,0,1,.587-.251h0a.761.761,0,0,1,.587.251l3.666,3.792A.826.826,0,0,1,69.263,34.9Z" transform="translate(-3.375 -3.375)"/></svg>