<svg xmlns="http://www.w3.org/2000/svg" width="99.172" height="99.164" viewBox="0 0 99.172 99.164">
  <g id="Group_656" data-name="Group 656" transform="translate(-2140.8 179.875)">
    <path id="Path_4647" data-name="Path 4647" d="M2140.8-108.278c.248-1.817.451-3.642.753-5.45a47.673,47.673,0,0,1,8.155-19.766,1.419,1.419,0,0,0,.125-1.773,7.224,7.224,0,0,1,1.9-9.074,7.35,7.35,0,0,1,9.291.039,7.365,7.365,0,0,1,1.777,9.2,7.373,7.373,0,0,1-8.616,3.507c-.276-.084-.545-.19-.869-.3a43.313,43.313,0,0,0-5.368,9.705,45.653,45.653,0,0,0,22.7,58.207c11.752,5.629,23.85,6,36.088,1.509.242-.089.479-.192.723-.275a1.96,1.96,0,0,1,2.633,1.086,1.918,1.918,0,0,1-1.3,2.538,68.5,68.5,0,0,1-6.915,2.151c-2.57.579-5.213.831-7.824,1.229-.252.039-.5.106-.749.16h-6.006c-.216-.053-.429-.123-.648-.155-2.263-.33-4.548-.549-6.787-1-19.227-3.849-35.149-20.376-38.283-39.7-.3-1.872-.519-3.759-.775-5.64Zm15.506-26.883a3.43,3.43,0,0,0,3.5-3.38,3.476,3.476,0,0,0-3.43-3.576,3.541,3.541,0,0,0-3.532,3.5A3.484,3.484,0,0,0,2156.306-135.161Z" transform="translate(0 -25.126)" fill="#192842"/>
    <path id="Path_4648" data-name="Path 4648" d="M2269.127-56.992q-7.263,0-14.525,0c-4.612,0-7.546-2.95-7.548-7.577,0-8.1.025-16.2-.014-24.305a7.279,7.279,0,0,1,3.811-6.893,1.341,1.341,0,0,0,.449-1,32.449,32.449,0,0,1,.578-7.6,17.927,17.927,0,0,1,18.043-13.377,17.816,17.816,0,0,1,16.784,15.011,48.146,48.146,0,0,1,.235,5.988,1.12,1.12,0,0,0,.651,1.118,6.722,6.722,0,0,1,3.618,6.1q.048,12.733,0,25.467A6.982,6.982,0,0,1,2284.04-57C2279.069-56.971,2274.1-56.993,2269.127-56.992Zm.045-35.645q-7.309,0-14.618,0c-2.446,0-3.625,1.181-3.626,3.612q0,12.246,0,24.491c0,2.457,1.218,3.664,3.7,3.664q14.521,0,29.041,0c2.479,0,3.677-1.2,3.678-3.688q0-12.2,0-24.394c0-2.5-1.167-3.683-3.655-3.686Q2276.432-92.643,2269.173-92.637Zm-9.9-3.921c0-1.365-.079-2.628.014-3.877a9.49,9.49,0,0,1,5.982-8.557,9.366,9.366,0,0,1,10.3,1.6,9.523,9.523,0,0,1,3.434,7.393c.025,1.144,0,2.289,0,3.419h4.062c0-1.283.021-2.5,0-3.723a13.986,13.986,0,0,0-13.671-13.586c-7.854-.108-15.593,6.338-14.078,17.327Zm3.794-.029h12.065c0-1.234.031-2.393-.006-3.551a6.022,6.022,0,0,0-5.561-5.8,5.886,5.886,0,0,0-6.252,4.76A36.372,36.372,0,0,0,2263.069-96.587Z" transform="translate(-78.745 -46.033)" fill="#192842"/>
    <path id="Path_4649" data-name="Path 4649" d="M2445.914-43.282a44.373,44.373,0,0,0,7.845-18.323,45.339,45.339,0,0,0-6.827-33.656,2.006,2.006,0,0,1-.18-2.345,1.65,1.65,0,0,1,1.894-.847,2.776,2.776,0,0,1,1.44.993,47.48,47.48,0,0,1,7.742,19.928,48.86,48.86,0,0,1-8.542,36.168.952.952,0,0,0-.028,1.191,7.017,7.017,0,0,1-.518,8A6.9,6.9,0,0,1,2441.3-29.4a7.019,7.019,0,0,1-5.633-5.723,7.359,7.359,0,0,1,9.362-8.476C2445.305-43.51,2445.574-43.4,2445.914-43.282Zm-6.508,6.66a3.474,3.474,0,0,0,3.448,3.556,3.546,3.546,0,0,0,3.511-3.427,3.478,3.478,0,0,0-3.478-3.527A3.423,3.423,0,0,0,2439.407-36.622Z" transform="translate(-218.43 -60.301)" fill="#192842"/>
    <path id="Path_4650" data-name="Path 4650" d="M2278.346-179.85a48.143,48.143,0,0,1,25.495,8.738,2.029,2.029,0,0,1,.813,2.9,2,2,0,0,1-2.975.319,45.231,45.231,0,0,0-20.494-7.78,45.619,45.619,0,0,0-21.776,2.632c-.332.124-.661.258-1,.361a1.923,1.923,0,0,1-2.452-1.128,1.875,1.875,0,0,1,1.2-2.5c2.564-.856,5.127-1.747,7.748-2.39A49.623,49.623,0,0,1,2278.346-179.85Z" transform="translate(-85.258)" fill="#192842"/>
    <path id="Path_4651" data-name="Path 4651" d="M2456.606-122.679a1.889,1.889,0,0,1,1.9-1.911,1.955,1.955,0,0,1,1.955,1.88,1.989,1.989,0,0,1-1.972,1.977A1.925,1.925,0,0,1,2456.606-122.679Z" transform="translate(-234.074 -40.977)" fill="#192842"/>
    <path id="Path_4652" data-name="Path 4652" d="M2311.813-4.886a6.925,6.925,0,0,1,5.792,3.8,7.273,7.273,0,0,1-.168,7.557,3.627,3.627,0,0,0-.455,1.6c-.06,1.612,0,3.228-.027,4.841a5.806,5.806,0,0,1-11.612.027c-.017-.9-.007-1.808,0-2.712a10.371,10.371,0,0,0-.919-4.8C2302.1.612,2305.825-4.9,2311.813-4.886Zm-2.6,14.506c0,.935,0,1.871,0,2.806.006,1.481.736,2.4,1.914,2.417s1.953-.908,1.958-2.373c.006-1.645.042-3.291-.013-4.934a4.226,4.226,0,0,1,.949-3.025,3.407,3.407,0,0,0-.514-4.634,3.527,3.527,0,0,0-4.683-.027,3.377,3.377,0,0,0-.57,4.622,4.281,4.281,0,0,1,.966,3.213C2309.178,8.327,2309.212,8.975,2309.212,9.62Z" transform="translate(-120.757 -129.701)" fill="#192842"/>
  </g>
</svg>
