<svg xmlns="http://www.w3.org/2000/svg" width="95.333" height="85.642" viewBox="0 0 95.333 85.642">
  <g id="Group_654" data-name="Group 654" transform="translate(-1668.565 78.403)">
    <path id="Path_4637" data-name="Path 4637" d="M1763.9-48.446c-.377,1.784-.644,3.6-1.155,5.344a26.363,26.363,0,0,1-5.591,9.879,3.031,3.031,0,0,0-.677,1.463,11.1,11.1,0,0,0,2.939,9.516c.853.937.984,1.773.42,2.588a2,2,0,0,1-1.863.819,20.7,20.7,0,0,1-13.322-5.2,1.351,1.351,0,0,0-1-.377,46.008,46.008,0,0,1-10.144,1.79,1.578,1.578,0,0,0-.34.063,65.31,65.31,0,0,1-1.8,6.823c-3.118,8.208-9.138,13.57-17.142,16.805-7.165,2.9-14.555,3.037-22.032,1.447-1.24-.264-2.526-1.054-3.66-.855-1.081.19-1.961,1.4-2.98,2.082a20.412,20.412,0,0,1-11.013,3.5,1.975,1.975,0,0,1-2.076-1.089,1.912,1.912,0,0,1,.525-2.277,11,11,0,0,0,3-9.4,3.53,3.53,0,0,0-.771-1.71,25.621,25.621,0,0,1-6.636-17.788c.188-7.261,3.315-13.211,8.584-18.051a35.086,35.086,0,0,1,21.121-9.122c1.175-.108,1.171-.095,1.407-1.664a26.213,26.213,0,0,1,9.044-16.323,33.1,33.1,0,0,1,25.241-8.086,34.45,34.45,0,0,1,22.509,10.283,24.569,24.569,0,0,1,7.271,15.024,1.968,1.968,0,0,0,.148.426ZM1678.5,2.9a2.341,2.341,0,0,0,.254-.058,16.444,16.444,0,0,0,7.541-4.576,2.036,2.036,0,0,1,2.346-.646,35.39,35.39,0,0,0,10.263,2.072c8.588.526,16.3-1.714,22.748-7.554,9.93-8.991,10.184-23.242.592-32.587a28.465,28.465,0,0,0-18.359-8.046c-9.477-.682-17.867,2.024-24.756,8.691a20.833,20.833,0,0,0-6.835,16.035,22.057,22.057,0,0,0,6.064,14.437,3.262,3.262,0,0,1,.933,1.451,22.717,22.717,0,0,1,.433,5.152A41.3,41.3,0,0,1,1678.5,2.9Zm44.367-47.807c5.857,5,9.328,11.023,10.055,18.557a33.373,33.373,0,0,0,10.082-1.85,2.952,2.952,0,0,1,3.622.838,15.506,15.506,0,0,0,7.607,4.271c-.179-.429-.3-.733-.432-1.034a14.41,14.41,0,0,1-1.21-6.158,8.8,8.8,0,0,1,2.11-5.938c7.584-8.751,7.244-20.473-.659-28.934-8.525-9.127-23.138-12.152-34.932-7.178-6.711,2.829-11.778,7.383-14.514,14.268a16.958,16.958,0,0,0-1.276,5.716c.372.054.672.117.975.14a34.732,34.732,0,0,1,12.065,3.19,4.15,4.15,0,0,0,1.683.371q14.151.033,28.3.017a6.824,6.824,0,0,1,1.022.026,1.793,1.793,0,0,1,1.563,1.4,1.6,1.6,0,0,1-.69,1.876,3.186,3.186,0,0,1-1.572.4c-7.044.025-14.089.017-21.134.017Z" fill="#192842"/>
    <path id="Path_4638" data-name="Path 4638" d="M1745.731,161.015h14.788a7.153,7.153,0,0,1,.837.017,1.853,1.853,0,0,1-.03,3.692,7.733,7.733,0,0,1-.836.015q-14.788,0-29.577,0a6.008,6.008,0,0,1-.928-.03,1.851,1.851,0,0,1,.03-3.667,6.7,6.7,0,0,1,.928-.025Q1738.336,161.014,1745.731,161.015Z" transform="translate(-44.95 -179.85)" fill="#192842"/>
    <path id="Path_4639" data-name="Path 4639" d="M1771.93,116.093c3.781,0,7.563-.023,11.343.025a2.465,2.465,0,0,1,1.66.58,2.5,2.5,0,0,1,.478,1.752,1.6,1.6,0,0,1-1.48,1.337,5.479,5.479,0,0,1-.927.03h-22.129c-.217,0-.435.008-.651,0a1.872,1.872,0,0,1-1.876-1.9,1.836,1.836,0,0,1,1.868-1.807c1.859-.033,3.719-.011,5.579-.012Z" transform="translate(-67.444 -146.102)" fill="#192842"/>
    <path id="Path_4640" data-name="Path 4640" d="M1730.287,116.138a1.856,1.856,0,1,1-1.885,1.778A1.877,1.877,0,0,1,1730.287,116.138Z" transform="translate(-44.949 -146.14)" fill="#192842"/>
    <path id="Path_4641" data-name="Path 4641" d="M1896.195.061H1885.13a7.426,7.426,0,0,1-.836-.016,1.867,1.867,0,0,1-1.69-1.89,1.867,1.867,0,0,1,1.683-1.8,7.377,7.377,0,0,1,.836-.016h22.129c.217,0,.435-.008.651,0a1.875,1.875,0,0,1,1.876,1.9,1.849,1.849,0,0,1-1.869,1.808c-1.332.035-2.666.011-4,.011Z" transform="translate(-160.787 -56.142)" fill="#192842"/>
    <path id="Path_4642" data-name="Path 4642" d="M1854.5.084a1.877,1.877,0,0,1-1.842-1.915,1.875,1.875,0,0,1,1.867-1.8,1.876,1.876,0,0,1,1.843,1.821A1.876,1.876,0,0,1,1854.5.084Z" transform="translate(-138.293 -56.172)" fill="#192842"/>
  </g>
</svg>
