<svg xmlns="http://www.w3.org/2000/svg" width="66.66" height="98.832" viewBox="0 0 66.66 98.832">
  <path id="Path_4632" data-name="Path 4632" d="M1249.493,436.377c.806.185,1.615.357,2.417.558a17.862,17.862,0,0,1,13.6,17.005c.041,1.672-.011,3.346.035,5.017a2.468,2.468,0,0,0,.38,1.236,6.133,6.133,0,0,1-4.031,9.545.869.869,0,0,0-.828.844,13.541,13.541,0,0,1-4.4,7.729,2.065,2.065,0,0,0-.571,1.29c-.067,1.054-.362,2.369.136,3.1s1.837.9,2.82,1.281q6.643,2.583,13.294,5.148a12.782,12.782,0,0,1,8.713,12.5c.046,2.991.013,5.983,0,8.974,0,.35.041.812-.153,1.025-.358.393-.9.91-1.321.874a2.274,2.274,0,0,1-1.307-1.019c-.205-.289-.1-.809-.106-1.226-.029-3.248.065-6.5-.105-9.742a9.244,9.244,0,0,0-5.862-8.288c-3.245-1.46-6.629-2.613-9.954-3.9a1.741,1.741,0,0,0-.363-.04c-.9,1.785-1.8,3.587-2.7,5.391-.474.948-.943,1.9-1.415,2.847-1.206,2.418-2.369,2.777-4.713,1.412a3.2,3.2,0,0,0-1.034,2.954c1.428,8.034,2.758,16.085,4.128,24.129a2.866,2.866,0,0,1-.832,2.549c-1.388,1.509-2.759,3.035-4.237,4.665h15.592v-1.147q0-13.22,0-26.44a4.775,4.775,0,0,1,.1-1.241,1.3,1.3,0,0,1,1.442-1.02,1.339,1.339,0,0,1,1.308,1.2,5.739,5.739,0,0,1,.037,1.058q0,13.172,0,26.343v1.251c.3.023.576.061.849.062q3.136.008,6.272,0c1.307,0,1.476-.17,1.477-1.518q.005-5.838,0-11.676c0-.257,0-.515,0-.772.027-1.222.545-1.881,1.461-1.863.887.017,1.422.653,1.426,1.816.015,4.31.037,8.621-.007,12.93-.026,2.533-1.552,3.975-4.087,3.976q-18.865.008-37.73,0c-.161,0-.322.007-.482-.007a1.435,1.435,0,0,1-1.475-1.456,1.408,1.408,0,0,1,1.507-1.418c1.511-.035,3.023-.012,4.535-.013h1.146c-1.475-1.629-2.781-3.117-4.141-4.554a3.381,3.381,0,0,1-.923-3.164c1.379-7.912,2.673-15.839,4.071-23.747a3.321,3.321,0,0,0-1.031-2.925c-.193.116-.357.211-.519.311a2.5,2.5,0,0,1-3.867-1.064c-1.351-2.628-2.651-5.281-3.975-7.923-.156-.312-.322-.62-.524-1.008-.442.161-.857.306-1.266.464q-4.044,1.562-8.085,3.129c-4.431,1.719-6.844,5.076-6.865,9.81-.042,9.778-.016,19.556-.01,29.335,0,1.134.219,1.334,1.367,1.336,2.373,0,4.746,0,7.23,0V531.1q0-13.172,0-26.343c0-.322-.015-.645.012-.964a1.408,1.408,0,0,1,1.418-1.407,1.381,1.381,0,0,1,1.43,1.293,5.526,5.526,0,0,1,.033.962q0,13.22,0,26.44v1.228c.983,0,1.875-.011,2.767,0,1.13.017,1.77.566,1.75,1.476-.019.872-.64,1.408-1.718,1.411-4.471.01-8.942.024-13.413-.006a3.625,3.625,0,0,1-3.727-3.428,9.6,9.6,0,0,1-.049-1.059c0-9.585.022-19.17-.012-28.756a12.847,12.847,0,0,1,6.033-11.486,12.58,12.58,0,0,1,2.315-1.17q7.891-3.1,15.807-6.127a1.206,1.206,0,0,0,.872-1.238,4.805,4.805,0,0,0-1.809-4.577,11.287,11.287,0,0,1-3.538-6.8c-.1-.54-.3-.713-.837-.811a6.067,6.067,0,0,1-3.968-9.46,2.56,2.56,0,0,0,.327-1.253,74.007,74.007,0,0,1,.354-7.694,17.726,17.726,0,0,1,14.934-14.745,5.606,5.606,0,0,0,.712-.207Zm5.345,17.3a31.841,31.841,0,0,1-8.689,3.854,30.247,30.247,0,0,1-9.395,1.036c0,3-.013,5.89.008,8.776a17.439,17.439,0,0,0,.175,2.494,10.714,10.714,0,0,0,11.454,8.859,10.531,10.531,0,0,0,9.988-10.017c.111-3.533.044-7.072.037-10.608a1.268,1.268,0,0,0-.256-.784C1257.094,456.086,1255.993,454.919,1254.838,453.673Zm7.716,4.053c.658-7.111-1.35-12.944-7.785-16.6a14.759,14.759,0,0,0-16.559,1.469c-4.879,3.925-6.128,9.227-5.567,15.343.518-.2,1.2-.257,1.332-.557.747-1.652,2.107-1.767,3.63-1.709a25.427,25.427,0,0,0,10.908-2.02c1.622-.681,3.162-1.561,4.715-2.4,1.065-.573,2.2-.923,3.131-.016,1.633,1.585,3.127,3.314,4.671,4.99a.681.681,0,0,1,.2.428C1261.172,457.624,1261.8,457.733,1262.554,457.726Zm-14.8,73.866c1.632-1.8,3.123-3.528,4.721-5.154a2.249,2.249,0,0,0,.633-2.223c-.972-5.567-1.9-11.141-2.849-16.712-.381-2.242-.768-4.482-1.162-6.777a12.71,12.71,0,0,1-1.71-.014c-.867-.123-1.088.3-1.184,1.059-.17,1.337-.432,2.662-.657,3.992q-1.6,9.5-3.2,19a1.352,1.352,0,0,0,.113.972C1244.174,527.683,1245.934,529.594,1247.751,531.592Zm0-41.564c1.5-1.852,2.79-3.671,4.319-5.261,1.215-1.262,1.19-2.628,1.047-4.227a14.843,14.843,0,0,1-10.882.058c.1,1.085-.128,2.246.341,2.917C1244.132,485.744,1245.943,487.795,1247.749,490.029Zm11.464-2.875c-1.325-.51-2.513-.984-3.718-1.414a.715.715,0,0,0-.636.148c-1.674,2.026-3.323,4.074-5.015,6.163l5.112,3.626Zm-13.564,4.9c-1.688-2.084-3.295-4.083-4.928-6.06a.812.812,0,0,0-.685-.26c-1.233.431-2.444.923-3.747,1.428l4.256,8.52Zm15.729-31.519V466.8a3.072,3.072,0,0,0,2.758-2.974A3.226,3.226,0,0,0,1261.378,460.531Zm-16.425,35.578c.645,2.408,2.5,1.6,3.982,1.713,1.128.084,1.109-1.039,1.724-1.628-.9-.644-1.714-1.259-2.567-1.812a.837.837,0,0,0-.741.042C1246.522,494.963,1245.73,495.557,1244.954,496.11Zm-11.137-35.427a3.128,3.128,0,0,0-2.729,3.129,3.061,3.061,0,0,0,2.729,3.008Z" transform="translate(-1214.428 -436.377)" fill="#192842"/>
</svg>
