<svg xmlns="http://www.w3.org/2000/svg" width="98" height="97.995" viewBox="0 0 98 97.995">
  <g id="Group_646" data-name="Group 646" transform="translate(-1160.168 -25.64)">
    <path id="Path_4615" data-name="Path 4615" d="M1274.655,25.64a62.43,62.43,0,0,1,6.155,1.272,27.1,27.1,0,1,1-11.58-1.036c.533-.073,1.065-.157,1.6-.236Zm-1.974,50.541a23.35,23.35,0,1,0-23.292-23.427A23.374,23.374,0,0,0,1272.68,76.181Z" transform="translate(-63.569)" fill="#192842"/>
    <path id="Path_4616" data-name="Path 4616" d="M1500.979,25.64a2.536,2.536,0,0,1,1.35,2.695c-.06.631.014,1.275-.022,1.91a1.9,1.9,0,0,1-3.8,0c-.039-.89,0-1.784-.01-2.676-.007-.96.66-1.447,1.337-1.929Z" transform="translate(-251.801)" fill="#192842"/>
    <path id="Path_4617" data-name="Path 4617" d="M1160.168,211.065a2.482,2.482,0,0,1,2.6-1.343c.631.058,1.272-.012,1.906.02a1.908,1.908,0,1,1-.023,3.813c-.635.02-1.276-.047-1.906.017a2.386,2.386,0,0,1-2.582-1.358Z" transform="translate(0 -136.996)" fill="#192842"/>
    <path id="Path_4618" data-name="Path 4618" d="M1242.4,246.332a5.679,5.679,0,0,1,.595-.866c4.165-4.18,8.319-8.371,12.519-12.515a6.914,6.914,0,0,1,11.647,2.9,6.509,6.509,0,0,1-1.661,6.721q-8.738,8.853-17.6,17.579a15.129,15.129,0,0,1-10.756,4.281c-5.135.058-10.271.016-15.406.017-.1,0-.192,0-.287-.006a1.971,1.971,0,0,1-1.99-1.919,1.906,1.906,0,0,1,2.077-1.9c4.242-.017,8.484,0,12.727-.012,1.306,0,2.617,0,3.918-.1a11.617,11.617,0,0,0,7.465-3.481q8.48-8.435,16.915-16.916a3.121,3.121,0,1,0-4.422-4.384c-5.133,5.107-10.276,10.2-15.347,15.371a8.4,8.4,0,0,1-6.481,2.683c-4.72-.074-9.441-.021-14.162-.021-.287,0-.576.013-.86-.014a1.937,1.937,0,0,1-1.845-1.948,1.892,1.892,0,0,1,1.919-1.858c.892-.029,1.786-.008,2.679-.008,3.732,0,7.464.006,11.2,0a2.78,2.78,0,0,0,.716-5.514q-8.987-2.256-17.983-4.478a11.421,11.421,0,0,0-8.008.865c-3.652,1.811-7.26,3.711-10.886,5.576a2.82,2.82,0,0,0-.336.248q3.12,5.41,6.217,10.778,2.2,3.808,4.4,7.615c1.178,2.047.758,3.634-1.285,4.818q-5.086,2.947-10.182,5.877c-2,1.152-3.577.724-4.74-1.287q-6.7-11.586-13.382-23.179c-1.2-2.075-.786-3.631,1.26-4.816q5.045-2.923,10.1-5.836c2.1-1.21,3.672-.788,4.887,1.3l.765,1.313c.295-.133.577-.247.847-.386q5.015-2.576,10.026-5.16a16.016,16.016,0,0,1,11.682-1.351c5.74,1.456,11.484,2.9,17.239,4.3a6.812,6.812,0,0,1,5.535,5.514Zm-36.517,20.344-13.068-22.626-9.6,5.547,13.072,22.635,3.2-1.86c-.19-.338-.341-.615-.5-.889q-2.075-3.6-4.152-7.206a1.914,1.914,0,0,1,.045-2.241,1.622,1.622,0,0,1,1.936-.678,3.045,3.045,0,0,1,1.392,1.175c1.41,2.311,2.735,4.675,4.093,7.018.167.289.355.566.554.882Z" transform="translate(-14.086 -152.719)" fill="#192842"/>
    <path id="Path_4619" data-name="Path 4619" d="M1502.267,78.5c0,.477.034.956-.007,1.43a1.885,1.885,0,0,1-1.892,1.773,1.863,1.863,0,0,1-1.9-1.762,24.56,24.56,0,0,1,0-2.954,1.9,1.9,0,0,1,1.931-1.741,1.917,1.917,0,0,1,1.849,1.731c.05.5.009,1.016.009,1.524Z" transform="translate(-251.759 -36.92)" fill="#192842"/>
    <path id="Path_4620" data-name="Path 4620" d="M1193.864,232.663a14.824,14.824,0,0,1-.008,1.524,1.88,1.88,0,0,1-1.942,1.717,1.852,1.852,0,0,1-1.836-1.724,23.281,23.281,0,0,1,.006-3.048,1.885,1.885,0,0,1,1.885-1.685,1.915,1.915,0,0,1,1.884,1.692A14.1,14.1,0,0,1,1193.864,232.663Z" transform="translate(-22.227 -151.689)" fill="#192842"/>
    <path id="Path_4621" data-name="Path 4621" d="M1471.821,59.379c-.477,0-.955.027-1.43-.005a1.892,1.892,0,0,1-1.8-1.771,1.86,1.86,0,0,1,1.653-2,19.252,19.252,0,0,1,3.141,0,1.879,1.879,0,0,1,1.67,1.9,1.919,1.919,0,0,1-1.807,1.87C1472.777,59.407,1472.3,59.379,1471.821,59.379Z" transform="translate(-229.551 -22.254)" fill="#192842"/>
    <path id="Path_4622" data-name="Path 4622" d="M1521.3,59.375c-.445,0-.891.022-1.334,0a1.927,1.927,0,0,1-1.863-1.816,1.893,1.893,0,0,1,1.705-1.964,20.132,20.132,0,0,1,3.047,0,1.872,1.872,0,0,1,1.713,1.95,1.892,1.892,0,0,1-1.838,1.831C1522.254,59.4,1521.776,59.374,1521.3,59.375Z" transform="translate(-266.4 -22.248)" fill="#192842"/>
    <path id="Path_4623" data-name="Path 4623" d="M1190.11,183.132c0-.477-.032-.956.007-1.429a1.918,1.918,0,0,1,1.887-1.791,1.888,1.888,0,0,1,1.9,1.77,24.138,24.138,0,0,1,0,2.954,1.886,1.886,0,0,1-1.925,1.745,1.934,1.934,0,0,1-1.862-1.819C1190.079,184.088,1190.109,183.609,1190.11,183.132Z" transform="translate(-22.276 -114.821)" fill="#192842"/>
    <path id="Path_4624" data-name="Path 4624" d="M1212.909,213.574c-.445,0-.891.022-1.335,0a1.926,1.926,0,0,1-1.87-1.809,1.891,1.891,0,0,1,1.7-1.97,20.136,20.136,0,0,1,3.047,0,1.9,1.9,0,0,1-.11,3.782C1213.864,213.6,1213.386,213.573,1212.909,213.574Z" transform="translate(-36.867 -137.014)" fill="#192842"/>
    <path id="Path_4625" data-name="Path 4625" d="M1308.882,347.379a1.862,1.862,0,0,1,1.913,1.845,1.919,1.919,0,0,1-1.929,1.951,1.962,1.962,0,0,1-1.883-1.919A1.9,1.9,0,0,1,1308.882,347.379Z" transform="translate(-109.271 -239.462)" fill="#192842"/>
    <path id="Path_4626" data-name="Path 4626" d="M1322.182,85.462c.848-.923,1.45-1.624,2.1-2.277q4.622-4.648,9.266-9.274a8.639,8.639,0,0,1,.692-.66,1.872,1.872,0,0,1,2.527.062,1.9,1.9,0,0,1,.16,2.6,6.618,6.618,0,0,1-.588.628q-6.122,6.125-12.247,12.248c-1.442,1.441-2.273,1.442-3.708.008q-3.622-3.618-7.241-7.24c-.158-.158-.321-.311-.468-.478a1.912,1.912,0,0,1-.041-2.744,1.865,1.865,0,0,1,2.737.051c2.031,1.983,4.028,4,6.028,6.016A10.634,10.634,0,0,1,1322.182,85.462Z" transform="translate(-113.059 -35.093)" fill="#192842"/>
    <path id="Path_4627" data-name="Path 4627" d="M1348.13,53.854c0,.287.014.575,0,.861a1.9,1.9,0,0,1-3.8.084,11.263,11.263,0,0,1,0-1.816,1.932,1.932,0,0,1,1.959-1.833,1.913,1.913,0,0,1,1.846,1.939C1348.142,53.343,1348.131,53.6,1348.13,53.854Z" transform="translate(-137.037 -18.985)" fill="#192842"/>
    <path id="Path_4628" data-name="Path 4628" d="M1273.719,124.442c1.787,0,2.647.6,2.672,1.864.026,1.311-.864,1.961-2.683,1.961-.287,0-.575.012-.861-.01a1.907,1.907,0,0,1,.011-3.813C1273.144,124.427,1273.432,124.442,1273.719,124.442Z" transform="translate(-82.47 -73.531)" fill="#192842"/>
    <path id="Path_4629" data-name="Path 4629" d="M1344.269,194.365c0-.319-.021-.64,0-.956a1.848,1.848,0,0,1,1.795-1.766,1.815,1.815,0,0,1,1.966,1.574,9.078,9.078,0,0,1,.009,2.193,1.861,1.861,0,0,1-2.018,1.636,1.88,1.88,0,0,1-1.753-1.819C1344.251,194.941,1344.269,194.652,1344.269,194.365Z" transform="translate(-137.016 -123.551)" fill="#192842"/>
    <path id="Path_4630" data-name="Path 4630" d="M1414.156,128.358c-.319,0-.639.02-.956,0a1.84,1.84,0,0,1-1.761-1.7,1.789,1.789,0,0,1,1.479-2.03,8.44,8.44,0,0,1,2.376-.01,1.837,1.837,0,0,1,1.55,1.991,1.881,1.881,0,0,1-1.827,1.747C1414.731,128.375,1414.443,128.358,1414.156,128.358Z" transform="translate(-187.008 -73.607)" fill="#192842"/>
    <path id="Path_4631" data-name="Path 4631" d="M1226.313,316.083a1.907,1.907,0,1,1,0,3.814,1.908,1.908,0,0,1,0-3.814Z" transform="translate(-47.843 -216.169)" fill="#192842"/>
  </g>
</svg>
