<svg xmlns="http://www.w3.org/2000/svg" width="82.588" height="82.587" viewBox="0 0 82.588 82.587">
  <g id="Group_655" data-name="Group 655" transform="translate(-1996.837 -220.961)">
    <path id="Path_4643" data-name="Path 4643" d="M2000.225,220.961h67.424c2.784,1.071,3.528,2.172,3.528,5.223q0,14.836.021,29.672a3.145,3.145,0,0,0,.482,1.622,13.734,13.734,0,0,1-2.521,17.906l-.761.656c.2.053.271.078.345.091a12.391,12.391,0,0,1,10.68,12.741q0,4.314,0,8.628c0,3.8-2.254,6.047-6.072,6.048h-26.366c-3.868,0-6.1-2.236-6.107-6.1,0-1.605,0-3.21,0-4.9h-1.188c-7.794,0-15.589.011-23.383-.007a4.131,4.131,0,1,1-.055-8.256c.887-.019,1.774.009,2.66-.014.221-.006.548-.055.641-.2.8-1.256,1.549-2.54,2.377-3.918h-1.051q-9.8,0-19.593,0a4.274,4.274,0,0,1-4.276-3.041,2.663,2.663,0,0,0-.175-.338V224.348A5.01,5.01,0,0,1,2000.225,220.961Zm47.22,49.514c-2.181-6.346-1.122-11.984,4.187-16.2s11.07-3.941,16.771-.385c.011-.2.022-.307.022-.413q0-13.95,0-27.9c0-1.356-.575-1.868-2.034-1.868h-64.753c-1.567,0-2.049.491-2.049,2.087q0,21.894,0,43.787v.853h2.7c0-7.163,3.378-11.69,10.242-13.582a12.414,12.414,0,1,1,15.424.012c6.909,1.889,10.274,6.466,10.235,13.608Zm12.647,30.325q6.691,0,13.383,0c2.146,0,3.2-1.067,3.2-3.234,0-2.983.008-5.966,0-8.949a9.634,9.634,0,0,0-9.687-9.845q-6.852-.075-13.7,0a9.636,9.636,0,0,0-9.652,9.8c-.011,2.983,0,5.966,0,8.949,0,2.218,1.046,3.275,3.242,3.276Q2053.481,300.8,2060.092,300.8Zm.02-24.8a11,11,0,1,0-10.98-11.057A11.023,11.023,0,0,0,2060.111,276Zm-39.9-19.246a9.643,9.643,0,1,0-9.615-9.691A9.713,9.713,0,0,0,2020.208,256.757Zm31.377,19.251c-.58-.644-1.294-1.374-1.928-2.168a1.468,1.468,0,0,0-1.294-.6q-23.947.022-47.895.012h-.883c0,.835,0,1.533,0,2.23.007,1.366.548,1.92,1.9,1.921q22.778,0,45.556,0a2.811,2.811,0,0,0,.858-.145C2049.191,276.829,2050.478,276.384,2051.585,276.008Zm-7.776,4.146q-9.092,0-18.244.006c-.169,0-.423.045-.493.159-.786,1.261-1.543,2.54-2.4,3.963h3.138c5.021,0,10.042.006,15.063-.016a1.12,1.12,0,0,0,.841-.359C2042.442,282.7,2043.1,281.45,2043.809,280.154Zm-2.937,6.93c-.291-.015-.552-.041-.813-.041q-11.719,0-23.437,0a5.517,5.517,0,0,0-.643.021,1.328,1.328,0,0,0-1.234,1.26,1.344,1.344,0,0,0,1.076,1.4,4.021,4.021,0,0,0,.879.066q11.638,0,23.276,0h.9Zm-32.4-25.256a9.906,9.906,0,0,0-3.353,8.621h6.648Zm20.24,8.61h6.644a9.89,9.89,0,0,0-3.35-8.61Zm-3.053-.53a39,39,0,0,0,3.752-9.813l-3.936-.712c-.283,1.137-.524,2.068-.744,3.005a4.071,4.071,0,0,0-.266,1.482C2024.793,265.812,2025.219,267.738,2025.657,269.907Zm-10.853-.028c.729-3.564,1.986-6.918-.035-10.465l-3.7.682A38.38,38.38,0,0,0,2014.8,269.88Zm3.8-4.855-1.071,5.436h5.417l-1.1-5.436Zm3.314-2.772.648-2.685H2017.9c.2.824.366,1.581.582,2.323a.593.593,0,0,0,.426.347C2019.9,262.268,2020.883,262.252,2021.922,262.252Z" fill="#192842"/>
    <path id="Path_4644" data-name="Path 4644" d="M2181.178,268.555c-.72-.047-1.364-.044-1.992-.137a4.025,4.025,0,0,1-3.495-4q-.032-6.934,0-13.868a4.1,4.1,0,0,1,4.29-4.084c4.542-.015,9.084,0,13.626,0,2.634,0,5.268-.006,7.9,0a4.163,4.163,0,0,1,4.458,4.425q.023,6.611,0,13.223a4.156,4.156,0,0,1-4.413,4.393c-2.688.017-5.376-.022-8.062.026a2.978,2.978,0,0,0-1.539.483c-2.021,1.374-4.006,2.8-5.984,4.237a2.883,2.883,0,0,1-4.795-2.508C2181.2,270.018,2181.178,269.3,2181.178,268.555Zm2.749,2.614c.382-.252.627-.406.864-.572,2.05-1.428,4.079-2.887,6.162-4.266a3.507,3.507,0,0,1,1.775-.558c2.929-.056,5.859-.018,8.789-.03,1.12,0,1.682-.475,1.687-1.5q.033-6.773,0-13.547c0-.966-.562-1.445-1.547-1.481-.4-.015-.806,0-1.209,0q-10.12,0-20.24,0c-1.218,0-1.768.48-1.771,1.579q-.015,6.693,0,13.386a1.392,1.392,0,0,0,1.538,1.566c.778.028,1.559,0,2.338.011,1.143.02,1.606.487,1.615,1.629C2183.934,268.585,2183.927,269.791,2183.927,271.168Z" transform="translate(-140.3 -19.999)" fill="#192842"/>
    <path id="Path_4645" data-name="Path 4645" d="M2210.907,300.319q-3.831,0-7.662,0a4.479,4.479,0,0,1-.883-.055,1.342,1.342,0,0,1-.139-2.591,3.6,3.6,0,0,1,1.035-.106q7.661-.009,15.323,0a4.212,4.212,0,0,1,.881.066,1.29,1.29,0,0,1,1.063,1.4,1.264,1.264,0,0,1-1.152,1.248,5.373,5.373,0,0,1-.8.037Q2214.738,300.322,2210.907,300.319Z" transform="translate(-160.398 -60.093)" fill="#192842"/>
    <path id="Path_4646" data-name="Path 4646" d="M2206.033,274.721c-1.1,0-2.2.015-3.3-.005a1.364,1.364,0,0,1-1.484-1.35,1.387,1.387,0,0,1,1.47-1.384q3.337-.038,6.675,0a1.377,1.377,0,1,1-.066,2.738C2208.232,274.734,2207.132,274.722,2206.033,274.721Z" transform="translate(-160.366 -40.011)" fill="#192842"/>
  </g>
</svg>
