<svg xmlns="http://www.w3.org/2000/svg" width="28.051" height="29.684" viewBox="0 0 28.051 29.684">
  <g id="Group_101" data-name="Group 101" transform="translate(-682.431 -671.75)">
    <path id="Path_163" data-name="Path 163" d="M702.846,672a5.093,5.093,0,0,1,.806.34,1.886,1.886,0,0,1,.913,1.557.389.389,0,0,0,.257.378,4.038,4.038,0,0,1,.779.517,2.265,2.265,0,0,0,1.339.561c.038,0,.076.007.113.011,1.295.146,1.743.552,1.894,1.84a3.17,3.17,0,0,0,.773,1.76,1.6,1.6,0,0,1,.471,1.461,2.471,2.471,0,0,1-.469.955,3.351,3.351,0,0,0-.791,1.933,1.623,1.623,0,0,1-1.582,1.64,3.036,3.036,0,0,1-.31.044,2.271,2.271,0,0,0-1.469.6,2.618,2.618,0,0,1-.248.192,1.7,1.7,0,0,1-2.339,0l-.347-.262V691.1l1-.776a.71.71,0,0,1,1.045,0c.322.249.642.5,1.017.793v-.345q0-1.909,0-3.818a1.148,1.148,0,0,1,.013-.283.425.425,0,0,1,.831.012,1.045,1.045,0,0,1,.01.227c0,1.491,0,2.982,0,4.473a.684.684,0,0,1-1.189.565c-.238-.2-.487-.38-.786-.612v.4c0,2.327-.03,4.654.012,6.98a2.209,2.209,0,0,1-1.747,2.466H684.433c-.108-.034-.217-.064-.324-.1a1.987,1.987,0,0,1-1.4-1.7,3.782,3.782,0,0,1-.024-.512q0-10.5,0-21a2.026,2.026,0,0,1,.019-.369.417.417,0,0,1,.825.026,3.261,3.261,0,0,1,.01.37q0,10.487,0,20.974a3.14,3.14,0,0,0,.028.482,1.167,1.167,0,0,0,1.071.978c.095.007.19,0,.285,0H702.34a1.212,1.212,0,0,0,1.384-1.375q0-3.633,0-7.267c0-.091-.008-.183-.014-.329-.3.231-.559.428-.815.634a.67.67,0,0,1-1.138-.551q.006-3.007,0-6.013v-.353c-.295-.044-.565-.082-.835-.126a1.633,1.633,0,0,1-1.548-1.555c-.026-.169-.051-.338-.066-.508a2.031,2.031,0,0,0-.46-1.142,5.912,5.912,0,0,1-.581-.841,1.432,1.432,0,0,1,0-1.443,2.563,2.563,0,0,1,.36-.544,2.961,2.961,0,0,0,.742-1.8,1.651,1.651,0,0,1,1.64-1.71,5.506,5.506,0,0,0,.646-.1,3.338,3.338,0,0,0,.756-.3c.415-.243.811-.521,1.206-.8a.314.314,0,0,0,.1-.235,1.167,1.167,0,0,0-1.094-1.11c-.095-.006-.19,0-.285,0H684.95a1.228,1.228,0,0,0-1.408,1.413c0,.446,0,.893,0,1.339,0,.328-.152.5-.416.5s-.43-.171-.434-.489c-.007-.541-.02-1.084.005-1.624a2.02,2.02,0,0,1,1.558-1.94.837.837,0,0,0,.123-.057Zm1.315,13.437a3.662,3.662,0,0,0,.455-.2,4.68,4.68,0,0,0,.528-.386,2.729,2.729,0,0,1,1.573-.664,4.5,4.5,0,0,0,.479-.067c.669-.123.833-.264.891-.937a3.871,3.871,0,0,1,.929-2.272c.5-.589.5-.862,0-1.452a3.86,3.86,0,0,1-.923-2.215c-.073-.768-.247-.908-1.01-1.013-.047-.006-.095-.009-.142-.013a3.233,3.233,0,0,1-1.868-.748c-.835-.687-.993-.675-1.842,0a2.866,2.866,0,0,1-1.358.678c-.207.03-.414.056-.621.082-.78.1-.942.232-1.039,1.018a3.7,3.7,0,0,1-.765,2.012c-.706.85-.7,1,0,1.86a3.1,3.1,0,0,1,.727,1.786c.013.188.062.374.094.561a.659.659,0,0,0,.622.608,4.5,4.5,0,0,1,2.806,1.164A1.688,1.688,0,0,0,704.161,685.437Z" fill="#c1c1c1" stroke="#c1c1c1" stroke-width="0.5"/>
    <path id="Path_164" data-name="Path 164" d="M782.763,716.664c-.655,0-1.31-.016-1.965,0a1.512,1.512,0,0,1-1.6-1.923c.066-.226.083-.466.134-.7a2.276,2.276,0,0,1,1.6-1.8c.287-.092.409-.212.389-.528a1.51,1.51,0,0,0-.228-.756,2.515,2.515,0,0,1-.351-1,8.523,8.523,0,0,1-.011-1.45,2.026,2.026,0,0,1,4.045-.012,13.873,13.873,0,0,1,0,1.423,2.062,2.062,0,0,1-.475,1.2c-.224.285-.091.618-.083.93,0,.042.134.081.207.12a5.154,5.154,0,0,1,1.035.57,3.1,3.1,0,0,1,.864,2.739,1.306,1.306,0,0,1-1.292,1.154c-.758.034-1.518.008-2.277.008Zm-.014-.863c.7,0,1.4.007,2.106,0a.626.626,0,0,0,.653-.812c-.042-.233-.09-.465-.127-.7a1.469,1.469,0,0,0-1.121-1.257.405.405,0,0,0-.3.045,1.982,1.982,0,0,1-2.388.009.345.345,0,0,0-.247-.064,1.49,1.49,0,0,0-1.148,1.2c-.046.232-.087.466-.133.7-.111.567.135.875.714.878C781.421,715.8,782.085,715.8,782.749,715.8Zm1.134-7.445a1.162,1.162,0,0,0-2.291.212c-.021.436-.019.873,0,1.309a1.163,1.163,0,0,0,2.289.254,5.781,5.781,0,0,0,.082-.862c-.162.042-.271.073-.381.1a1.815,1.815,0,0,1-1.356-.11.425.425,0,0,1-.195-.561.408.408,0,0,1,.551-.207A1.549,1.549,0,0,0,783.883,708.356Zm-1.742,3.473a1.706,1.706,0,0,0,.138.665.841.841,0,0,0,.952,0,1.741,1.741,0,0,0,.146-.668Z" transform="translate(-89.132 -31.978)" fill="#c1c1c1" stroke="#c1c1c1" stroke-width="0.5"/>
    <path id="Path_165" data-name="Path 165" d="M739.728,955.044h-6.382a2.06,2.06,0,0,1-.313-.01.417.417,0,0,1-.075-.8,1.218,1.218,0,0,1,.365-.04q6.439,0,12.878,0a1.272,1.272,0,0,1,.338.032.417.417,0,0,1-.059.812,2.11,2.11,0,0,1-.313.009Z" transform="translate(-46.202 -260.743)" fill="#c1c1c1" stroke="#c1c1c1" stroke-width="0.5"/>
    <path id="Path_166" data-name="Path 166" d="M739.771,984.64h6.411a2.557,2.557,0,0,1,.285.005.419.419,0,0,1,.077.819,1.216,1.216,0,0,1-.338.03q-6.439,0-12.879,0a1.23,1.23,0,0,1-.311-.022.42.42,0,0,1,.059-.827,2.543,2.543,0,0,1,.285-.005Z" transform="translate(-46.212 -288.878)" fill="#c1c1c1" stroke="#c1c1c1" stroke-width="0.5"/>
    <path id="Path_167" data-name="Path 167" d="M739.675,1015.7h-6.411c-.095,0-.215.033-.28-.013a.891.891,0,0,1-.344-.355.343.343,0,0,1,.255-.443,1.178,1.178,0,0,1,.364-.042q6.439,0,12.879,0a1.222,1.222,0,0,1,.338.03.419.419,0,0,1-.077.819,2.557,2.557,0,0,1-.285,0Z" transform="translate(-46.145 -316.79)" fill="#c1c1c1" stroke="#c1c1c1" stroke-width="0.5"/>
    <path id="Path_168" data-name="Path 168" d="M739.795,923.948h6.411a1.969,1.969,0,0,1,.256,0,.423.423,0,0,1,.058.831,1.168,1.168,0,0,1-.311.019H733.33a1.215,1.215,0,0,1-.311-.018.422.422,0,0,1,.052-.831,1.856,1.856,0,0,1,.256,0Z" transform="translate(-46.212 -232.798)" fill="#c1c1c1" stroke="#c1c1c1" stroke-width="0.5"/>
    <path id="Path_169" data-name="Path 169" d="M739.764,864.081h-6.44a1.387,1.387,0,0,1-.284-.009.423.423,0,0,1-.024-.829,1.211,1.211,0,0,1,.312-.016h12.879a1.527,1.527,0,0,1,.256.006.424.424,0,0,1,0,.843,1.673,1.673,0,0,1-.256,0Z" transform="translate(-46.209 -176.691)" fill="#c1c1c1" stroke="#c1c1c1" stroke-width="0.5"/>
    <path id="Path_170" data-name="Path 170" d="M739.773,894.431h-6.439c-.466,0-.662-.132-.654-.438s.2-.417.65-.417h12.935c.388.005.575.15.568.44s-.184.413-.564.414Q743.021,894.433,739.773,894.431Z" transform="translate(-46.2 -204.737)" fill="#c1c1c1" stroke="#c1c1c1" stroke-width="0.5"/>
    <path id="Path_171" data-name="Path 171" d="M712.652,985.1a.432.432,0,0,1-.443.424.438.438,0,0,1-.409-.432.424.424,0,0,1,.445-.418A.418.418,0,0,1,712.652,985.1Z" transform="translate(-26.907 -288.909)" fill="#c1c1c1" stroke="#c1c1c1" stroke-width="0.5"/>
    <path id="Path_172" data-name="Path 172" d="M712.225,1015.735a.426.426,0,0,1-.424-.412.438.438,0,0,1,.431-.44.433.433,0,0,1,.421.447A.42.42,0,0,1,712.225,1015.735Z" transform="translate(-26.908 -316.825)" fill="#c1c1c1" stroke="#c1c1c1" stroke-width="0.5"/>
    <path id="Path_173" data-name="Path 173" d="M712.231,923.974a.423.423,0,0,1,.421.414.426.426,0,1,1-.421-.414Z" transform="translate(-26.907 -232.824)" fill="#c1c1c1" stroke="#c1c1c1" stroke-width="0.5"/>
    <path id="Path_174" data-name="Path 174" d="M712.213,864.124a.426.426,0,1,1,.435-.4A.427.427,0,0,1,712.213,864.124Z" transform="translate(-26.903 -176.735)" fill="#c1c1c1" stroke="#c1c1c1" stroke-width="0.5"/>
    <path id="Path_175" data-name="Path 175" d="M712.214,954.239a.431.431,0,0,1,.435.4.418.418,0,0,1-.413.446.424.424,0,0,1-.438-.4A.437.437,0,0,1,712.214,954.239Z" transform="translate(-26.904 -260.789)" fill="#c1c1c1" stroke="#c1c1c1" stroke-width="0.5"/>
    <path id="Path_176" data-name="Path 176" d="M712.654,894.043a.419.419,0,0,1-.4.433.423.423,0,1,1,.4-.433Z" transform="translate(-26.908 -204.787)" fill="#c1c1c1" stroke="#c1c1c1" stroke-width="0.5"/>
    <path id="Path_177" data-name="Path 177" d="M929.251,741.469c.01.2.026.4.029.6a.544.544,0,0,1-.775.566c-.394-.136-.779-.3-1.175-.427a.642.642,0,0,0-.375,0c-.4.129-.782.289-1.176.425a.551.551,0,0,1-.785-.583,4.569,4.569,0,0,0,.009-1.411,4.508,4.508,0,0,0-.829-1.139.555.555,0,0,1,.327-.955c.373-.108.753-.2,1.12-.319a.759.759,0,0,0,.348-.253c.237-.32.444-.661.67-.989a.55.55,0,0,1,.992-.008c.233.335.447.683.687,1.013a.647.647,0,0,0,.3.22c.378.124.765.221,1.146.333.527.156.655.539.325.973-.19.249-.374.5-.584.735a.9.9,0,0,0-.267.8,2.607,2.607,0,0,1,0,.426Zm-.056-2.2a9.653,9.653,0,0,1-.977-.289,1.36,1.36,0,0,1-.506-.369c-.21-.249-.373-.537-.61-.888a2.125,2.125,0,0,1-2.05,1.5,9.566,9.566,0,0,1,.637.831,1.536,1.536,0,0,1,.2.622c.033.318.008.642.008,1.055a2.052,2.052,0,0,1,2.481-.015c0-.366.021-.659-.006-.947a.99.99,0,0,1,.265-.806C928.828,739.76,928.991,739.527,929.194,739.269Z" transform="translate(-222.983 -59.75)" fill="#c1c1c1" stroke="#c1c1c1" stroke-width="0.5"/>
  </g>
</svg>
