<svg xmlns="http://www.w3.org/2000/svg" width="126.72" height="149.22" viewBox="0 0 126.72 149.22">
  <g id="Group_612" data-name="Group 612" transform="translate(-19.02 -302.672)">
    <g id="Group_598" data-name="Group 598" transform="translate(19.019 302.672)">
      <g id="Group_521" data-name="Group 521" transform="translate(13.332 34.898)">
        <g id="Group_520" data-name="Group 520">
          <g id="Group_519" data-name="Group 519">
            <g id="Group_518" data-name="Group 518">
              <path id="Path_4446" data-name="Path 4446" d="M77.2,383.373c-7.732,2.7-17.817.287-24.431-4.541S41.4,367.081,37.183,360.062c-1.8-3-3.558-6.118-4.126-9.566s.268-7.327,2.942-9.577c4.156-3.5,10.524-1.724,15.243.965A52.564,52.564,0,0,1,77.2,383.373" transform="translate(-32.888 -338.973)" fill="#75bfd3"/>
            </g>
          </g>
        </g>
      </g>
      <g id="Group_525" data-name="Group 525" transform="translate(0 85.54)">
        <g id="Group_524" data-name="Group 524">
          <g id="Group_523" data-name="Group 523">
            <g id="Group_522" data-name="Group 522">
              <path id="Path_4447" data-name="Path 4447" d="M68.368,403.914c-4.643,6.126-12.621,8.853-20.3,9.209S32.8,411.355,25.627,408.6c-2.6-1-5.453-2.369-6.346-5.01a6.372,6.372,0,0,1,1.359-5.91,13.256,13.256,0,0,1,5.182-3.532c7.065-3.008,15.158-3.149,22.589-1.223s13.925,6.236,19.957,10.988" transform="translate(-19.019 -391.651)" fill="#75bfd3"/>
            </g>
          </g>
        </g>
      </g>
      <g id="Group_529" data-name="Group 529" transform="translate(39.178)">
        <g id="Group_528" data-name="Group 528">
          <g id="Group_527" data-name="Group 527">
            <g id="Group_526" data-name="Group 526">
              <path id="Path_4448" data-name="Path 4448" d="M78.357,348.848c-6.4.128-11.244-5.479-14.142-11.186A41.464,41.464,0,0,1,60.4,311.81c.584-3.271,1.822-6.8,4.748-8.37,2.974-1.6,6.844-.545,9.339,1.731s3.859,5.524,4.856,8.75c3.434,11.116,2.695,23.891-.989,34.928" transform="translate(-59.773 -302.672)" fill="#75bfd3"/>
            </g>
          </g>
        </g>
      </g>
      <g id="Group_533" data-name="Group 533" transform="translate(68.777 12.348)">
        <g id="Group_532" data-name="Group 532">
          <g id="Group_531" data-name="Group 531">
            <g id="Group_530" data-name="Group 530">
              <path id="Path_4449" data-name="Path 4449" d="M100.57,384.744C89.657,366.173,87.839,343.45,94.284,322.9c1.045-3.334,3.018-7.15,6.505-7.371,3.862-.244,6.282,4.062,7.349,7.781,3.742,13.051,2.946,26.914,2.119,40.466-.51,8.347-3.377,15.483-9.687,20.972" transform="translate(-90.562 -315.516)" fill="#75bfd3"/>
            </g>
          </g>
        </g>
      </g>
      <g id="Group_537" data-name="Group 537" transform="translate(90.132 60.145)">
        <g id="Group_536" data-name="Group 536">
          <g id="Group_535" data-name="Group 535">
            <g id="Group_534" data-name="Group 534">
              <path id="Path_4450" data-name="Path 4450" d="M112.776,394.3a44.633,44.633,0,0,1,26.478-28.079c2.9-1.091,6.582-1.713,8.743.5,2.12,2.175,1.467,5.809.107,8.525-2.2,4.386-5.763,7.91-9.316,11.292-3.232,3.076-6.591,6.164-10.679,7.951s-11.6,2.243-15.333-.194" transform="translate(-112.776 -365.235)" fill="#75bfd3"/>
            </g>
          </g>
        </g>
      </g>
      <g id="Group_542" data-name="Group 542" transform="translate(22.478 41.502)">
        <g id="Group_541" data-name="Group 541">
          <g id="Group_540" data-name="Group 540">
            <g id="Group_539" data-name="Group 539">
              <g id="Group_538" data-name="Group 538">
                <path id="Path_4451" data-name="Path 4451" d="M42.4,345.843a.985.985,0,0,0,.19.169l.588.456,2.287,1.71,1.659,1.225c.6.461,1.219.995,1.9,1.55,1.351,1.129,2.947,2.343,4.554,3.87l2.572,2.339c.89.817,1.748,1.74,2.673,2.654,1.878,1.806,3.7,3.914,5.653,6.09a131.537,131.537,0,0,1,11.253,15.34,131.467,131.467,0,0,1,8.692,16.927c1.073,2.724,2.145,5.292,2.921,7.78.4,1.237.847,2.417,1.18,3.578l.941,3.346c.649,2.12,1.021,4.091,1.427,5.8.19.859.389,1.654.535,2.394q.193,1.109.354,2.032l.507,2.81.145.73a.99.99,0,0,0,.066.246.939.939,0,0,0-.014-.254c-.025-.2-.056-.438-.094-.737-.1-.686-.237-1.632-.412-2.828q-.14-.927-.31-2.044c-.133-.744-.318-1.544-.5-2.408-.38-1.723-.729-3.705-1.356-5.838q-.437-1.609-.912-3.366c-.325-1.169-.759-2.355-1.156-3.6-.762-2.5-1.823-5.087-2.887-7.827a128.3,128.3,0,0,0-8.693-17.016A128.2,128.2,0,0,0,64.84,365.6c-1.974-2.177-3.812-4.282-5.709-6.081-.935-.911-1.8-1.83-2.7-2.643l-2.6-2.322c-1.627-1.515-3.245-2.714-4.615-3.823-.693-.545-1.327-1.069-1.932-1.52l-1.69-1.191-2.347-1.633-.617-.414A.919.919,0,0,0,42.4,345.843Z" transform="translate(-42.402 -345.842)" fill="#263238"/>
              </g>
            </g>
          </g>
        </g>
      </g>
      <g id="Group_547" data-name="Group 547" transform="translate(8.029 90.949)">
        <g id="Group_546" data-name="Group 546">
          <g id="Group_545" data-name="Group 545">
            <g id="Group_544" data-name="Group 544">
              <g id="Group_543" data-name="Group 543">
                <path id="Path_4452" data-name="Path 4452" d="M27.371,399.311a4.146,4.146,0,0,0,.749-.125c.488-.088,1.2-.276,2.126-.431a59.82,59.82,0,0,1,7.9-.966A58.754,58.754,0,0,1,63.8,402.106a58.747,58.747,0,0,1,21.15,15.16,60.038,60.038,0,0,1,4.883,6.285c.545.768.909,1.4,1.192,1.811a4.381,4.381,0,0,0,.438.619,4.056,4.056,0,0,0-.35-.673c-.254-.427-.592-1.08-1.113-1.867a53.18,53.18,0,0,0-4.777-6.415,56.715,56.715,0,0,0-47.1-19.6,53.206,53.206,0,0,0-7.918,1.133c-.927.185-1.629.406-2.11.526A4.184,4.184,0,0,0,27.371,399.311Z" transform="translate(-27.371 -397.278)" fill="#263238"/>
              </g>
            </g>
          </g>
        </g>
      </g>
      <g id="Group_552" data-name="Group 552" transform="translate(48.326 8.181)">
        <g id="Group_551" data-name="Group 551">
          <g id="Group_550" data-name="Group 550">
            <g id="Group_549" data-name="Group 549">
              <g id="Group_548" data-name="Group 548">
                <path id="Path_4453" data-name="Path 4453" d="M69.291,311.182a1.222,1.222,0,0,0,.042.288l.174.834c.172.767.412,1.837.717,3.2.629,2.774,1.587,6.778,2.792,11.721,2.4,9.886,5.9,23.5,9.537,38.585,1.807,7.547,3.445,14.758,4.856,21.331,1.384,6.579,2.566,12.519,3.444,17.526.471,2.5.825,4.771,1.16,6.763s.608,3.71.813,5.117c.214,1.377.383,2.46.5,3.236.059.346.106.622.143.84a1.273,1.273,0,0,0,.066.284,1.227,1.227,0,0,0-.014-.29c-.024-.22-.055-.5-.092-.847-.1-.78-.235-1.868-.409-3.251-.175-1.412-.41-3.137-.727-5.133s-.638-4.276-1.087-6.781c-.833-5.02-1.978-10.972-3.338-17.562-1.386-6.584-3.011-13.8-4.82-21.353C79.413,350.6,75.863,337,73.369,327.136c-1.238-4.9-2.244-8.886-2.949-11.68-.345-1.351-.617-2.413-.811-3.174l-.224-.822A1.232,1.232,0,0,0,69.291,311.182Z" transform="translate(-69.288 -311.182)" fill="#263238"/>
              </g>
            </g>
          </g>
        </g>
      </g>
      <g id="Group_557" data-name="Group 557" transform="translate(73.382 26.328)">
        <g id="Group_556" data-name="Group 556">
          <g id="Group_555" data-name="Group 555">
            <g id="Group_554" data-name="Group 554">
              <g id="Group_553" data-name="Group 553">
                <path id="Path_4454" data-name="Path 4454" d="M95.356,420.142a.808.808,0,0,0,.069-.224c.041-.182.091-.4.152-.67q.2-.95.537-2.585c.462-2.247,1.076-5.508,1.775-9.549,1.4-8.079,3.058-19.3,4.078-31.78.494-6.243.77-12.2.89-17.626.09-5.425.043-10.311-.126-14.41-.051-2.051-.186-3.9-.275-5.529s-.2-3.025-.3-4.167q-.153-1.661-.242-2.629c-.031-.274-.056-.5-.076-.683a.84.84,0,0,0-.043-.232.758.758,0,0,0-.01.236c.007.186.015.411.025.686q.055.969.146,2.636c.075,1.143.161,2.542.216,4.168s.171,3.476.2,5.525c.123,4.094.133,8.973.016,14.387-.146,5.414-.436,11.363-.929,17.6-1.018,12.459-2.619,23.673-3.924,31.762-.653,4.045-1.211,7.315-1.612,9.571q-.28,1.645-.442,2.6l-.1.679A.8.8,0,0,0,95.356,420.142Z" transform="translate(-95.352 -330.058)" fill="#263238"/>
              </g>
            </g>
          </g>
        </g>
      </g>
      <g id="Group_562" data-name="Group 562" transform="translate(72.576 67.772)">
        <g id="Group_561" data-name="Group 561">
          <g id="Group_560" data-name="Group 560">
            <g id="Group_559" data-name="Group 559">
              <g id="Group_558" data-name="Group 558">
                <path id="Path_4455" data-name="Path 4455" d="M94.516,424.167a3.629,3.629,0,0,0,.285-.641l.718-1.868q.235-.617.512-1.351l.7-1.57.8-1.8c.283-.639.648-1.283.993-1.977l1.114-2.165,1.328-2.281c.876-1.6,2.008-3.193,3.1-4.927a116.676,116.676,0,0,1,8.219-10.5,128.984,128.984,0,0,1,9.432-9.44c1.568-1.323,3-2.646,4.455-3.755l2.066-1.646,1.961-1.446c1.236-.939,2.4-1.725,3.426-2.411,1.014-.7,1.9-1.288,2.647-1.735l1.69-1.072a3.605,3.605,0,0,0,.573-.4,3.584,3.584,0,0,0-.625.314l-1.743.99c-.763.422-1.667.984-2.7,1.666-1.043.666-2.226,1.432-3.481,2.356L128,379.921l-2.092,1.629c-1.468,1.1-2.922,2.415-4.5,3.734a122.239,122.239,0,0,0-9.5,9.454,110.893,110.893,0,0,0-8.227,10.58c-1.089,1.75-2.214,3.358-3.079,4.977q-.676,1.2-1.307,2.308l-1.09,2.191c-.337.7-.693,1.355-.965,2l-.768,1.829q-.355.852-.664,1.592-.257.744-.472,1.371c-.261.788-.469,1.421-.629,1.905A3.624,3.624,0,0,0,94.516,424.167Z" transform="translate(-94.513 -373.169)" fill="#263238"/>
              </g>
            </g>
          </g>
        </g>
      </g>
      <g id="Group_567" data-name="Group 567" transform="translate(26.526 62.875)">
        <g id="Group_566" data-name="Group 566" transform="translate(0)">
          <g id="Group_565" data-name="Group 565">
            <g id="Group_564" data-name="Group 564">
              <g id="Group_563" data-name="Group 563">
                <path id="Path_4456" data-name="Path 4456" d="M46.612,368.242c0,.082,1.323.082,3.447.2a61.736,61.736,0,0,1,16.267,3.09c2.02.668,3.248,1.152,3.28,1.077a3.282,3.282,0,0,0-.82-.444c-.539-.26-1.338-.6-2.339-.976a49.078,49.078,0,0,0-16.376-3.11c-1.07-.013-1.937.006-2.534.05A3.26,3.26,0,0,0,46.612,368.242Z" transform="translate(-46.612 -368.075)" fill="#263238"/>
              </g>
            </g>
          </g>
        </g>
      </g>
      <g id="Group_572" data-name="Group 572" transform="translate(18.285 91.487)">
        <g id="Group_571" data-name="Group 571">
          <g id="Group_570" data-name="Group 570">
            <g id="Group_569" data-name="Group 569">
              <g id="Group_568" data-name="Group 568">
                <path id="Path_4457" data-name="Path 4457" d="M38.048,409.6a31.338,31.338,0,0,1,4.491-6.776,31.27,31.27,0,0,1,6.426-4.98,7.654,7.654,0,0,0-2.218.981,19.593,19.593,0,0,0-7.885,8.491A7.683,7.683,0,0,0,38.048,409.6Z" transform="translate(-38.04 -397.838)" fill="#263238"/>
              </g>
            </g>
          </g>
        </g>
      </g>
      <g id="Group_577" data-name="Group 577" transform="translate(46.361 23.255)">
        <g id="Group_576" data-name="Group 576">
          <g id="Group_575" data-name="Group 575">
            <g id="Group_574" data-name="Group 574">
              <g id="Group_573" data-name="Group 573">
                <path id="Path_4458" data-name="Path 4458" d="M67.249,326.866c-.1.111,1.905,2.1,4.1,4.8s3.75,5.06,3.88,4.979a22.346,22.346,0,0,0-3.481-5.3A22.285,22.285,0,0,0,67.249,326.866Z" transform="translate(-67.245 -326.862)" fill="#263238"/>
              </g>
            </g>
          </g>
        </g>
      </g>
      <g id="Group_582" data-name="Group 582" transform="translate(51.434 11.873)">
        <g id="Group_581" data-name="Group 581">
          <g id="Group_580" data-name="Group 580">
            <g id="Group_579" data-name="Group 579">
              <g id="Group_578" data-name="Group 578">
                <path id="Path_4459" data-name="Path 4459" d="M74.046,315.022a38.015,38.015,0,0,0-1.481,8.7,37.876,37.876,0,0,0,1.481-8.7Z" transform="translate(-72.522 -315.022)" fill="#263238"/>
              </g>
            </g>
          </g>
        </g>
      </g>
      <g id="Group_587" data-name="Group 587" transform="translate(73.363 47.6)">
        <g id="Group_586" data-name="Group 586">
          <g id="Group_585" data-name="Group 585">
            <g id="Group_584" data-name="Group 584">
              <g id="Group_583" data-name="Group 583">
                <path id="Path_4460" data-name="Path 4460" d="M95.341,352.187a54.055,54.055,0,0,0,3.195,6.722,54.1,54.1,0,0,0,3.651,6.485,54,54,0,0,0-3.195-6.723A53.817,53.817,0,0,0,95.341,352.187Z" transform="translate(-95.333 -352.186)" fill="#263238"/>
              </g>
            </g>
          </g>
        </g>
      </g>
      <g id="Group_592" data-name="Group 592" transform="translate(80.557 35.471)">
        <g id="Group_591" data-name="Group 591">
          <g id="Group_590" data-name="Group 590">
            <g id="Group_589" data-name="Group 589">
              <g id="Group_588" data-name="Group 588">
                <path id="Path_4461" data-name="Path 4461" d="M107.78,339.57a30.316,30.316,0,0,0-2.707,4.862,30.209,30.209,0,0,0-2.247,5.092,30.248,30.248,0,0,0,2.707-4.862A30.183,30.183,0,0,0,107.78,339.57Z" transform="translate(-102.816 -339.569)" fill="#263238"/>
              </g>
            </g>
          </g>
        </g>
      </g>
      <g id="Group_597" data-name="Group 597" transform="translate(103.378 75.922)">
        <g id="Group_596" data-name="Group 596">
          <g id="Group_595" data-name="Group 595">
            <g id="Group_594" data-name="Group 594">
              <g id="Group_593" data-name="Group 593">
                <path id="Path_4462" data-name="Path 4462" d="M126.555,382.679c.034.148,2.2-.274,4.9-.459s4.9-.087,4.918-.237a14.114,14.114,0,0,0-4.955-.276A14.116,14.116,0,0,0,126.555,382.679Z" transform="translate(-126.555 -381.646)" fill="#263238"/>
              </g>
            </g>
          </g>
        </g>
      </g>
    </g>
    <g id="Group_611" data-name="Group 611" transform="translate(72.084 416.303)">
      <g id="Group_602" data-name="Group 602" transform="translate(0 0)">
        <g id="Group_601" data-name="Group 601">
          <g id="Group_600" data-name="Group 600">
            <g id="Group_599" data-name="Group 599">
              <path id="Path_4463" data-name="Path 4463" d="M112.336,420.872l-6.074,31.947a4.478,4.478,0,0,1-4.4,3.642H83.916a4.477,4.477,0,0,1-4.417-3.745l-5.281-31.844Z" transform="translate(-74.218 -420.872)" fill="#263238"/>
            </g>
          </g>
        </g>
      </g>
      <g id="Group_606" data-name="Group 606">
        <g id="Group_605" data-name="Group 605">
          <g id="Group_604" data-name="Group 604">
            <g id="Group_603" data-name="Group 603">
              <path id="Path_4464" data-name="Path 4464" d="M110.362,431.255H76.041l-1.824-10.383h38.119Z" transform="translate(-74.218 -420.872)" fill="#455a64"/>
            </g>
          </g>
        </g>
      </g>
      <g id="Group_610" data-name="Group 610" transform="translate(1.824 10.383)">
        <g id="Group_609" data-name="Group 609">
          <g id="Group_608" data-name="Group 608">
            <g id="Group_607" data-name="Group 607">
              <path id="Path_4465" data-name="Path 4465" d="M110.436,431.672l-.72,3.786H76.641l-.526-3.786Z" transform="translate(-76.115 -431.672)" fill="#fafafa"/>
            </g>
          </g>
        </g>
      </g>
    </g>
  </g>
</svg>
