<svg xmlns="http://www.w3.org/2000/svg" width="248.786" height="437.994" viewBox="0 0 248.786 437.994">
  <g id="Group_640" data-name="Group 640" opacity="0.59">
    <path id="Path_4613" data-name="Path 4613" d="M1895.165,1562.871c8.177,3.1,62.345,8.79,60.113,15.65s-40.089,13.781-59.714,5.054c0,0,15.925,58.143,45.755,58.822s41.123-16.511,59.549-15.756,31.2,7.245,21.485,11.084-40.231-3.119-56.462,7.676c-2.383,1.584-4.695,3.075-6.815,4.486-.664.443,2.65,14.716,15.309,18.667,5.8,1.81,23.206,6.712,33,5,3.955-.691,10.882-3.468,20-5,9.737-1.636,26.5-6,26.5-6l10.1-10.187c0-.879,0-1.708.022-2.48a64.042,64.042,0,0,1,.483-7.183s56.165-23.276,36.313-66.218c0,0-16.764-26.907-37.09-35.719,0,0,4.184,61.032-7.219,61.108s.239-68.345.239-68.345-52.336-33.246-74.361-33.713c0,0,27.533,62.368,16.457,59.635s-42.733-66.3-42.733-66.3-55.65-17.256-68.766,15.379S1886.983,1559.77,1895.165,1562.871Z" transform="translate(-1881.693 -1235.917)" fill="#75bfd3" opacity="0.6"/>
    <path id="Path_4614" data-name="Path 4614" d="M1841.532,1159.933c-24-20.357,6.38-62.721,6.38-62.721s62.91-8.911,68.359-17.538S1861,1076.79,1861,1076.79c6.62-18.564,49.636-53.6,49.636-53.6s54.792,29.223,57.95,19.521-49.835-23.4-49.835-23.4c13.224-14.764,40.8-21.389,40.8-21.389,42.065-4.717,45.95,49.541,45.95,49.541s19.207,9.718,47.2,8.178h0a73.219,73.219,0,0,1,13.706-.246l-2.2,4.685c-1.436-.208-2.849-.356-4.234-.436a.03.03,0,0,0-.025,0l-.06,0c-.875-.019-2.122-.041-3.646-.056h-.006s0,0-.007,0c-3.474.115-6,.111-7.78.021a.057.057,0,0,1-.016,0c-10.81.159-25.171.956-29.51,3.948a10.018,10.018,0,0,0-1.677-2.012l1.677,2.012c13.42,16.088-2.544,57.531-17.617,77.719s-16.8,7.492-21.379-9.339,9.952-40.77,9.439-50.1-9.633-.328-15.481,15.1,5.549,29.871-3.456,55.006-62.866,22.216-62.866,22.216c12.956-14.191,17.777-48.281,12.588-52.117s-25.328,40.541-30.275,46.608S1865.53,1180.291,1841.532,1159.933Z" transform="translate(-1817.618 -997.634)" fill="#75bfd3" opacity="0.5"/>
  </g>
</svg>
