<svg xmlns="http://www.w3.org/2000/svg" width="20.998" height="18.791" viewBox="0 0 20.998 18.791"><defs><style>.a{fill:#192842;}</style></defs><g transform="translate(551.423 -784.326)"><path class="a" d="M-551.423,800.613V786.831c.014-.052.032-.1.041-.157a2.827,2.827,0,0,1,2.742-2.345q6.694-.008,13.387,0a2.816,2.816,0,0,1,2.735,2.442.237.237,0,0,0,.187.224,2.785,2.785,0,0,1,1.74,1.731c.072.2.112.4.166.607v11.279a.789.789,0,0,0-.037.115,2.824,2.824,0,0,1-2.786,2.388q-7.676,0-15.352,0a2.822,2.822,0,0,1-2.681-1.95C-551.339,800.985-551.376,800.8-551.423,800.613Zm19.677-2.557h-.3c-1.414-.007-2.831.035-4.243-.035a3,3,0,0,1-2.689-3.446,3.022,3.022,0,0,1,3.064-2.588q1.958,0,3.916,0c.079,0,.158-.007.249-.011,0-.749,0-1.473,0-2.2a1.521,1.521,0,0,0-1.617-1.619q-7.566,0-15.132,0a1.518,1.518,0,0,0-1.605,1.61q0,5.208,0,10.417a1.936,1.936,0,0,0,.058.486,1.514,1.514,0,0,0,1.567,1.125h15.091c.055,0,.109,0,.164,0a1.484,1.484,0,0,0,1.448-1.335c.044-.426.021-.86.024-1.29C-531.744,798.809-531.746,798.448-531.746,798.056Zm-2.11-11.223c-.018-.076-.025-.123-.04-.167a1.525,1.525,0,0,0-1.524-1.019q-6.528,0-13.055,0a2.333,2.333,0,0,0-.407.035,1.475,1.475,0,0,0-1.2,1.557.436.436,0,0,0,.074-.026,3.187,3.187,0,0,1,1.633-.385q7.112.008,14.223,0Zm2.1,6.49a.772.772,0,0,0-.085-.012c-1.4,0-2.8-.01-4.2.011a1.767,1.767,0,0,0-.758.211,1.68,1.68,0,0,0-.833,1.9,1.694,1.694,0,0,0,1.624,1.291c1.373.009,2.746,0,4.119,0a.822.822,0,0,0,.134-.022Z"/><path class="a" d="M-276.95,968.855a.686.686,0,0,1,.686-.689.689.689,0,0,1,.688.689.691.691,0,0,1-.688.69A.69.69,0,0,1-276.95,968.855Z" transform="translate(-259.464 -173.787)"/></g></svg>