<svg xmlns="http://www.w3.org/2000/svg" width="952" height="1080" viewBox="0 0 952 1080"><defs><style>.a{fill:#fff;}.b{opacity:0.04;}.c{fill:#e893b8;}.d{fill:#202a44;}</style></defs><g transform="translate(-968)"><rect class="a" width="952" height="1080" transform="translate(968)"/><g class="b" transform="translate(1598.866 9)"><g transform="translate(0)"><path class="c" d="M286.9,169.436a21.051,21.051,0,0,0-21.051,21.051,111.729,111.729,0,0,1-223.458,0h0V45.471a21.051,21.051,0,0,0-42.1,0V190.409h0a153.753,153.753,0,0,0,307.505,0A21.051,21.051,0,0,0,286.9,169.436Z" transform="translate(0.473 39.839)"/><path class="d" d="M4.947,38.182c3.289,2.631,8.947,3.894,16.973,3.894s13.789-1.237,17.315-3.71S44.5,31.235,44.5,24.393v-6.71q0-9.894-4.947-13.789Q34.656-.013,22.262,0,10.973,0,5.473,3.71T0,17.683v6.71C0,31,1.658,35.577,4.947,38.182Z" transform="translate(0)"/></g></g></g></svg>