<svg xmlns="http://www.w3.org/2000/svg" width="120.614" height="424.586" viewBox="0 0 120.614 424.586">
  <g id="Group_639" data-name="Group 639" transform="translate(-184.295 -61.961)">
    <g id="Group_638" data-name="Group 638" transform="translate(184.295 61.961)">
      <path id="Path_4505" data-name="Path 4505" d="M187.075,99.092l58.85-7.054L263.967,90.9c7.133,5.5,12.171,9.114,13.631,11.665,3.185,5.579-5.373,5.209-16.047,3.043-22.275-4.532-31.488-3.292-54.732-3.919C196.588,101.415,188.187,100.731,187.075,99.092Z" transform="translate(-167.264 115.338)" fill-rule="evenodd"/>
      <path id="Path_4506" data-name="Path 4506" d="M212.618,121.913c-7.824,8.487-7.5,9.106-19.439,9.491-3.121.1-5.779.143-7.19,1.724-2.23,2.5.435,3.72,3.121,5.081a97.043,97.043,0,0,0,21.22,1.867c6.442-.143,10.239-1.318,18.776-5.886l-.3,3.385a199.718,199.718,0,0,0,20.7-.42l.142-7.482.9-6.349L235.9,116.832Z" transform="translate(-179.012 274.156)" fill="#161617" fill-rule="evenodd"/>
      <path id="Path_4507" data-name="Path 4507" d="M185.4,129.647c-1.026,1.967,1.332,3.057,3.705,4.261a97.043,97.043,0,0,0,21.22,1.867c6.442-.143,10.24-1.318,18.776-5.886l-.3,3.385.249.007c.328-3.385.235-4.7,2.259-5.465,2.736-1.04,8.038-.784,13.995-1.183,4.617-.3,3.3-1.746,4.354-6.413l.648.456.235-1.653-3.356-1.489-.356,1.489c-.057,3.713-7.154-.249-16.432,1.831-4.368.983-6.848,3.043-11.294,5.323-13.474,6.919-17.985,6.99-32.813,3.926C186,129.947,185.7,129.8,185.4,129.647Z" transform="translate(-179.01 278.456)" fill-rule="evenodd"/>
      <path id="Path_4508" data-name="Path 4508" d="M205.111,120.942c-.941,3.541-2.6,4.6-2.807,8.33-1.39,3.021-4.5,4.432-5.316,7.133-1.81,5.993,1.211,7.674,6.5,7.817,9.128.228,13.9-1.646,20.037-4.432l2-4.311.15,2.964,1.917-.848.3-6.342c1.553-5.594.128-8.907.15-11.009l-14.793-2.4S205.41,121.091,205.111,120.942Z" transform="translate(-109.768 280.343)" fill="#161617" fill-rule="evenodd"/>
      <path id="Path_4509" data-name="Path 4509" d="M205.135,120.672c-.934,3.541-2.6,4.582-2.8,8.323-1.4,3.021-4.5,4.432-5.309,7.133-1.817,5.993,1.055,7.461,6.342,7.6,7.86.2,12.163-.933,18.106-3.641l-.214-.021c-4.838.919-21.142,5.651-23.5-.976-.577-1.618,1.511-3.47,3.712-5.907,1.475-1.646,3.135-5.529,5.928-7.66a4.661,4.661,0,0,1,3.135-1.254c3.413,2.943,5.729,5.8,9.092,6.271a26.119,26.119,0,0,1-9.092-8.323l1-4.3C208.933,118.848,205.363,120.772,205.135,120.672Z" transform="translate(-109.65 280.833)" fill-rule="evenodd"/>
      <path id="Path_4510" data-name="Path 4510" d="M212.02,118.219l-3.549,2.815a103.614,103.614,0,0,0,8.13,7.268c-4.254,4.9-12.89,7.2-19.446,7.482a26.5,26.5,0,0,0,12.5,1.361c6.3-.812,8.935-3.634,10.952-6.506,3.491-4.988,2.893-4.233,2.287-10.239Z" transform="translate(-105.512 282.652)" fill="#2c2d30" fill-rule="evenodd"/>
      <path id="Path_4511" data-name="Path 4511" d="M189.029,128.1a227.167,227.167,0,0,0,.542,47.065c1.931,15.413,3.948,27.02,5.052,44.62s2.857,51.083,3.278,64.95-.9,12.733,1.033,14.679c2.53,2.544,3.591,5.793-5.173,16.795,15.819,5.166,21.883,5.152,38.884,3.527.955-7.788-3.271-20.116-3.1-20.75,2.458-9.392,2.508-26.529,2.209-42.6-.249-13.453-.3-25.987-3.62-34.231.8-4.518,1.974-9.107,2.366-13.546s-.192-8.658,0-12.976l.891-19.2c1.475,5.836,3.157,11.622,4.439,17.493l14.493,66.332.883,14.109,1.183,26.1.891,22.723c9.691,1.183,16.838.855,26.614.712h1.774c0-29.685,1.033-60.211-2.686-89.732-1.86-14.736-4.931-27.02-6.634-42.64-1.967-18.17-.976-42.932-4.731-62.94l-35.485-24.833L206.7,85.136l-8.871,1.411Z" transform="translate(-161.187 80)" fill="#1b1f26" fill-rule="evenodd"/>
      <path id="Path_4512" data-name="Path 4512" d="M199.4,286.51c1.119-.093,2.294-.207,3.527-.321.955-7.788-3.271-20.116-3.1-20.75,2.458-9.392,2.508-26.529,2.209-42.6-.249-13.453-.3-25.987-3.62-34.231.8-4.518,1.974-9.107,2.366-13.546s-.192-8.658,0-12.976l.862-18.477a85.755,85.755,0,0,0-7.952-19.382c2.394,21.184,3.862,42.269.549,62.9,2.508,22.994,8.615,58.223-1.325,79.308,5.8,6.819,6,11.843,6.484,20.08Zm47.905,3.891c.941-.021,1.888-.029,2.872-.043h1.774c0-29.685,1.033-60.211-2.686-89.732-1.86-14.736-4.931-27.02-6.634-42.64-1.967-18.17-.976-42.932-4.731-62.94l-6.335-4.432,3.9,2.722,1.332,8.273a21.43,21.43,0,0,0-3-.641c3.712,19.859,3.484,34.93,3.484,55.394,4.853,26.65,8.08,49.252,9.107,71.826C247.265,247.632,247.208,266.786,247.308,290.4Z" transform="translate(-131.472 113.549)" fill="#2b323d" fill-rule="evenodd"/>
      <path id="Path_4513" data-name="Path 4513" d="M189.029,128.1a227.167,227.167,0,0,0,.542,47.065c1.931,15.413,3.948,27.02,5.052,44.62s2.857,51.083,3.278,64.95-.9,12.733,1.033,14.679c2.53,2.544,3.591,5.793-5.173,16.795,1.8.584,3.477,1.112,5.052,1.568l5.294-12.156c1.674-3.834-3.762-6.021-4.14-10.161-.542-6.007.043-16.7-.078-22.709-.484-23.4-2.366-46.687-4.959-70.045-2.451-22.061-4.874-44.841.57-65.2,2.358-8.821,5.244-17.016,8.757-27.184,1.689,14.543,3.841,22.367,8.344,25.56,5.344,3.8,40.979-4.625,53.912-.727l-1.332-8.273-33.048-23.123L206.7,85.136l-8.871,1.411-8.8,41.556Zm42.333,49.053c-3.7-13.952-10.076-22.674-20.451-41.72,7.731,7.781,10.881,12.548,21.441,17.08,7.418,32.749,11.707,54.789,15.527,82.97,1.447,10.717,2.736,21.455,4,32.193,2.252,18.911,3.819,37.025,3.663,55.772-.741-.078-1.5-.157-2.266-.257l-.891-22.723-1.183-26.1-.883-14.109L235.83,193.929c-1.283-5.872-2.964-11.657-4.439-17.493Z" transform="translate(-161.187 80)" fill="#13151a" fill-rule="evenodd"/>
      <path id="Path_4514" data-name="Path 4514" d="M192.014,75.382c1.318,9.684,1.261,17.415,3.548,27.376l28.089-4.8c-6.506-13.9-6.8-15.89-6.8-29.635Z" transform="translate(-137.009 -22.959)" fill="#f1b287" fill-rule="evenodd"/>
      <path id="Path_4515" data-name="Path 4515" d="M192.014,75.382c1.318,9.684,1.261,17.415,3.548,27.376,4.917-2.4,14.942-15.092,21.8-22.1-.606-3.5-.513-6.313-.513-12.334Z" transform="translate(-137.009 -22.959)" fill="#e8a476" fill-rule="evenodd"/>
      <path id="Path_4516" data-name="Path 4516" d="M213.29,72.6l-4.585-.529h-6.1l-2.366-.352L197.8,74.039l-7.467,23.638,6.806,10.445,10.056-2.116,11.676-14.4L222.42,77.5Z" transform="translate(-147.306 -2.213)" fill="#c0d5ed" fill-rule="evenodd"/>
      <path id="Path_4517" data-name="Path 4517" d="M197.523,80.356l.727-8.251a18.672,18.672,0,0,1-2.872-2.986c-1.838-2.722-2.993-3.342-4.111-2.551-.449.321-.613,1.34-.342,2.622.456,2.237,1.938,5.579,2.4,7.539C193.7,78.3,195.863,83.705,197.523,80.356Z" transform="translate(-144.485 -35.693)" fill="#e8a476" fill-rule="evenodd"/>
      <path id="Path_4518" data-name="Path 4518" d="M196.429,80.356,195.7,72.1a19,19,0,0,0,2.872-2.986c1.831-2.722,2.986-3.342,4.112-2.551.449.321.613,1.34.342,2.622-.463,2.237-1.945,5.579-2.4,7.539C200.248,78.3,198.082,83.705,196.429,80.356Z" transform="translate(-114.418 -35.693)" fill="#f1b287" fill-rule="evenodd"/>
      <path id="Path_4519" data-name="Path 4519" d="M192.647,69.6c-.941-2.373-1.311-2.9-1.354-2.544a13.258,13.258,0,0,0,.713,3.178c.093.3-.271,1.026-.014,1.9.235.805.948,1.789,1.325.884a3.178,3.178,0,0,0-.143-1.653A11.33,11.33,0,0,0,192.647,69.6Z" transform="translate(-141.454 -31.383)" fill="#d49166" fill-rule="evenodd"/>
      <path id="Path_4520" data-name="Path 4520" d="M196.737,69.6c.948-2.373,1.318-2.9,1.361-2.544a13.263,13.263,0,0,1-.713,3.178c-.1.3.271,1.026.014,1.9-.235.805-.948,1.789-1.325.884a3.179,3.179,0,0,1,.142-1.653A10.386,10.386,0,0,1,196.737,69.6Z" transform="translate(-112.539 -31.383)" fill="#d49166" fill-rule="evenodd"/>
      <path id="Path_4521" data-name="Path 4521" d="M192.344,71.356a32.5,32.5,0,0,0,2.437,2.173c2.138,1.439,3.591,3.214,4.233,3.37a38.576,38.576,0,0,0,10.945,0c.648-.157,2.124-1.7,3.691-3.271.841-.827,2.159-1.482,3.121-2.259a15.751,15.751,0,0,1,.314-1.817l-12.527.228-12.527-.228A15.779,15.779,0,0,1,192.344,71.356Z" transform="translate(-136.905 -15.456)" fill="#d49166" fill-rule="evenodd"/>
      <path id="Path_4522" data-name="Path 4522" d="M209.1,115.589H208.9c-2.6.021-3.9-.021-5.316-.591-1.361-.556-2.031-1.838-3.912-3.563-1.6-1.475-4.468-2.971-5.166-4.575-.962-2.195-.577-4.61-1.176-8.016-.485-2.708-1.817-5.123-1.974-7.838-.164-2.936.328-5.886.221-9.206a40.9,40.9,0,0,1,.221-8.2,9.5,9.5,0,0,1,3.328-5.872h0v-.007a17.076,17.076,0,0,1,3.648-2.344l.05-.014.264-.128.15-.071a1.788,1.788,0,0,1,.207-.086l.207-.093c.078-.036.157-.057.221-.086l.207-.086c.093-.043.185-.078.285-.114l.135-.05c.143-.057.285-.1.428-.15l.007-.007a24.9,24.9,0,0,1,11.444-1.033,19.837,19.837,0,0,1,10.1,4.24,9.472,9.472,0,0,1,3.306,5.85,40.506,40.506,0,0,1,.235,8.173c-.093,3.306.406,6.249.242,9.171-.15,2.708-1.482,5.116-1.952,7.824-.584,3.4-.207,5.793-1.154,8-.7,1.6-3.549,3.121-5.138,4.61-1.867,1.753-2.53,3.028-3.89,3.606A12.426,12.426,0,0,1,209.1,115.589Z" transform="translate(-141.259 -54.316)" fill="#f1b287" fill-rule="evenodd"/>
      <path id="Path_4523" data-name="Path 4523" d="M215.449,76.168c-3.748-.306-6.142-1.5-9.926.135-3.05-.428-6.6-.983-7.7.228-.727.791-1.368,2.088-.57,4.8l-.884-1.012c.292.691.72,1.9,1.112,2.608-.627-.613-1.639-.962-2.038-1.553.071.556.549,1.739,1.133,4.1a19.68,19.68,0,0,1-1.511-1.354,15.13,15.13,0,0,0-.021,3.32L193.4,86.215c.164,5.586.8,6.919,1.026,12.22-2.473-4.147-2.33-9.27-2.872-12.591-1.546-9.392,2.074-14.358,7.995-19.317,9.954-8.316,17.337.192,21.69,2.451,5.344,2.779,6.028,8.708,6.021,14.893-.007,6.028-.634,12.284-2.024,16.082.549-4.525,1.083-25.054-5.123-24.6C218.435,75.477,216.447,76.247,215.449,76.168Z" transform="translate(-142.039 -55.867)" fill="#4d423b" fill-rule="evenodd" opacity="0.2" style="mix-blend-mode: multiply;isolation: isolate"/>
      <path id="Path_4524" data-name="Path 4524" d="M218.464,81.449c-3.862-.314-6.328-1.5-10.24.135-3.149-.435-6.8-.983-7.959.228-.734.784-1.4,2.088-.584,4.788l-1.418-1.354a21.575,21.575,0,0,0-.855,7.468l-1.7-1.226c.171,5.594.819,6.926,1.062,12.22-2.587-4.2-1.361-9.221-4.119-11.066-.534-6.577-.684-6.926.784-13.539l-1.71.848a21.129,21.129,0,0,1,1.525-2.786,4.317,4.317,0,0,0-2.522,1.568c1.81-3.278,5-4.646,7.468-7.909a4.849,4.849,0,0,0-3.057.983c1.746-3.534,3.826-4.119,6.862-5.259a5.525,5.525,0,0,1-1.1-2.75c2.337,2.223,6.3,1.7,8.608,1.325-1-.869-1.874-1.425-1.56-3.164.755,1.575,1.774,1.724,3.2,2.109l-.962-1.461c2.686,1.724,4.9,2.294,7.931,3.356,1.974.805,8.9,4.518,9.391,1.432.627,1.454.342,2.145-.712,2.644a15.364,15.364,0,0,0,3.285-.185c-.57.242-1.147.485-1.724.727,4.518,2.394,3.791,4.133,4.56,9.1a12.671,12.671,0,0,0-2-4.546,63.679,63.679,0,0,1,2.066,6.449c.42,2.458-.534,4.418-.705,6.313-.093.891.513,1.767.356,2.644a57.009,57.009,0,0,0-.862,6.584,27.852,27.852,0,0,1-.57-4.2c-.613,2.751-.413,6.456-2.629,12.313a51.109,51.109,0,0,0,.086-7.653,74.352,74.352,0,0,0-.406-9.263c-.841-6.442-3.092-7.817-4.966-7.681C221.549,80.758,219.5,81.528,218.464,81.449Z" transform="translate(-144.911 -61.961)" fill="#301508" fill-rule="evenodd"/>
      <path id="Path_4525" data-name="Path 4525" d="M197.265,62.8a25.152,25.152,0,0,1,7.468,1.831c-5.273-.335-7.767-.969-13.018,1.425,4.361-.527,10.952.335,14.016.406-1.546.349-4.739.378-8.964,1.325,10.51.506,9.156-1.033,19.56,2.344A18.294,18.294,0,0,0,197.265,62.8Z" transform="translate(-138.847 -59.484)" fill="#451f0c" fill-rule="evenodd"/>
      <path id="Path_4526" data-name="Path 4526" d="M208.987,68.934c-3.976-4.083-6.8-6.534-16.139-6.513C200.978,63.832,202.667,65.9,208.987,68.934Z" transform="translate(-131.9 -59.143)" fill="#733617" fill-rule="evenodd"/>
      <path id="Path_4527" data-name="Path 4527" d="M207.762,68.523c-3.52-3.613-9.085-5.786-14.714-6.035C200.252,64.006,203.231,65.837,207.762,68.523Z" transform="translate(-130.675 -58.733)" fill="#944c28" fill-rule="evenodd"/>
      <path id="Path_4528" data-name="Path 4528" d="M212.851,67.607a27.982,27.982,0,0,0-20.664-4.461C200.445,62.976,207.642,64.543,212.851,67.607Z" transform="translate(-135.95 -57.517)" fill="#733617" fill-rule="evenodd"/>
      <path id="Path_4529" data-name="Path 4529" d="M192.639,64.175a21.693,21.693,0,0,1,16.268.933C202.836,63.292,197.164,62.978,192.639,64.175Z" transform="translate(-133.181 -55.446)" fill="#733617" fill-rule="evenodd"/>
      <path id="Path_4530" data-name="Path 4530" d="M206.511,65.852a20.135,20.135,0,0,0-13.9-3.007C199.165,63.059,202.079,64.192,206.511,65.852Z" transform="translate(-133.365 -57.693)" fill="#944c28" fill-rule="evenodd"/>
      <path id="Path_4531" data-name="Path 4531" d="M192.827,62.939c13.09-.534,20.358,4.824,20.914,11.536-.171-.271.057.321-.249.235C204.142,72.131,200.223,63.915,192.827,62.939Z" transform="translate(-132.029 -56.198)" fill="#0d0501" fill-rule="evenodd"/>
      <path id="Path_4532" data-name="Path 4532" d="M213.741,74.721c-10.076-5.772-8.337-9.584-20.914-11.814,12.52,1.026,15.313,2.109,21.412,11.2Z" transform="translate(-132.029 -56.166)" fill="#451f0c" fill-rule="evenodd"/>
      <path id="Path_4533" data-name="Path 4533" d="M192.827,62.907c9.741,1.026,15.242,2.651,21.2,11.472C205.311,65.258,199.675,64.125,192.827,62.907Z" transform="translate(-132.029 -56.166)" fill="#733617" fill-rule="evenodd"/>
      <path id="Path_4534" data-name="Path 4534" d="M193.626,62.974a35.584,35.584,0,0,1,14.935,11.059C202.34,67.9,199.476,66.359,193.626,62.974Z" transform="translate(-127.135 -55.756)" fill="#944c28" fill-rule="evenodd"/>
      <path id="Path_4535" data-name="Path 4535" d="M203.818,63.556c-6.37-.178-10.2.342-12.448,2.038C194.648,62.487,197.6,62.437,203.818,63.556Z" transform="translate(-140.954 -56.273)" fill="#0d0501" fill-rule="evenodd"/>
      <path id="Path_4536" data-name="Path 4536" d="M212.722,74.734c-2.572-.093-4.867-4.5-7.71-6.962-3.47-2.993-7.489-4.432-13.054-4.7,7.268-.506,11.608.542,15.227,2.743a37.478,37.478,0,0,1,6.506,5.415C215.415,72.917,214.724,74.8,212.722,74.734Z" transform="translate(-137.352 -55.894)" fill="#451f0c" fill-rule="evenodd"/>
      <path id="Path_4537" data-name="Path 4537" d="M192.223,62.939c8.508.47,12.213,2.487,16.51,6.8,3.563,3.57,2.772,4.4,1.846,3.912-.862-.449-1.9-1.817-3.463-3.2C200.98,65.013,198.992,63.794,192.223,62.939Z" transform="translate(-135.729 -55.97)" fill="#733617" fill-rule="evenodd"/>
      <path id="Path_4538" data-name="Path 4538" d="M192.332,62.92c10.639.584,15.128,3.926,19.068,10.318C206.882,67.723,202.992,64.017,192.332,62.92Z" transform="translate(-135.061 -56.087)" fill="#944c28" fill-rule="evenodd"/>
      <path id="Path_4539" data-name="Path 4539" d="M193.171,63.11c9.213,3.712,10.076,7.118,10.809,9.441C202.384,70.7,201.907,67.328,193.171,63.11Z" transform="translate(-129.922 -54.923)" fill="#944c28" fill-rule="evenodd"/>
      <path id="Path_4540" data-name="Path 4540" d="M193.558,62.281c3.342,2.572,3.278,1.874,7.717,2.587-4.967-.413-4.318-.428-9.285.713C196.315,63.963,196.379,65.366,193.558,62.281Z" transform="translate(-137.156 -60.001)" fill="#0d0501" fill-rule="evenodd"/>
      <path id="Path_4541" data-name="Path 4541" d="M193.168,62.043c.492,2.679,4.4,2.765,8.244,4.211,3.15,1.19,6.456,4.817,7.724,6.955-.8-5.33-5.936-7.653-11.629-9.634l2.28,1.354C197.714,64.352,194.023,63.931,193.168,62.043Z" transform="translate(-129.94 -61.459)" fill="#451f0c" fill-rule="evenodd"/>
      <path id="Path_4542" data-name="Path 4542" d="M205.406,71.892c-.8-5.33-5.936-7.653-11.629-9.634C194.539,62.707,202.684,65.486,205.406,71.892Z" transform="translate(-126.21 -60.142)" fill="#733617" fill-rule="evenodd"/>
      <path id="Path_4543" data-name="Path 4543" d="M207.277,68.884c-3.078-4.817-8.13-6.221-14.18-6.527C193.959,62.578,202.816,62.863,207.277,68.884Z" transform="translate(-130.375 -59.535)" fill="#0d0501" fill-rule="evenodd"/>
      <path id="Path_4544" data-name="Path 4544" d="M208.918,71.973c-5.75-4.532-8.251-7.667-17.6-6.114a13.22,13.22,0,0,1,6.043-1.425l-3.663-.848c5.886-1.625,21.562,6.377,20.985,8.864A23.591,23.591,0,0,0,208.918,71.973Z" transform="translate(-141.273 -53.326)" fill="#170a03" fill-rule="evenodd"/>
      <path id="Path_4545" data-name="Path 4545" d="M206.015,70.119c-2.159-5.024-6.563-6.377-12.448-7.781C194.379,62.716,202.609,64.013,206.015,70.119Z" transform="translate(-127.496 -59.652)" fill="#944c28" fill-rule="evenodd"/>
      <path id="Path_4546" data-name="Path 4546" d="M214.626,73.023c-2.686.926-2.187.841-4.974.271-4.119-4.71-7.183-7.168-13.98-7.981a32.08,32.08,0,0,1,8.786,1.254c-5.259-2.615-7.425-2.1-13.232-2.708C203.674,61.722,206.8,63.881,214.626,73.023Z" transform="translate(-141.836 -54.988)" fill="#451f0c" fill-rule="evenodd"/>
      <path id="Path_4547" data-name="Path 4547" d="M211.477,74.661c-1.739-6.085-9.655-13-19.631-11.472C201.074,64.378,204.786,65.105,211.477,74.661Z" transform="translate(-138.038 -55.764)" fill="#0d0501" fill-rule="evenodd"/>
      <path id="Path_4548" data-name="Path 4548" d="M212.073,73.52c-2.872-7.3-9.933-11.714-20.557-10.04C200.6,63.85,205.667,64.848,212.073,73.52Z" transform="translate(-140.06 -54.829)" fill="#733617" fill-rule="evenodd"/>
      <path id="Path_4549" data-name="Path 4549" d="M208.894,73.522c-2.523-6.42-8.287-10.6-16.859-10.389C202.36,64.365,205.531,68.007,208.894,73.522Z" transform="translate(-136.881 -54.831)" fill="#944c28" fill-rule="evenodd"/>
      <path id="Path_4550" data-name="Path 4550" d="M207.211,71.264c-3.007-3.506-7.4-7.61-15.156-7.8C198.682,63.981,202.43,68.128,207.211,71.264Z" transform="translate(-136.758 -52.773)" fill="#733617" fill-rule="evenodd"/>
      <path id="Path_4551" data-name="Path 4551" d="M207.9,71.667c-2.886-5.195-8.273-8.444-15.854-8.259,9.007,1.076,12.57,3.976,15.562,8.365C207.743,71.981,207.878,71.9,207.9,71.667Z" transform="translate(-136.819 -53.14)" fill="#944c28" fill-rule="evenodd"/>
      <path id="Path_4552" data-name="Path 4552" d="M213.327,68.9c-3.492-1.475-7.1-4.674-11.95-5.024l2.245,1.161c-4.781-1.418-7.582-1.9-11.85-.143a18.045,18.045,0,0,1,3.912-.135,9.481,9.481,0,0,0-4.831,2.173c4-1,6.206-.912,8.316.135a26.817,26.817,0,0,1-3.62-.271c2.565.862,3.727,1.618,4.482,2.986.242.449,3-1.411,6.969.342C207.876,69.494,208.653,68.3,213.327,68.9Z" transform="translate(-144.121 -50.932)" fill="#451f0c" fill-rule="evenodd"/>
      <path id="Path_4553" data-name="Path 4553" d="M191.024,64.183c6.962-1.062,13.282-.214,15.719,5.494C201.883,65.08,199.7,64.5,191.024,64.183Z" transform="translate(-143.074 -50.765)" fill="#733617" fill-rule="evenodd"/>
      <path id="Path_4554" data-name="Path 4554" d="M191.024,64.227c6.962-1.062,12.605-.485,16.261,4.582C202.411,64.206,198.919,63.728,191.024,64.227Z" transform="translate(-143.074 -50.81)" fill="#944c28" fill-rule="evenodd"/>
      <path id="Path_4555" data-name="Path 4555" d="M190.985,64.828c3.363-1.7,10.824-1.026,14.33,3.8C199.949,64.508,196.13,64.094,190.985,64.828Z" transform="translate(-143.312 -49.579)" fill="#733617" fill-rule="evenodd"/>
      <path id="Path_4556" data-name="Path 4556" d="M192.309,63.83a10.515,10.515,0,0,1,9.947,4.945C197.81,67.742,198.458,64.827,192.309,63.83Z" transform="translate(-135.202 -50.783)" fill="#733617" fill-rule="evenodd"/>
      <path id="Path_4557" data-name="Path 4557" d="M191.221,64.267c9.128-1.183,11.921,2.23,13.418,4.183C202.494,67.21,200.441,63.576,191.221,64.267Z" transform="translate(-141.867 -49.325)" fill="#944c28" fill-rule="evenodd"/>
      <path id="Path_4558" data-name="Path 4558" d="M193.409,64.321c-5.408,2.986-.214,18.755,1.276,24.163-.435-4.168-1.14-7.51-1.489-11.672a55.112,55.112,0,0,0,1.988,7.4c.271-4.874-2.836-16.816-.463-17.835.862-.371,2.715-.1,4.731.157A42.237,42.237,0,0,1,193.409,64.321Z" transform="translate(-143.193 -47.505)" fill="#170a03" fill-rule="evenodd"/>
      <path id="Path_4559" data-name="Path 4559" d="M192.344,64.452c-2.088,2.408-1.81,6.969.285,16.56C191.717,74,191.2,68.934,192.344,64.452Z" transform="translate(-143.766 -46.702)" stroke="#0d0501" stroke-miterlimit="22.926" stroke-width="0.216" fill-rule="evenodd"/>
      <path id="Path_4560" data-name="Path 4560" d="M191.284,64.362c.663,5.209.855,7.831,4.119,11.13C193.386,71.623,192.752,68.11,191.284,64.362Z" transform="translate(-141.481 -47.253)" fill="#0d0501" fill-rule="evenodd"/>
      <path id="Path_4561" data-name="Path 4561" d="M191.469,64.308c.663,4.247.884,6.385,3.634,9.007C193.35,70.194,192.759,67.343,191.469,64.308Z" transform="translate(-140.348 -47.584)" fill="#0d0501" fill-rule="evenodd"/>
      <path id="Path_4562" data-name="Path 4562" d="M195.52,64.578c3.862-.078,8.622-.406,8.323,6.755-.328-1.938-.47-3.32-2.059-4.311.876,2.872.363,8.551-.42,11.472-.534-4.7-.171-6.142-1.646-10.453a62.884,62.884,0,0,1,.221,14.657C199.582,72.851,198.555,68.768,195.52,64.578Z" transform="translate(-115.533 -46.094)" fill="#451f0c" fill-rule="evenodd"/>
      <path id="Path_4563" data-name="Path 4563" d="M199.972,78.124c-.634-6.021-1.226-11.28-4.453-13.646C199.758,65.384,200.684,72.424,199.972,78.124Z" transform="translate(-115.545 -46.537)" fill="#733617" fill-rule="evenodd"/>
      <path id="Path_4564" data-name="Path 4564" d="M199.315,75.264c-.777-8.544-.827-9.584-3.67-10.688C198.894,64.932,199.507,67.825,199.315,75.264Z" transform="translate(-114.767 -45.943)" fill="#944c28" fill-rule="evenodd"/>
      <path id="Path_4565" data-name="Path 4565" d="M201.021,71.177c-1.233-4.389-2.544-5.209-5.259-6.684C200.237,65.476,200.664,67.735,201.021,71.177Z" transform="translate(-114.051 -46.451)" fill="#733617" fill-rule="evenodd"/>
      <path id="Path_4566" data-name="Path 4566" d="M196.078,82.069a93.541,93.541,0,0,0,1.169-16.724A37.127,37.127,0,0,1,196.078,82.069Z" transform="translate(-112.115 -41.232)" fill="#733617" fill-rule="evenodd"/>
      <path id="Path_4567" data-name="Path 4567" d="M197.876,71.629c.42-3.442-.641-5.081-1.375-6.883C198.161,66.549,198.247,68.729,197.876,71.629Z" transform="translate(-109.524 -44.901)" fill="#944c28" fill-rule="evenodd"/>
      <path id="Path_4568" data-name="Path 4568" d="M196.415,73.941a15.925,15.925,0,0,0-.057-8.622C197.69,67.621,197.569,70.756,196.415,73.941Z" transform="translate(-110.4 -41.391)" fill="#944c28" fill-rule="evenodd"/>
      <path id="Path_4569" data-name="Path 4569" d="M192.431,77.47c-1.6-5.024-2.6-12.313,1.682-13.068C190.714,67.509,192.2,73.473,192.431,77.47Z" transform="translate(-142.87 -47.008)" fill="#0d0501" fill-rule="evenodd"/>
      <path id="Path_4570" data-name="Path 4570" d="M200.094,72.9c-1.29-3.47-2.109-7.518-5.052-10.111C201.063,64.109,201.726,68.491,200.094,72.9Z" transform="translate(-118.461 -56.877)" fill="#451f0c" fill-rule="evenodd"/>
      <path id="Path_4571" data-name="Path 4571" d="M197.527,72.173a12.956,12.956,0,0,0-2.067-9.263C199.594,65.383,199.644,69.387,197.527,72.173Z" transform="translate(-115.894 -56.148)" fill="#733617" fill-rule="evenodd"/>
      <path id="Path_4572" data-name="Path 4572" d="M195.841,66.1a5.626,5.626,0,0,1,5.4,2.309C200.907,65.727,198.819,61.708,195.841,66.1Z" transform="translate(-113.567 -48.554)" fill="#451f0c" fill-rule="evenodd"/>
      <path id="Path_4573" data-name="Path 4573" d="M201.553,68.146c-1.019-3-1.952-3.955-5.736-3.285C200.456,63.407,200.662,64.811,201.553,68.146Z" transform="translate(-113.714 -47.695)" fill="#733617" fill-rule="evenodd"/>
      <path id="Path_4574" data-name="Path 4574" d="M200.916,70.1c-1.026-3-1.846-5.344-5.059-6.883C200.852,64.851,200.018,66.761,200.916,70.1Z" transform="translate(-113.469 -54.298)" fill="#733617" fill-rule="evenodd"/>
      <path id="Path_4575" data-name="Path 4575" d="M197.136,63.341c1.689,2.423.741,4.268-1.347,7.154C196.7,67.559,198.169,65.749,197.136,63.341Z" transform="translate(-113.885 -53.508)" fill="#733617" fill-rule="evenodd"/>
      <path id="Path_4576" data-name="Path 4576" d="M200.3,65.787c-.848-1.539-2.6-2.1-4.446,1.119C197.608,62.559,199.339,63.9,200.3,65.787Z" transform="translate(-113.481 -49.426)" fill="#733617" fill-rule="evenodd"/>
      <path id="Path_4577" data-name="Path 4577" d="M192.562,69.414c3.114,2.765,5.608,1.675,9.384,1.86,2.85.135,5.458.221,7.489-1.1a11.6,11.6,0,0,1-3.313,8.472c-.114-.805-.05-1.34-.185-2.116a35.077,35.077,0,0,1-4.354,6.5c-2.95-2.986-4.425-4.24-5.273-7.325-.356.926,0,1.788-.278,2.344C194.728,77.2,192.769,71.865,192.562,69.414Z" transform="translate(-133.652 -16.307)" fill="#301508" fill-rule="evenodd"/>
      <path id="Path_4578" data-name="Path 4578" d="M192.634,69.5c.356,3.8,1.468,4.625,2.679,7.5a43.813,43.813,0,0,1-.955-4.347c1.539,3.15,2.921,4.254,4.589,7.247a42.026,42.026,0,0,1-2.5-6.434c1.824,2.772,4.461,8.3,4.439,8.223-1.012-3.855-2.808-6.848-3.52-10.717A5.3,5.3,0,0,1,192.634,69.5Z" transform="translate(-133.211 -15.768)" fill="#170a03" fill-rule="evenodd"/>
      <path id="Path_4579" data-name="Path 4579" d="M195.129,70.343c1.233.342,4.86.57,6.007-.748.962.919-.77,5.116-2.544,7.375.207-1.439,1.14-3.114.249-4.154-.057,2.216-2.166,5.187-3.413,7.083.734-3.442,1.881-2.836,1.86-6.206-.784,3.677-1.724,2.836-3.449,6.705C195.905,73.357,196.29,73.956,195.129,70.343Z" transform="translate(-125.83 -15.198)" fill="#451f0c" fill-rule="evenodd"/>
      <path id="Path_4580" data-name="Path 4580" d="M194.539,76.146a11.9,11.9,0,0,0,.392-6.392C195.8,71.521,195.558,73.83,194.539,76.146Z" transform="translate(-121.542 -14.224)" fill="#944c28" fill-rule="evenodd"/>
      <path id="Path_4581" data-name="Path 4581" d="M196.108,74.628a8.546,8.546,0,0,0-1.881-4.881C195.673,70.873,196.015,72.462,196.108,74.628Z" transform="translate(-123.453 -14.267)" fill="#944c28" fill-rule="evenodd"/>
      <path id="Path_4582" data-name="Path 4582" d="M196.308,79.085a35.029,35.029,0,0,1-2.009-8.943c-.62.42-.677-.9-.876-.178C192.759,72.323,194.6,76.264,196.308,79.085Z" transform="translate(-129.232 -14.278)" fill="#0d0501" fill-rule="evenodd"/>
      <path id="Path_4583" data-name="Path 4583" d="M195.115,75.533c-1.5-3.057-.862-3.9-1.276-5.836C191.966,70.3,193.591,73.417,195.115,75.533Z" transform="translate(-130.983 -14.573)" fill="#0d0501" fill-rule="evenodd"/>
      <path id="Path_4584" data-name="Path 4584" d="M194.269,76.067a11.815,11.815,0,0,1-1.033-6.328C192.545,71.577,193.029,73.85,194.269,76.067Z" transform="translate(-131.462 -14.316)" fill="#0d0501" fill-rule="evenodd"/>
      <path id="Path_4585" data-name="Path 4585" d="M194.886,75.416c-1.546-3.035-.934-3.891-1.368-5.822C191.651,70.228,193.325,73.321,194.886,75.416Z" transform="translate(-132.848 -15.204)" fill="#0d0501" fill-rule="evenodd"/>
      <path id="Path_4586" data-name="Path 4586" d="M201.9,68.739a9.316,9.316,0,0,1,2.551-.1c.527.121,2.223,1.411,3.235,1.831,1.746.72,1.539.306.741,3.606,0-2.216.257-2.473-1.033-2.793a24.328,24.328,0,0,0-5.444-1.112c-.584-.014-1.682-.014-2.273,0a24.328,24.328,0,0,0-5.444,1.112c-1.3.321-1.04.577-1.04,2.793-.8-3.3-1-2.886.748-3.606,1.012-.42,2.708-1.71,3.235-1.831a8.846,8.846,0,0,1,2.522.1A5.865,5.865,0,0,0,201.9,68.739Z" transform="translate(-133.383 -21.432)" fill="#301508" fill-rule="evenodd"/>
      <path id="Path_4587" data-name="Path 4587" d="M193.724,69.063a15.141,15.141,0,0,1,5.622,1.7L198.1,69.74c1.767,1.047,3.784.827,3.727,2.53.328-1.446-.591-1.539-1.924-2.28a9.448,9.448,0,0,0-2.522-1.3C195.976,68.429,195.128,68.907,193.724,69.063Z" transform="translate(-126.535 -21.201)" fill="#451f0c" fill-rule="evenodd"/>
      <path id="Path_4588" data-name="Path 4588" d="M200.8,69.063a15.239,15.239,0,0,0-5.615,1.7l1.247-1.019c-1.774,1.055-3.791.827-3.734,2.53-.328-1.439.591-1.532,1.924-2.28a9.661,9.661,0,0,1,2.522-1.3C198.55,68.436,199.4,68.906,200.8,69.063Z" transform="translate(-133.214 -21.186)" fill="#170a03" fill-rule="evenodd"/>
      <path id="Path_4589" data-name="Path 4589" d="M193.776,69.124a14.674,14.674,0,0,1,5.85,1.29C197.937,69.673,195.315,67.848,193.776,69.124Z" transform="translate(-126.216 -20.784)" fill="#733617" fill-rule="evenodd"/>
      <path id="Path_4590" data-name="Path 4590" d="M194.006,68.775c2.587-.185,2.544,1.34,5.472,1.981C196.714,69.986,196.771,67.991,194.006,68.775Z" transform="translate(-124.807 -21.319)" fill="#944c28" fill-rule="evenodd"/>
      <path id="Path_4591" data-name="Path 4591" d="M198.32,68.823c-2.572-.3-2.615,1.226-5.572,1.739C195.555,69.913,195.591,67.918,198.32,68.823Z" transform="translate(-132.513 -21.345)" fill="#0d0501" fill-rule="evenodd"/>
      <path id="Path_4592" data-name="Path 4592" d="M198.759,69.124a14.681,14.681,0,0,0-5.857,1.29C194.591,69.673,197.22,67.848,198.759,69.124Z" transform="translate(-131.57 -20.784)" fill="#0d0501" fill-rule="evenodd"/>
      <path id="Path_4593" data-name="Path 4593" d="M196.017,70.744l-2.879,5.843c-.941,2.537-1.56,5.978-1.632,11.586,2.964-5.358,5.85-10.532,10.639-10.019C198.6,75.461,197.114,73.808,196.017,70.744Z" transform="translate(-140.121 -8.16)" fill="#d5e6fa" fill-rule="evenodd"/>
      <path id="Path_4594" data-name="Path 4594" d="M210.5,69.685c-3.891,6.484-10.539,11.729-17.372,15.733,3.648,1.682,5.879,5.344,7.1,8.465,8.18-8.287,8.636-8.829,14.486-18.9C213.225,74.331,211.636,72.7,210.5,69.685Z" transform="translate(-130.21 -14.647)" fill="#d5e6fa" fill-rule="evenodd"/>
      <path id="Path_4595" data-name="Path 4595" d="M209.343,71.982l-1.917-.178c-1.988-.228-5.679,1.76-7.731,5.75l2.736,3.741c-2.651,9.662-7.874,11.8-10.239,18.227-1.511,4.09-.271,10.1-1.589,20.365l3.848,3.955,4.874-3.107c4.91-8.522,5.522-16.232,6.363-19.453,1.062-4.04.919-10.589,3.328-19.674a15.118,15.118,0,0,0,4.653-4.332A17.445,17.445,0,0,0,209.343,71.982Z" transform="translate(-145.652 -1.774)" fill="#4f6d91" fill-rule="evenodd"/>
      <path id="Path_4596" data-name="Path 4596" d="M237.076,80.515c-7.375,4.012-10.867,5.893-17.258,8.308-4.746,1.788-7.575,2.045-8.95,2.786-3.591,1.945-8.821,19.7-10.161,24.747-8.636,12.356-13.581,17.13-15.284,26.628-1.518,8.479-1.789,12.769.983,15.84,3.7,4.111,22.3,7.332,29.528,10.382-5.33,19.816-8.465,37.31-11.9,57.5,3.335-.05,9.064-.442,10.624-3.128,6.05-10.4,8.936-30.84,12.142-41.25,1.069,7.8,3.356,42.5,11.095,44.293,6.092,1.411,19.681-1.147,37.559-1.147,10.745,0,19.481.912,19.809,6.384-1.347-23.044-5.387-41.122-10.2-63.646l3.1-17.073,4.888-9.313,3.691-13.41c6.719-12,10.175-31.887,6.641-41.2-3.014-7.952-6.185-5.629-19.916-8.351-5.223-1.04-8.337-2.872-16.888-8.729-2.1,16.8-31.1,30.832-31.944,59.556l-1.625-.42C233.015,112.3,231,96.811,237.076,80.515Z" transform="translate(-184.295 -11.86)" fill="#1b1f26" fill-rule="evenodd"/>
      <path id="Path_4597" data-name="Path 4597" d="M237.076,80.515c-7.375,4.012-10.867,5.893-17.258,8.308-4.746,1.788-7.575,2.045-8.95,2.786-3.591,1.945-8.821,19.7-10.161,24.747-8.636,12.356-13.581,17.13-15.284,26.628-1.518,8.479-1.789,12.769.983,15.84,3.7,4.111,22.3,7.332,29.528,10.382-5.33,19.816-8.465,37.31-11.9,57.5,3.335-.05,9.064-.442,10.624-3.128.356-.613.7-1.268,1.04-1.945-1.838.734-4,3.876-8.857,3.378,3.435-20.194,6.869-37.965,12.491-54.817-5.451-3.613-26.864-9.1-30.562-13.2-2.765-3.071-2.052-2.993-.534-11.465,1.7-9.5,6.05-15.113,14.686-27.476,1.34-5.059,6.57-22.809,10.161-24.747,1.375-.748,4.2-1,8.95-2.793a101.3,101.3,0,0,0,13.845-6.449c.356-1.183.762-2.366,1.2-3.549Zm57.147,148.711a4.352,4.352,0,0,1,1.04,2.636c-.043-.713-.085-1.411-.121-2.109a9.389,9.389,0,0,0-.919-.527ZM271.343,73.346a22.021,22.021,0,0,1-2.544-1.511c-2.1,16.8-31.1,30.825-31.937,59.549l-1.632-.42c0-2.259-.036-4.482-.078-6.7,3.983-25.132,29.464-38.414,31.431-54.126C268.386,71.38,269.947,72.434,271.343,73.346Z" transform="translate(-184.295 -11.86)" fill="#13151a" fill-rule="evenodd"/>
      <path id="Path_4598" data-name="Path 4598" d="M200.841,71.759c-3.263,1.774-6.427,3.556-8.75,4.724l-1.746,4.275,2.444-.143a12.419,12.419,0,0,0-2.922,2.665c-.271,6.826,3.484,32.9,8.387,45.027V123.79C194.742,112.125,196.58,83.174,200.841,71.759Z" transform="translate(-150.24 -1.942)" fill="#13151a" fill-rule="evenodd"/>
      <path id="Path_4599" data-name="Path 4599" d="M201.373,80.194c-3.271,1.774-5.95,3.449-8.28,4.617l-.007.007-2.066,4.8,2.366.285a15.969,15.969,0,0,0-3.214,3.221c-.271,6.826,2.743,27.683,5.43,39.96l4.881.563c5.75-20.721,16.987-33.191,32.828-47.7l-1.332-2.537,4.14.42c2.394-3.52,3.185-4.375,4.126-7.589a108.073,108.073,0,0,1-9.555-6.1c-2.1,16.8-31.1,30.832-31.944,59.556l-1.625-.42C197.119,112.3,195.288,96.49,201.373,80.194Z" transform="translate(-148.399 -11.86)" fill="#1b1f26" fill-rule="evenodd"/>
      <path id="Path_4600" data-name="Path 4600" d="M196.827,75.557c-.663.363-1.3.713-1.91,1.062-4.738,10.852-5.109,35.179-2.052,48.39-.043-16.7-2.045-33.369,3.962-49.452Zm-.891,53.449c2.765-21.662,24.426-42.077,31.645-48.682l-1.332-2.544,4.14.42c2.33-3.413,3.135-4.318,4.04-7.3.428.249.855.484,1.268.705-.941,3.214-1.732,4.069-4.126,7.589l-4.14-.42,1.332,2.537C212.924,95.815,201.686,108.285,195.936,129.006Z" transform="translate(-143.853 -7.223)" fill="#2b323d" fill-rule="evenodd"/>
      <path id="Path_4601" data-name="Path 4601" d="M188.861,105.176l10.054,4.731c2.444-4.511,2.38-8.009,4.653-12.135l5.251-2.4,5.024-2.4c6.669-1.967,12.812-4.874,19.5-5.38,7.111-.534,11.829-1.475,19.168-7.033-7.4,8.764-8.145,7.168-18.854,9.042-5.43.955-11.152,3.52-14.444,5.088-2.038.969-3.007,2.416-6.4,3.655-1.568.577-3.42.67-7.4,1.119-2.1,4.183-2.929,6.776-5.323,12.627Z" transform="translate(-156.323 51.95)" fill="#13151a" fill-rule="evenodd"/>
      <path id="Path_4602" data-name="Path 4602" d="M193.226,82.682c2.879-.121,5.266-.335,8.65-.356s7.738.135,11.608.207l4.653-1.055c-2.865,3.591-14.3,5.116-18.249,8.707-2.451,2.245-4.8.534-8.807.463C191.081,90.649,193.069,82.6,193.226,82.682Z" transform="translate(-142.725 57.592)" fill="#e8a476" fill-rule="evenodd"/>
      <path id="Path_4603" data-name="Path 4603" d="M193.724,81.547l3.627.42a77.673,77.673,0,0,0,.221,10.3c-2.366.057-4.738.021-7.1-.071C191.5,87.247,191.045,85.808,193.724,81.547Z" transform="translate(-146.479 58.015)" fill="#c0d5ed" fill-rule="evenodd"/>
      <path id="Path_4604" data-name="Path 4604" d="M204.233,79.508c-7-1.283-6.563-1.739-10.924,1.781-4.639,3.762-6.349,5.943-5.551,7.489,1.753,3.413,8.964,3.128,12.334,2.651Z" transform="translate(-164.234 39.732)" fill="#e8a476" fill-rule="evenodd"/>
      <path id="Path_4605" data-name="Path 4605" d="M200.585,75.547C198,81.476,199.3,85.53,199.887,91c.57,5.28.114,7.211-1.817,9.313-5.045,5.515-4.332,4.653-11.679,4.86,9.377,3.955,26.272,12.456,36.447,13.9-3.463-1.083-13.2-5.18-16.71-6.285l1.254-2.537c-1.5-1-6.477-.378-10.346-2.4-2.629-1.368-2.273-2.088.029-4.275,2.993-2.865,4.567-4.959,9.135-7.012C199.509,92.057,199.06,80.913,200.585,75.547Z" transform="translate(-171.453 21.261)" fill="#13151a" fill-rule="evenodd"/>
      <path id="Path_4606" data-name="Path 4606" d="M247.535,73.1c13.952-2.095,11.743,15.484,9.213,20.557-2.465,4.952-9.8,29.585-14.543,36.6-11.037,5.266-25.039,5.9-36.234,4.717-5.159-1.382-9.477-3.207-16.852-6.164-.15-4.653,2.316-12.341,5.886-15.669,19.382-.969,18.89-1.511,35.963-8.993,5.2-6.9,8.423-10,10.8-15.306C243.972,83.891,241.086,79.423,247.535,73.1Z" transform="translate(-154.779 5.186)" fill="#1b1f26" fill-rule="evenodd"/>
      <path id="Path_4607" data-name="Path 4607" d="M246.513,72.947c-4.233,7.781-.827,12.242-3.349,17.308-2.473,4.959-6.27,9.128-10.995,16.139-15.99,7.624-19.132,8.43-37.2,8.43-1.817,1.561-3.94,2.743-5.693,7.09,1.055-4.325,2.173-6.57,4.7-8.928,19.382-.969,18.89-1.511,35.963-8.993,5.2-6.9,8.423-10,10.8-15.306C242.95,83.742,240.064,79.275,246.513,72.947Z" transform="translate(-153.757 5.335)" fill="#13151a" fill-rule="evenodd"/>
      <path id="Path_4608" data-name="Path 4608" d="M228.889,225.536c3.085.948,5.016,2.487,5.166,5.009-1.169-19.923-3.57-34.958-7.3-53.221-1.8-8.764-2-17.251.577-26.037,1.012-3.484,3.164-5.366,5.031-10.524,1.311-3.627,1.8-6.8,3.178-13.66,6.719-12,10.175-31.887,6.641-41.2-3.014-7.952-6.185-5.629-19.916-8.351-4.738-.941-7.745-2.537-14.65-7.2l-.085.085c5.009,6.292,8.964,8.423,15.113,9.434,3.584.591,13.61,2.209,14.372,3.6,4.24,7.674,3.484,20.45-.734,31.21-4.047,10.289-10.824,22.2-22.481,29.771-3.456,2.245-7.753,4.361-19.51,5.508,12.406.306,17.023-.663,20.914-3.157,9.641-6.192,9.848-7.8,16.645-15.755-3.378,12.548-4.76,11.679-9.171,19.332l-2.216,16.51A562.135,562.135,0,0,1,228.889,225.536Z" transform="translate(-123.086 -10.543)" fill="#2b323d" fill-rule="evenodd"/>
      <path id="Path_4609" data-name="Path 4609" d="M203.386,119.7l-1.621,4.022-.077,3.319-1.294.1.035-3.277Z" transform="translate(-85.679 291.743)" fill-rule="evenodd"/>
      <path id="Path_4610" data-name="Path 4610" d="M193.541,85.031l-.221-.285-.741-.278q-2.341,5.376-4.724,10.724l2.58,1.261Z" transform="translate(-162.486 75.908)" fill="#13151a" fill-rule="evenodd"/>
      <path id="Path_4611" data-name="Path 4611" d="M221.592,86.2c-9.662-.242-16.652-.534-26.315-.848l-.591,10.3c16.3-.242,21.847-.819,30.312,2.33-9.235-2.024-16.467-1.888-31.053-1.482l.884-12.42c9.8-.385,16.517.392,26.322.705Z" transform="translate(-125.181 72.902)" fill="#13151a" fill-rule="evenodd"/>
      <path id="Path_4612" data-name="Path 4612" d="M190.261,101.738c1.069,7.9,3.363,42.461,11.087,44.25,6.092,1.411,19.681-1.147,37.559-1.147,10.745,0,19.481.912,19.809,6.385-.057-.948-.107-1.881-.171-2.8-8.935-10.567-49.808-1.083-55.594-5.586-7.133-5.544-8.487-22.1-9.841-34.018-1.332-11.7.862-17.65,3.7-25.517C193.3,91.121,191.273,95.752,190.261,101.738Z" transform="translate(-147.747 68.777)" fill="#2b323d" fill-rule="evenodd"/>
    </g>
  </g>
</svg>
