<svg xmlns="http://www.w3.org/2000/svg" width="32.154" height="38" viewBox="0 0 32.154 38">
  <path id="Icon_ionic-md-notifications-outline" data-name="Icon ionic-md-notifications-outline" d="M21.793,9.995a13.205,13.205,0,0,1,2.184.409,9.309,9.309,0,0,1,7.1,9.121V31.182l.851.855.711.715H10.768l.711-.715.851-.855V19.525a9.309,9.309,0,0,1,7.1-9.121,16.171,16.171,0,0,1,2.184-.409m.091-6.62a2.793,2.793,0,0,0-2.837,2.85v1.33a12.315,12.315,0,0,0-9.457,11.97v10.45l-3.783,3.8v1.9H37.779v-1.9L34,29.975V19.525a12.315,12.315,0,0,0-9.457-11.97V6.225A2.793,2.793,0,0,0,21.7,3.375Zm3.783,34.2H17.919a3.783,3.783,0,1,0,7.566,0Z" transform="translate(-5.625 -3.375)" fill="#fff"/>
</svg>
