<svg xmlns="http://www.w3.org/2000/svg" width="18.526" height="18.557" viewBox="0 0 18.526 18.557">
  <path id="Icon_feather-phone-call" data-name="Icon feather-phone-call" d="M13.338,4.644a3.93,3.93,0,0,1,3.105,3.105M13.338,1.5a7.075,7.075,0,0,1,6.249,6.242M18.8,14.015v2.358a1.572,1.572,0,0,1-1.714,1.572A15.557,15.557,0,0,1,10.3,15.532a15.329,15.329,0,0,1-4.717-4.717A15.557,15.557,0,0,1,3.174,4,1.572,1.572,0,0,1,4.739,2.286H7.1A1.572,1.572,0,0,1,8.669,3.638a10.093,10.093,0,0,0,.55,2.209,1.572,1.572,0,0,1-.354,1.659l-1,1a12.578,12.578,0,0,0,4.717,4.717l1-1a1.572,1.572,0,0,1,1.659-.354,10.093,10.093,0,0,0,2.209.55A1.572,1.572,0,0,1,18.8,14.015Z" transform="translate(-2.167 -0.396)" fill="none" stroke="#7d7d7d" stroke-linecap="round" stroke-linejoin="round" stroke-width="2"/>
</svg>
