<svg xmlns="http://www.w3.org/2000/svg" xmlns:xlink="http://www.w3.org/1999/xlink" width="1920" height="1862" viewBox="0 0 1920 1862">
  <defs>
    <clipPath id="clip-path">
      <rect id="Rectangle_66" data-name="Rectangle 66" width="1920" height="1862" transform="translate(0 1058)" fill="#f6f6f6"/>
    </clipPath>
    <linearGradient id="linear-gradient" x1="5.181" y1="6.76" x2="0.097" y2="-0.039" gradientUnits="objectBoundingBox">
      <stop offset="0" stop-color="#52bbe8"/>
      <stop offset="0.196" stop-color="#68c3ea"/>
      <stop offset="0.604" stop-color="#a2d8f1"/>
      <stop offset="1" stop-color="#e1eff8"/>
    </linearGradient>
    <linearGradient id="linear-gradient-2" x1="4.887" y1="6.366" x2="-0.197" y2="-0.432" xlink:href="#linear-gradient"/>
    <linearGradient id="linear-gradient-3" x1="4.593" y1="5.973" x2="-0.491" y2="-0.826" xlink:href="#linear-gradient"/>
    <linearGradient id="linear-gradient-4" x1="4.299" y1="5.579" x2="-0.786" y2="-1.219" xlink:href="#linear-gradient"/>
    <linearGradient id="linear-gradient-5" x1="6.302" y1="5.233" x2="-1.869" y2="-1.566" xlink:href="#linear-gradient"/>
    <linearGradient id="linear-gradient-6" x1="6.112" y1="8.004" x2="1.028" y2="1.206" xlink:href="#linear-gradient"/>
    <linearGradient id="linear-gradient-7" x1="4.641" y1="6.037" x2="-0.443" y2="-0.761" xlink:href="#linear-gradient"/>
    <linearGradient id="linear-gradient-8" x1="4.347" y1="5.643" x2="-0.738" y2="-1.155" xlink:href="#linear-gradient"/>
    <linearGradient id="linear-gradient-9" x1="4.052" y1="5.25" x2="-1.032" y2="-1.548" xlink:href="#linear-gradient"/>
    <linearGradient id="linear-gradient-10" x1="3.758" y1="4.857" x2="-1.326" y2="-1.942" xlink:href="#linear-gradient"/>
    <linearGradient id="linear-gradient-11" x1="25.5" y1="7.11" x2="-15.374" y2="-3.778" xlink:href="#linear-gradient"/>
    <linearGradient id="linear-gradient-12" x1="3.806" y1="4.921" x2="-1.278" y2="-1.878" xlink:href="#linear-gradient"/>
    <linearGradient id="linear-gradient-13" x1="3.512" y1="4.527" x2="-1.572" y2="-2.271" xlink:href="#linear-gradient"/>
    <linearGradient id="linear-gradient-14" x1="5.037" y1="4.181" x2="-3.134" y2="-2.618" xlink:href="#linear-gradient"/>
    <linearGradient id="linear-gradient-15" x1="3.266" y1="4.198" x2="-1.819" y2="-2.601" xlink:href="#linear-gradient"/>
    <linearGradient id="linear-gradient-16" x1="2.971" y1="3.805" x2="-2.113" y2="-2.994" xlink:href="#linear-gradient"/>
    <linearGradient id="linear-gradient-17" x1="19.174" y1="5.425" x2="-21.7" y2="-5.464" xlink:href="#linear-gradient"/>
    <linearGradient id="linear-gradient-18" x1="4.785" y1="6.229" x2="-0.3" y2="-0.569" xlink:href="#linear-gradient"/>
    <linearGradient id="linear-gradient-19" x1="2.725" y1="3.475" x2="-2.359" y2="-3.323" xlink:href="#linear-gradient"/>
    <linearGradient id="linear-gradient-20" x1="3.773" y1="3.128" x2="-4.398" y2="-3.67" xlink:href="#linear-gradient"/>
    <linearGradient id="linear-gradient-21" x1="4.538" y1="5.9" x2="-0.546" y2="-0.899" xlink:href="#linear-gradient"/>
    <linearGradient id="linear-gradient-22" x1="4.244" y1="5.506" x2="-0.84" y2="-1.292" xlink:href="#linear-gradient"/>
    <linearGradient id="linear-gradient-23" x1="3.95" y1="5.113" x2="-1.134" y2="-1.686" xlink:href="#linear-gradient"/>
    <linearGradient id="linear-gradient-24" x1="3.656" y1="4.72" x2="-1.429" y2="-2.079" xlink:href="#linear-gradient"/>
    <linearGradient id="linear-gradient-25" x1="12.848" y1="3.74" x2="-28.026" y2="-7.149" xlink:href="#linear-gradient"/>
    <linearGradient id="linear-gradient-26" x1="3.998" y1="5.177" x2="-1.087" y2="-1.621" xlink:href="#linear-gradient"/>
    <linearGradient id="linear-gradient-27" x1="3.704" y1="4.784" x2="-1.381" y2="-2.015" xlink:href="#linear-gradient"/>
    <linearGradient id="linear-gradient-28" x1="3.409" y1="4.39" x2="-1.675" y2="-2.408" xlink:href="#linear-gradient"/>
    <linearGradient id="linear-gradient-29" x1="3.809" y1="9.047" x2="-1.275" y2="-3.726" xlink:href="#linear-gradient"/>
    <linearGradient id="linear-gradient-30" x1="3.515" y1="8.308" x2="-1.57" y2="-4.465" xlink:href="#linear-gradient"/>
    <linearGradient id="linear-gradient-31" x1="3.22" y1="7.569" x2="-1.864" y2="-5.204" xlink:href="#linear-gradient"/>
    <linearGradient id="linear-gradient-32" x1="2.926" y1="6.83" x2="-2.158" y2="-5.943" xlink:href="#linear-gradient"/>
    <linearGradient id="linear-gradient-33" x1="1.749" y1="3.873" x2="-3.335" y2="-8.9" xlink:href="#linear-gradient"/>
    <linearGradient id="linear-gradient-34" x1="1.455" y1="3.134" x2="-3.629" y2="-9.639" xlink:href="#linear-gradient"/>
    <linearGradient id="linear-gradient-35" x1="4.209" y1="8.838" x2="0.358" y2="-0.043" xlink:href="#linear-gradient"/>
    <linearGradient id="linear-gradient-36" x1="3.919" y1="8.168" x2="0.067" y2="-0.713" xlink:href="#linear-gradient"/>
    <linearGradient id="linear-gradient-37" x1="4.658" y1="7.703" x2="-0.592" y2="-1.178" xlink:href="#linear-gradient"/>
    <linearGradient id="linear-gradient-38" x1="3.72" y1="4.806" x2="-0.131" y2="-0.344" xlink:href="#linear-gradient"/>
    <linearGradient id="linear-gradient-39" x1="3.43" y1="4.418" x2="-0.421" y2="-0.732" xlink:href="#linear-gradient"/>
    <linearGradient id="linear-gradient-40" x1="11.999" y1="5.434" x2="-3.912" y2="-1.506" xlink:href="#linear-gradient"/>
    <linearGradient id="linear-gradient-41" x1="3.187" y1="4.093" x2="-0.665" y2="-1.057" xlink:href="#linear-gradient"/>
    <linearGradient id="linear-gradient-42" x1="3.868" y1="3.737" x2="-1.382" y2="-1.413" xlink:href="#linear-gradient"/>
    <linearGradient id="linear-gradient-43" x1="16.877" y1="7.82" x2="1.275" y2="0.925" xlink:href="#linear-gradient"/>
    <linearGradient id="linear-gradient-44" x1="4.396" y1="5.709" x2="0.545" y2="0.56" xlink:href="#linear-gradient"/>
    <linearGradient id="linear-gradient-45" x1="4.105" y1="5.321" x2="0.254" y2="0.171" xlink:href="#linear-gradient"/>
    <linearGradient id="linear-gradient-46" x1="8.79" y1="4.034" x2="-7.122" y2="-2.906" xlink:href="#linear-gradient"/>
    <linearGradient id="linear-gradient-47" x1="5.348" y1="5.352" x2="0.132" y2="0.202" xlink:href="#linear-gradient"/>
    <linearGradient id="linear-gradient-48" x1="3.862" y1="4.996" x2="0.011" y2="-0.154" xlink:href="#linear-gradient"/>
    <linearGradient id="linear-gradient-49" x1="3.572" y1="4.607" x2="-0.279" y2="-0.542" xlink:href="#linear-gradient"/>
    <linearGradient id="linear-gradient-50" x1="13.73" y1="6.43" x2="-1.872" y2="-0.466" xlink:href="#linear-gradient"/>
    <linearGradient id="linear-gradient-51" x1="3.619" y1="4.671" x2="-0.232" y2="-0.479" xlink:href="#linear-gradient"/>
    <linearGradient id="linear-gradient-52" x1="3.329" y1="4.282" x2="-0.523" y2="-0.867" xlink:href="#linear-gradient"/>
    <linearGradient id="linear-gradient-53" x1="1.876" y1="2.34" x2="-1.975" y2="-2.809" xlink:href="#linear-gradient"/>
    <linearGradient id="linear-gradient-54" x1="13.689" y1="35.854" x2="-5.171" y2="-14.583" xlink:href="#linear-gradient"/>
    <linearGradient id="linear-gradient-55" x1="4.396" y1="4.423" x2="-0.82" y2="-0.909" xlink:href="#linear-gradient"/>
    <linearGradient id="linear-gradient-56" x1="3.085" y1="4.097" x2="-0.766" y2="-1.235" xlink:href="#linear-gradient"/>
    <linearGradient id="linear-gradient-57" x1="2.795" y1="3.695" x2="-1.056" y2="-1.637" xlink:href="#linear-gradient"/>
    <linearGradient id="linear-gradient-58" x1="1.633" y1="2.086" x2="-2.218" y2="-3.245" xlink:href="#linear-gradient"/>
    <linearGradient id="linear-gradient-59" x1="1.75" y1="1.718" x2="-3.5" y2="-3.613" xlink:href="#linear-gradient"/>
    <linearGradient id="linear-gradient-60" x1="3.429" y1="8.333" x2="-15.888" y2="-43.325" xlink:href="#linear-gradient"/>
    <linearGradient id="linear-gradient-61" x1="13.689" y1="35.854" x2="-5.171" y2="-14.583" xlink:href="#linear-gradient"/>
    <linearGradient id="linear-gradient-62" x1="3.217" y1="15.533" x2="-0.993" y2="-6.988" xlink:href="#linear-gradient"/>
    <linearGradient id="linear-gradient-63" x1="2.9" y1="13.834" x2="-1.311" y2="-8.686" xlink:href="#linear-gradient"/>
    <linearGradient id="linear-gradient-64" x1="2.582" y1="12.136" x2="-1.628" y2="-10.385" xlink:href="#linear-gradient"/>
    <linearGradient id="linear-gradient-65" x1="2.264" y1="10.437" x2="-1.946" y2="-12.083" xlink:href="#linear-gradient"/>
    <linearGradient id="linear-gradient-66" x1="1.947" y1="8.739" x2="-2.264" y2="-13.782" xlink:href="#linear-gradient"/>
    <linearGradient id="linear-gradient-67" x1="1.629" y1="7.04" x2="-2.581" y2="-15.48" xlink:href="#linear-gradient"/>
    <linearGradient id="linear-gradient-68" x1="1.312" y1="5.342" x2="-2.899" y2="-17.179" xlink:href="#linear-gradient"/>
    <linearGradient id="linear-gradient-69" x1="3.429" y1="8.333" x2="-15.887" y2="-43.325" xlink:href="#linear-gradient"/>
    <linearGradient id="linear-gradient-70" x1="78.641" y1="121.15" x2="7.646" y2="11.534" xlink:href="#linear-gradient"/>
    <linearGradient id="linear-gradient-71" x1="432.861" y1="669.299" x2="13.184" y2="20.12" xlink:href="#linear-gradient"/>
    <linearGradient id="linear-gradient-72" x1="36.625" y1="56.276" x2="-0.407" y2="-0.901" xlink:href="#linear-gradient"/>
    <linearGradient id="linear-gradient-73" x1="55.155" y1="84.887" x2="-4.002" y2="-6.45" xlink:href="#linear-gradient"/>
    <linearGradient id="linear-gradient-74" x1="57.668" y1="88.767" x2="-8.105" y2="-12.785" xlink:href="#linear-gradient"/>
    <linearGradient id="linear-gradient-75" x1="124.611" y1="192.126" x2="-3.029" y2="-4.949" xlink:href="#linear-gradient"/>
    <linearGradient id="linear-gradient-76" x1="59.739" y1="91.965" x2="-4.818" y2="-7.711" xlink:href="#linear-gradient"/>
    <linearGradient id="linear-gradient-77" x1="32.338" y1="49.657" x2="-4.425" y2="-7.104" xlink:href="#linear-gradient"/>
    <linearGradient id="linear-gradient-78" x1="80.233" y1="123.655" x2="-6.956" y2="-11.017" xlink:href="#linear-gradient"/>
    <linearGradient id="linear-gradient-79" x1="41.192" y1="63.316" x2="-6.138" y2="-9.747" xlink:href="#linear-gradient"/>
    <linearGradient id="linear-gradient-80" x1="32.542" y1="49.972" x2="-7.106" y2="-11.243" xlink:href="#linear-gradient"/>
    <linearGradient id="linear-gradient-81" x1="65.504" y1="100.865" x2="-10.381" y2="-16.3" xlink:href="#linear-gradient"/>
    <linearGradient id="linear-gradient-82" x1="53.394" y1="82.168" x2="-12.568" y2="-19.677" xlink:href="#linear-gradient"/>
    <linearGradient id="linear-gradient-83" x1="69.917" y1="107.68" x2="-22.603" y2="-35.171" xlink:href="#linear-gradient"/>
    <linearGradient id="linear-gradient-84" x1="78.87" y1="121.504" x2="-19.247" y2="-29.99" xlink:href="#linear-gradient"/>
    <linearGradient id="linear-gradient-85" x1="46.857" y1="72.075" x2="-15.45" y2="-24.127" xlink:href="#linear-gradient"/>
    <linearGradient id="linear-gradient-86" x1="38.487" y1="59.151" x2="-16.374" y2="-25.553" xlink:href="#linear-gradient"/>
    <linearGradient id="linear-gradient-87" x1="48.878" y1="75.217" x2="-16.421" y2="-25.634" xlink:href="#linear-gradient"/>
    <linearGradient id="linear-gradient-88" x1="58.925" y1="90.686" x2="3.399" y2="4.975" xlink:href="#linear-gradient"/>
    <linearGradient id="linear-gradient-89" x1="98.132" y1="151.243" x2="9.932" y2="15.064" xlink:href="#linear-gradient"/>
    <linearGradient id="linear-gradient-90" x1="135.182" y1="208.45" x2="18.93" y2="28.956" xlink:href="#linear-gradient"/>
    <linearGradient id="linear-gradient-91" x1="44.373" y1="68.24" x2="6.401" y2="9.611" xlink:href="#linear-gradient"/>
    <linearGradient id="linear-gradient-92" x1="47.891" y1="73.672" x2="2.717" y2="3.923" xlink:href="#linear-gradient"/>
    <linearGradient id="linear-gradient-93" x1="40.532" y1="62.31" x2="-8.432" y2="-13.29" xlink:href="#linear-gradient"/>
    <linearGradient id="linear-gradient-94" x1="78.189" y1="120.453" x2="-17.569" y2="-27.399" xlink:href="#linear-gradient"/>
    <linearGradient id="linear-gradient-95" x1="39.702" y1="61.042" x2="-11.899" y2="-18.648" xlink:href="#linear-gradient"/>
    <linearGradient id="linear-gradient-96" x1="58.143" y1="89.501" x2="-23.622" y2="-36.744" xlink:href="#linear-gradient"/>
    <linearGradient id="linear-gradient-97" x1="26.826" y1="41.147" x2="-8.115" y2="-12.802" xlink:href="#linear-gradient"/>
    <linearGradient id="linear-gradient-98" x1="33.271" y1="51.098" x2="-13.843" y2="-21.646" xlink:href="#linear-gradient"/>
    <linearGradient id="linear-gradient-99" x1="28.354" y1="43.507" x2="-18.917" y2="-29.48" xlink:href="#linear-gradient"/>
    <linearGradient id="linear-gradient-100" x1="26.319" y1="40.364" x2="-13.774" y2="-21.539" xlink:href="#linear-gradient"/>
    <linearGradient id="linear-gradient-101" x1="28.608" y1="43.907" x2="-15.47" y2="-24.162" xlink:href="#linear-gradient"/>
    <linearGradient id="linear-gradient-102" x1="47.4" y1="72.895" x2="-14.079" y2="-22.005" xlink:href="#linear-gradient"/>
    <linearGradient id="linear-gradient-103" x1="54.012" y1="83.123" x2="-22.233" y2="-34.6" xlink:href="#linear-gradient"/>
    <linearGradient id="linear-gradient-104" x1="46.543" y1="71.613" x2="-24.608" y2="-38.279" xlink:href="#linear-gradient"/>
    <linearGradient id="linear-gradient-105" x1="35.194" y1="54.067" x2="-36.647" y2="-56.855" xlink:href="#linear-gradient"/>
    <linearGradient id="linear-gradient-106" x1="30.172" y1="46.303" x2="-25.016" y2="-38.887" xlink:href="#linear-gradient"/>
    <linearGradient id="linear-gradient-107" x1="34.319" y1="52.717" x2="-23.383" y2="-36.375" xlink:href="#linear-gradient"/>
    <linearGradient id="linear-gradient-108" x1="44.011" y1="67.667" x2="-4.472" y2="-7.175" xlink:href="#linear-gradient"/>
    <linearGradient id="linear-gradient-109" x1="526.265" y1="812.265" x2="-25.905" y2="-40.268" xlink:href="#linear-gradient"/>
    <linearGradient id="linear-gradient-110" x1="61.534" y1="94.736" x2="0.729" y2="0.854" xlink:href="#linear-gradient"/>
    <linearGradient id="linear-gradient-111" x1="71.077" y1="109.47" x2="0.544" y2="0.568" xlink:href="#linear-gradient"/>
    <linearGradient id="linear-gradient-112" x1="65.961" y1="101.571" x2="-12.008" y2="-18.812" xlink:href="#linear-gradient"/>
    <linearGradient id="linear-gradient-113" x1="31.712" y1="48.691" x2="-16.057" y2="-25.064" xlink:href="#linear-gradient"/>
    <linearGradient id="linear-gradient-114" x1="28.043" y1="43.018" x2="-17.964" y2="-28.003" xlink:href="#linear-gradient"/>
    <linearGradient id="linear-gradient-115" x1="37.982" y1="58.372" x2="-38.146" y2="-59.17" xlink:href="#linear-gradient"/>
    <linearGradient id="linear-gradient-116" x1="32.483" y1="49.881" x2="-25.978" y2="-40.382" xlink:href="#linear-gradient"/>
    <linearGradient id="linear-gradient-117" x1="33.128" y1="50.878" x2="-21.661" y2="-33.716" xlink:href="#linear-gradient"/>
    <linearGradient id="linear-gradient-118" x1="19.37" y1="29.635" x2="-19.202" y2="-29.92" xlink:href="#linear-gradient"/>
    <linearGradient id="linear-gradient-119" x1="30.168" y1="46.321" x2="-38.116" y2="-59.141" xlink:href="#linear-gradient"/>
    <linearGradient id="linear-gradient-120" x1="21.583" y1="33.051" x2="-17.402" y2="-27.14" xlink:href="#linear-gradient"/>
    <linearGradient id="linear-gradient-121" x1="37.571" y1="57.738" x2="-48.374" y2="-74.961" xlink:href="#linear-gradient"/>
    <linearGradient id="linear-gradient-122" x1="36.311" y1="55.792" x2="-3.732" y2="-6.035" xlink:href="#linear-gradient"/>
    <linearGradient id="linear-gradient-123" x1="37.642" y1="57.847" x2="-9.493" y2="-14.929" xlink:href="#linear-gradient"/>
    <linearGradient id="linear-gradient-124" x1="72.952" y1="112.414" x2="-26.281" y2="-40.868" xlink:href="#linear-gradient"/>
    <linearGradient id="linear-gradient-125" x1="35.138" y1="53.969" x2="-16.148" y2="-25.198" xlink:href="#linear-gradient"/>
    <linearGradient id="linear-gradient-126" x1="36.195" y1="55.613" x2="-16.903" y2="-26.37" xlink:href="#linear-gradient"/>
    <linearGradient id="linear-gradient-127" x1="28.513" y1="43.743" x2="-16.851" y2="-26.284" xlink:href="#linear-gradient"/>
    <linearGradient id="linear-gradient-128" x1="58.949" y1="90.746" x2="-19.751" y2="-30.767" xlink:href="#linear-gradient"/>
    <linearGradient id="linear-gradient-129" x1="79.102" y1="121.861" x2="-19.469" y2="-30.332" xlink:href="#linear-gradient"/>
    <linearGradient id="linear-gradient-130" x1="177.022" y1="273.052" x2="-30.895" y2="-47.974" xlink:href="#linear-gradient"/>
    <linearGradient id="linear-gradient-131" x1="42.979" y1="66.088" x2="-7.241" y2="-11.452" xlink:href="#linear-gradient"/>
    <linearGradient id="linear-gradient-132" x1="45.564" y1="70.098" x2="-15.371" y2="-24.011" xlink:href="#linear-gradient"/>
    <linearGradient id="linear-gradient-133" x1="70.775" y1="109.004" x2="-18.053" y2="-28.146" xlink:href="#linear-gradient"/>
    <linearGradient id="linear-gradient-134" x1="80.042" y1="123.372" x2="-28.435" y2="-44.197" xlink:href="#linear-gradient"/>
    <linearGradient id="linear-gradient-135" x1="40.927" y1="62.919" x2="-23.556" y2="-36.642" xlink:href="#linear-gradient"/>
    <linearGradient id="linear-gradient-136" x1="31.009" y1="47.605" x2="-13.747" y2="-21.497" xlink:href="#linear-gradient"/>
    <linearGradient id="linear-gradient-137" x1="23.978" y1="36.749" x2="-17.507" y2="-27.303" xlink:href="#linear-gradient"/>
    <linearGradient id="linear-gradient-138" x1="28.453" y1="43.66" x2="-54.35" y2="-84.189" xlink:href="#linear-gradient"/>
    <linearGradient id="linear-gradient-139" x1="31.753" y1="48.769" x2="-39.153" y2="-60.744" xlink:href="#linear-gradient"/>
    <linearGradient id="linear-gradient-140" x1="14.521" y1="22.145" x2="-21.8" y2="-33.926" xlink:href="#linear-gradient"/>
    <linearGradient id="linear-gradient-141" x1="26.069" y1="39.989" x2="-40.709" y2="-63.145" xlink:href="#linear-gradient"/>
    <linearGradient id="linear-gradient-142" x1="15.135" y1="23.092" x2="-29.462" y2="-45.752" xlink:href="#linear-gradient"/>
    <linearGradient id="linear-gradient-143" x1="9.747" y1="14.777" x2="-23.686" y2="-36.844" xlink:href="#linear-gradient"/>
    <linearGradient id="linear-gradient-144" x1="46.637" y1="71.735" x2="-20.735" y2="-32.286" xlink:href="#linear-gradient"/>
    <linearGradient id="linear-gradient-145" x1="26.569" y1="40.75" x2="-14.6" y2="-22.814" xlink:href="#linear-gradient"/>
    <linearGradient id="linear-gradient-146" x1="25.086" y1="38.461" x2="-14.327" y2="-22.393" xlink:href="#linear-gradient"/>
    <linearGradient id="linear-gradient-147" x1="61.479" y1="94.652" x2="-45.677" y2="-70.796" xlink:href="#linear-gradient"/>
    <linearGradient id="linear-gradient-148" x1="25.221" y1="38.669" x2="-28.201" y2="-43.814" xlink:href="#linear-gradient"/>
    <linearGradient id="linear-gradient-149" x1="18.585" y1="28.423" x2="-16.363" y2="-25.536" xlink:href="#linear-gradient"/>
    <linearGradient id="linear-gradient-150" x1="18.097" y1="27.67" x2="-43.432" y2="-67.331" xlink:href="#linear-gradient"/>
    <linearGradient id="linear-gradient-151" x1="13.709" y1="20.894" x2="-33.513" y2="-52.016" xlink:href="#linear-gradient"/>
    <linearGradient id="linear-gradient-152" x1="11.286" y1="17.157" x2="-35.995" y2="-55.86" xlink:href="#linear-gradient"/>
    <linearGradient id="linear-gradient-153" x1="185.723" y1="286.48" x2="-81.078" y2="-125.453" xlink:href="#linear-gradient"/>
    <linearGradient id="linear-gradient-154" x1="57.126" y1="87.93" x2="-24.81" y2="-38.579" xlink:href="#linear-gradient"/>
    <linearGradient id="linear-gradient-155" x1="20.919" y1="32.031" x2="-11.168" y2="-17.517" xlink:href="#linear-gradient"/>
    <linearGradient id="linear-gradient-156" x1="31.238" y1="47.96" x2="-21.897" y2="-34.08" xlink:href="#linear-gradient"/>
    <linearGradient id="linear-gradient-157" x1="27.357" y1="41.967" x2="-19.322" y2="-30.105" xlink:href="#linear-gradient"/>
    <linearGradient id="linear-gradient-158" x1="21.748" y1="33.308" x2="-19.065" y2="-29.708" xlink:href="#linear-gradient"/>
    <linearGradient id="linear-gradient-159" x1="17.685" y1="27.034" x2="-41.751" y2="-64.736" xlink:href="#linear-gradient"/>
    <linearGradient id="linear-gradient-160" x1="12.925" y1="19.684" x2="-40.801" y2="-63.269" xlink:href="#linear-gradient"/>
  </defs>
  <g id="Section2-bg" transform="translate(0 -1058)">
    <rect id="Rectangle_192" data-name="Rectangle 192" width="1919" height="1862" transform="translate(1 1058)" fill="#f3f3f3"/>
    <g id="Mask_Group_18" data-name="Mask Group 18" opacity="0.28" clip-path="url(#clip-path)" style="mix-blend-mode: multiply;isolation: isolate">
      <g id="Group_325" data-name="Group 325" transform="translate(511.271 1162.109)" style="mix-blend-mode: multiply;isolation: isolate">
        <g id="Group_324" data-name="Group 324" transform="translate(-839.35 -127.109)">
          <g id="Group_288" data-name="Group 288" transform="translate(155.067 230.772)">
            <g id="Group_254" data-name="Group 254" transform="translate(1119.011)">
              <path id="Path_3495" data-name="Path 3495" d="M-106.666,202.544l-.269-.157-124.607-71.94V-13.75l.268-.157,124.607-71.94.268.157L18.209-13.75v144.2l-.268.157Zm-123.8-72.723,123.8,71.47,123.8-71.47V-13.123l-123.8-71.47-123.8,71.47Z" transform="translate(231.541 85.846)" fill="url(#linear-gradient)"/>
            </g>
            <g id="Group_255" data-name="Group 255" transform="translate(1367.682)">
              <path id="Path_3496" data-name="Path 3496" d="M-62.2,202.544l-.268-.157-124.607-71.94V-13.75l.268-.157L-62.2-85.846l.269.157L62.672-13.75v144.2l-.268.157ZM-186,129.822l123.8,71.47,123.8-71.47V-13.123L-62.2-84.593-186-13.123Z" transform="translate(187.078 85.846)" fill="url(#linear-gradient-2)"/>
            </g>
            <g id="Group_256" data-name="Group 256" transform="translate(1616.353)">
              <path id="Path_3497" data-name="Path 3497" d="M-17.74,202.544l-.268-.157-124.607-71.94V-13.75l.269-.157L-17.74-85.846l.268.157L107.135-13.75v144.2l-.268.157Zm-123.8-72.723,123.8,71.47,123.8-71.47V-13.123l-123.8-71.47-123.8,71.47Z" transform="translate(142.615 85.846)" fill="url(#linear-gradient-3)"/>
            </g>
            <g id="Group_257" data-name="Group 257" transform="translate(1865.023)">
              <path id="Path_3498" data-name="Path 3498" d="M26.723,202.544l-.268-.157-124.607-71.94V-13.75l.268-.157L26.723-85.846l.268.157,124.6,71.94v144.2l-.268.157Zm-123.8-72.723,123.8,71.47,123.79-71.47V-13.123L26.723-84.593l-123.8,71.47Z" transform="translate(98.152 85.846)" fill="url(#linear-gradient-4)"/>
            </g>
            <g id="Group_258" data-name="Group 258" transform="translate(2113.689 0.001)">
              <path id="Path_3499" data-name="Path 3499" d="M101.712,183.669,71.185,201.292l-123.8-71.472V-13.125L71.185-84.6l30.526,17.623v-1.248L71.456-85.689l-.271-.157-124.6,71.94-.27.156V130.445l124.6,71.94.27.156,30.526-17.624Z" transform="translate(53.69 85.846)" fill="url(#linear-gradient-5)"/>
            </g>
            <g id="Group_259" data-name="Group 259" transform="translate(0.002 215.355)">
              <path id="Path_3500" data-name="Path 3500" d="M-306.748,241.05l-.268-.157-124.607-71.94V24.756l.268-.157,124.607-71.94.268.157,124.607,71.94v144.2l-.269.151Zm-123.8-72.723,123.8,71.47,123.8-71.47V25.383l-123.8-71.475-123.8,71.475Z" transform="translate(431.623 47.34)" fill="url(#linear-gradient-6)"/>
            </g>
            <g id="Group_260" data-name="Group 260" transform="translate(1243.349 215.355)">
              <path id="Path_3501" data-name="Path 3501" d="M-84.434,241.05l-.274-.157-124.6-71.94V24.756l.269-.157L-84.434-47.34l.268.157L40.441,24.756v144.2l-.274.151Zm-123.8-72.723,123.8,71.47,123.8-71.47V25.383l-123.8-71.475-123.8,71.475Z" transform="translate(209.309 47.34)" fill="url(#linear-gradient-7)"/>
            </g>
            <g id="Group_261" data-name="Group 261" transform="translate(1492.02 215.355)">
              <path id="Path_3502" data-name="Path 3502" d="M-39.971,241.05l-.274-.157-124.6-71.94V24.756l.268-.157L-39.971-47.34l.268.157L84.9,24.756v144.2l-.274.151Zm-123.8-72.723,123.8,71.47,123.8-71.47V25.383l-123.8-71.475-123.8,71.475Z" transform="translate(164.846 47.34)" fill="url(#linear-gradient-8)"/>
            </g>
            <g id="Group_262" data-name="Group 262" transform="translate(1740.691 215.355)">
              <path id="Path_3503" data-name="Path 3503" d="M4.492,241.05l-.274-.157-124.6-71.94V24.756l.268-.157L4.492-47.34l.268.157,124.607,71.94v144.2l-.274.151Zm-123.8-72.723L4.492,239.8l123.8-71.47V25.383L4.492-46.093-119.3,25.383Z" transform="translate(120.383 47.34)" fill="url(#linear-gradient-9)"/>
            </g>
            <g id="Group_263" data-name="Group 263" transform="translate(1989.361 215.355)">
              <path id="Path_3504" data-name="Path 3504" d="M48.949,241.05l-.274-.157-124.6-71.94V24.756l.268-.157,124.6-71.94.268.157,124.607,71.94v144.2l-.274.151Zm-123.79-72.723L48.949,239.8l123.8-71.47V25.383L48.949-46.093-74.841,25.383Z" transform="translate(75.92 47.34)" fill="url(#linear-gradient-10)"/>
            </g>
            <g id="Group_264" data-name="Group 264" transform="translate(2238.025 269.516)">
              <path id="Path_3505" data-name="Path 3505" d="M-.392,141.162-30.378,123.85V-19.1L-.392-36.408v-1.248l-30.8,17.78-.27.156V124.474L-.392,142.41Z" transform="translate(31.458 37.656)" fill="url(#linear-gradient-11)"/>
            </g>
            <g id="Group_265" data-name="Group 265" transform="translate(1616.353 430.709)">
              <path id="Path_3506" data-name="Path 3506" d="M-17.74,279.556l-.268-.157-124.607-71.94V63.262l.269-.157L-17.74-8.834l.268.157,124.607,71.94v144.2l-.268.151Zm-123.8-72.723,123.8,71.47,123.8-71.47V63.889L-17.74-7.587l-123.8,71.475Z" transform="translate(142.615 8.834)" fill="url(#linear-gradient-12)"/>
            </g>
            <g id="Group_266" data-name="Group 266" transform="translate(1865.023 430.709)">
              <path id="Path_3507" data-name="Path 3507" d="M26.723,279.556l-.268-.157L-98.152,207.46V63.262l.268-.157L26.723-8.834l.268.157,124.6,71.94v144.2l-.268.151Zm-123.8-72.723,123.8,71.47,123.79-71.47V63.889L26.723-7.587l-123.8,71.475Z" transform="translate(98.152 8.834)" fill="url(#linear-gradient-13)"/>
            </g>
            <g id="Group_267" data-name="Group 267" transform="translate(2113.689 430.71)">
              <path id="Path_3508" data-name="Path 3508" d="M101.712,260.681,71.185,278.3l-123.8-71.471V63.887L71.185-7.585l30.526,17.623V8.791L71.456-8.678l-.271-.156-124.6,71.94-.27.156V207.456l124.6,71.94.27.157,30.526-17.624Z" transform="translate(53.69 8.834)" fill="url(#linear-gradient-14)"/>
            </g>
            <g id="Group_268" data-name="Group 268" transform="translate(1740.691 646.064)">
              <path id="Path_3509" data-name="Path 3509" d="M4.492,318.057l-.274-.151-124.6-71.945V101.768l.268-.157L4.492,29.672l.268.157,124.607,71.94V245.961l-.274.157ZM-119.3,245.34l123.8,71.47,123.8-71.47V102.395L4.492,30.919l-123.8,71.475Z" transform="translate(120.383 -29.672)" fill="url(#linear-gradient-15)"/>
            </g>
            <g id="Group_269" data-name="Group 269" transform="translate(1989.361 646.064)">
              <path id="Path_3510" data-name="Path 3510" d="M48.949,318.057l-.274-.151-124.6-71.945V101.768l.268-.157,124.6-71.94.268.157,124.607,71.94V245.961l-.274.157ZM-74.841,245.34l123.79,71.47,123.8-71.47V102.395L48.949,30.919l-123.79,71.475Z" transform="translate(75.92 -29.672)" fill="url(#linear-gradient-16)"/>
            </g>
            <g id="Group_270" data-name="Group 270" transform="translate(2238.025 700.225)">
              <path id="Path_3511" data-name="Path 3511" d="M-.392,218.174l-29.986-17.312V57.916L-.392,40.6V39.356l-30.8,17.78-.27.155V201.486L-.392,219.422Z" transform="translate(31.458 -39.356)" fill="url(#linear-gradient-17)"/>
            </g>
            <g id="Group_271" data-name="Group 271" transform="translate(124.334 861.419)">
              <path id="Path_3512" data-name="Path 3512" d="M-284.517,356.563l-.269-.157-124.607-71.94V140.274l.274-.157,124.6-71.94.274.157,124.6,71.94V284.467l-.268.157Zm-123.8-72.717,123.8,71.47,123.79-71.47V140.9l-123.79-71.475-123.8,71.475Z" transform="translate(409.392 -68.178)" fill="url(#linear-gradient-18)"/>
            </g>
            <g id="Group_272" data-name="Group 272" transform="translate(1865.023 861.419)">
              <path id="Path_3513" data-name="Path 3513" d="M26.723,356.563l-.268-.157-124.607-71.94V140.274l.268-.157L26.723,68.178l.268.157,124.6,71.94V284.467l-.268.157Zm-123.8-72.717,123.8,71.47,123.79-71.47V140.9L26.723,69.425-97.073,140.9Z" transform="translate(98.152 -68.178)" fill="url(#linear-gradient-19)"/>
            </g>
            <g id="Group_273" data-name="Group 273" transform="translate(2113.689 861.419)">
              <path id="Path_3514" data-name="Path 3514" d="M101.712,337.692,71.185,355.316l-123.8-71.472V140.9l123.8-71.472L101.712,87.05V85.8L71.456,68.334l-.271-.156-124.6,71.94-.27.156V284.468l124.6,71.94.27.156,30.526-17.624Z" transform="translate(53.69 -68.178)" fill="url(#linear-gradient-20)"/>
            </g>
            <g id="Group_274" data-name="Group 274" transform="translate(0.002 1076.773)">
              <path id="Path_3515" data-name="Path 3515" d="M-306.748,395.069l-.268-.157-124.607-71.94V178.78l.268-.157,124.607-71.94.268.157,124.607,71.94V322.973l-.269.157Zm-123.8-72.717,123.8,71.47,123.8-71.47V179.407l-123.8-71.475-123.8,71.475Z" transform="translate(431.623 -106.684)" fill="url(#linear-gradient-21)"/>
            </g>
            <g id="Group_275" data-name="Group 275" transform="translate(248.672 1076.773)">
              <path id="Path_3516" data-name="Path 3516" d="M-262.291,395.069l-.268-.157-124.6-71.94V178.78l.269-.157,124.6-71.94.269.157,124.607,71.94V322.973l-.268.157Zm-123.79-72.717,123.79,71.47,123.8-71.47V179.407l-123.8-71.475-123.79,71.475Z" transform="translate(387.16 -106.684)" fill="url(#linear-gradient-22)"/>
            </g>
            <g id="Group_276" data-name="Group 276" transform="translate(497.337 1076.773)">
              <path id="Path_3517" data-name="Path 3517" d="M-217.823,395.069l-.268-.157L-342.7,322.973V178.78l.268-.157,124.607-71.94.269.157,124.606,71.94V322.973l-.268.157Zm-123.8-72.717,123.8,71.47,123.8-71.47V179.407l-123.8-71.475-123.8,71.475Z" transform="translate(342.698 -106.684)" fill="url(#linear-gradient-23)"/>
            </g>
            <g id="Group_277" data-name="Group 277" transform="translate(746.008 1076.773)">
              <path id="Path_3518" data-name="Path 3518" d="M-173.36,395.069l-.268-.157-124.607-71.94V178.78l.268-.157,124.607-71.94.268.157,124.607,71.94V322.973l-.269.157Zm-123.8-72.717,123.8,71.47,123.8-71.47V179.407l-123.8-71.475-123.8,71.475Z" transform="translate(298.235 -106.684)" fill="url(#linear-gradient-24)"/>
            </g>
            <g id="Group_278" data-name="Group 278" transform="translate(2238.025 1130.933)">
              <path id="Path_3519" data-name="Path 3519" d="M-.392,295.186l-29.986-17.312V134.928L-.392,117.616v-1.248l-30.8,17.78-.27.156V278.5L-.392,296.434Z" transform="translate(31.458 -116.368)" fill="url(#linear-gradient-25)"/>
            </g>
            <g id="Group_279" data-name="Group 279" transform="translate(124.334 1292.128)">
              <path id="Path_3520" data-name="Path 3520" d="M-284.517,433.575l-.269-.157-124.607-71.94V217.286l.274-.157,124.6-71.94.274.157,124.6,71.939V361.479l-.268.157Zm-123.8-72.717,123.8,71.47,123.79-71.47V217.907l-123.79-71.47-123.8,71.47Z" transform="translate(409.392 -145.19)" fill="url(#linear-gradient-26)"/>
            </g>
            <g id="Group_280" data-name="Group 280" transform="translate(372.999 1292.128)">
              <path id="Path_3521" data-name="Path 3521" d="M-240.055,433.575l-.268-.157-124.606-71.94V217.286l.274-.157,124.6-71.94.274.157,124.6,71.939V361.479l-.268.157Zm-123.8-72.717,123.8,71.47,123.8-71.47V217.907l-123.8-71.47-123.8,71.47Z" transform="translate(364.93 -145.19)" fill="url(#linear-gradient-27)"/>
            </g>
            <g id="Group_281" data-name="Group 281" transform="translate(621.67 1292.128)">
              <path id="Path_3522" data-name="Path 3522" d="M-195.592,433.575l-.268-.157-124.607-71.94V217.286l.274-.157,124.6-71.94.274.157,124.6,71.939V361.479l-.268.157Zm-123.8-72.717,123.8,71.47,123.8-71.47V217.907l-123.8-71.47-123.8,71.47Z" transform="translate(320.467 -145.19)" fill="url(#linear-gradient-28)"/>
            </g>
            <g id="Group_282" data-name="Group 282" transform="translate(0 1507.481)">
              <path id="Path_3523" data-name="Path 3523" d="M-430.543,337.192V256.416l123.8-71.472,123.795,71.472v80.776h1.08v-81.4l-124.606-71.94-.268-.156-124.607,71.94-.27.156v81.4Z" transform="translate(431.623 -183.696)" fill="url(#linear-gradient-29)"/>
            </g>
            <g id="Group_283" data-name="Group 283" transform="translate(248.671 1507.481)">
              <path id="Path_3524" data-name="Path 3524" d="M-386.08,337.192V256.416l123.79-71.472,123.8,71.472v80.776h1.079v-81.4l-124.6-71.94-.271-.156-124.6,71.94-.27.156v81.4Z" transform="translate(387.16 -183.696)" fill="url(#linear-gradient-30)"/>
            </g>
            <g id="Group_284" data-name="Group 284" transform="translate(497.337 1507.481)">
              <path id="Path_3525" data-name="Path 3525" d="M-341.619,337.192V256.416l123.8-71.472,123.8,71.472v80.776h1.078v-81.4l-124.605-71.94-.27-.156-124.6,71.94-.27.156v81.4Z" transform="translate(342.698 -183.696)" fill="url(#linear-gradient-31)"/>
            </g>
            <g id="Group_285" data-name="Group 285" transform="translate(746.008 1507.481)">
              <path id="Path_3526" data-name="Path 3526" d="M-297.157,337.192V256.416l123.8-71.472,123.8,71.472v80.776h1.079v-81.4l-124.6-71.94-.27-.156-124.605,71.94-.27.156v81.4Z" transform="translate(298.235 -183.696)" fill="url(#linear-gradient-32)"/>
            </g>
            <g id="Group_286" data-name="Group 286" transform="translate(1740.688 1507.481)">
              <path id="Path_3527" data-name="Path 3527" d="M-119.3,337.192V256.416l123.8-71.472,123.794,71.472v80.776h1.08v-81.4l-124.6-71.94-.27-.156-124.606,71.94-.27.156v81.4Z" transform="translate(120.383 -183.696)" fill="url(#linear-gradient-33)"/>
            </g>
            <g id="Group_287" data-name="Group 287" transform="translate(1989.358 1507.481)">
              <path id="Path_3528" data-name="Path 3528" d="M-74.841,337.192V256.416L48.95,184.944l123.8,71.472v80.776h1.08v-81.4l-124.6-71.94-.271-.156-124.6,71.94-.27.156v81.4Z" transform="translate(75.921 -183.696)" fill="url(#linear-gradient-34)"/>
            </g>
          </g>
          <g id="Group_322" data-name="Group 322">
            <g id="Group_289" data-name="Group 289" transform="translate(1534.145)">
              <path id="Path_3529" data-name="Path 3529" d="M139.045-127.109V-4.785L-20.183,87.145-179.411-4.785V-127.109h-5.629V-1.536L-20.183,93.642,144.674-1.536V-127.109Z" transform="translate(185.04 127.109)" fill="url(#linear-gradient-35)"/>
            </g>
            <g id="Group_290" data-name="Group 290" transform="translate(1858.23)">
              <path id="Path_3530" data-name="Path 3530" d="M196.992-127.109V-4.785L37.765,87.145-121.464-4.785V-127.109h-5.629V-1.536L37.765,93.642,202.622-1.536V-127.109Z" transform="translate(127.093 127.109)" fill="url(#linear-gradient-36)"/>
            </g>
            <g id="Group_291" data-name="Group 291" transform="translate(2182.315)">
              <path id="Path_3531" data-name="Path 3531" d="M-63.516-4.785V-127.109h-5.63V-1.536L95.707,93.642l76.99-44.45v-6.5l-76.99,44.45Z" transform="translate(69.146 127.109)" fill="url(#linear-gradient-37)"/>
            </g>
            <g id="Group_292" data-name="Group 292" transform="translate(1696.186 120.701)">
              <path id="Path_3532" data-name="Path 3532" d="M8.791,275.189l-164.858-95.177V-10.349L8.791-105.527,173.648-10.349V180.011Zm-159.226-98.427L8.791,268.69l159.231-91.928V-7.1L8.791-99.028-150.435-7.1Z" transform="translate(156.067 105.527)" fill="url(#linear-gradient-38)"/>
            </g>
            <g id="Group_293" data-name="Group 293" transform="translate(2020.275 120.701)">
              <path id="Path_3533" data-name="Path 3533" d="M66.739,275.189-98.119,180.011V-10.349L66.739-105.527,231.585-10.349V180.011ZM-92.493,176.762,66.739,268.69l159.22-91.928V-7.1L66.739-99.028-92.493-7.1Z" transform="translate(98.119 105.527)" fill="url(#linear-gradient-39)"/>
            </g>
            <g id="Group_294" data-name="Group 294" transform="translate(2344.354 169.803)">
              <path id="Path_3534" data-name="Path 3534" d="M39.631,179.264l-74.176-42.825V-47.424L39.631-90.249v-6.5l-79.8,46.074v190.36l79.8,46.074Z" transform="translate(40.173 96.747)" fill="url(#linear-gradient-40)"/>
            </g>
            <g id="Group_295" data-name="Group 295" transform="translate(1858.231 401.367)">
              <path id="Path_3535" data-name="Path 3535" d="M37.765,325.373-127.093,230.2V39.835L37.765-55.343,202.622,39.835V230.2Zm-159.231-98.427L37.765,318.874,196.99,226.946V43.084L37.765-48.85-121.467,43.084Z" transform="translate(127.093 55.343)" fill="url(#linear-gradient-41)"/>
            </g>
            <g id="Group_296" data-name="Group 296" transform="translate(2182.315 401.365)">
              <path id="Path_3536" data-name="Path 3536" d="M172.7,274.426l-76.99,44.45-159.223-91.93V43.083L95.707-48.846,172.7-4.4v-6.5l-76.99-44.45L-69.146,39.835V230.195L95.707,325.373l76.99-44.45Z" transform="translate(69.146 55.343)" fill="url(#linear-gradient-42)"/>
            </g>
            <g id="Group_297" data-name="Group 297" transform="translate(0 730.216)">
              <path id="Path_3537" data-name="Path 3537" d="M-459.35,3.456v6.5L-383.588,53.7V237.559L-459.35,281.3v6.5l81.391-46.991V50.448Z" transform="translate(459.35 -3.456)" fill="url(#linear-gradient-43)"/>
            </g>
            <g id="Group_298" data-name="Group 298" transform="translate(75.764 682.029)">
              <path id="Path_3538" data-name="Path 3538" d="M-280.945,375.561-445.8,280.378V90.018L-280.945-5.16l164.858,95.178V280.378Zm-159.231-98.432,159.231,91.934,159.226-91.934V93.267L-280.945,1.339-440.176,93.267Z" transform="translate(445.803 5.16)" fill="url(#linear-gradient-44)"/>
            </g>
            <g id="Group_299" data-name="Group 299" transform="translate(399.847 682.029)">
              <path id="Path_3539" data-name="Path 3539" d="M-223,375.561l-164.858-95.183V90.018L-223-5.16-58.141,90.018V280.378Zm-159.226-98.432L-223,369.062l159.226-91.934V93.267L-223,1.339-382.224,93.267Z" transform="translate(387.856 5.16)" fill="url(#linear-gradient-45)"/>
            </g>
            <g id="Group_300" data-name="Group 300" transform="translate(2344.354 731.134)">
              <path id="Path_3540" data-name="Path 3540" d="M39.631,279.631l-74.176-42.825V52.943L39.631,10.118V3.62l-79.8,46.074v190.36l79.8,46.074Z" transform="translate(40.173 -3.62)" fill="url(#linear-gradient-46)"/>
            </g>
            <g id="Group_301" data-name="Group 301" transform="translate(0 962.695)">
              <path id="Path_3541" data-name="Path 3541" d="M-380.773,45.024-459.35,90.391v6.5l78.577-45.368,159.227,91.93V327.313l-159.227,91.93-78.577-45.368v6.5l78.577,45.367,164.857-95.179V140.2Z" transform="translate(459.35 -45.024)" fill="url(#linear-gradient-47)"/>
            </g>
            <g id="Group_302" data-name="Group 302" transform="translate(237.803 962.695)">
              <path id="Path_3542" data-name="Path 3542" d="M-251.972,425.74-416.83,330.562V140.2l164.858-95.178L-87.115,140.2V330.562ZM-411.2,327.313l159.226,91.934,159.231-91.934V143.451L-251.972,51.523-411.2,143.451Z" transform="translate(416.83 -45.024)" fill="url(#linear-gradient-48)"/>
            </g>
            <g id="Group_303" data-name="Group 303" transform="translate(561.891 962.695)">
              <path id="Path_3543" data-name="Path 3543" d="M-194.024,425.74l-164.857-95.178V140.2l164.857-95.178L-29.167,140.2V330.562Zm-159.231-98.427,159.231,91.934L-34.8,327.313V143.451L-194.024,51.523l-159.231,91.928Z" transform="translate(358.882 -45.024)" fill="url(#linear-gradient-49)"/>
            </g>
            <g id="Group_304" data-name="Group 304" transform="translate(0 1291.547)">
              <path id="Path_3544" data-name="Path 3544" d="M-459.35,103.824v6.5l75.762,43.743V337.927l-75.762,43.743v6.5l81.391-46.992V150.816Z" transform="translate(459.35 -103.824)" fill="url(#linear-gradient-50)"/>
            </g>
            <g id="Group_305" data-name="Group 305" transform="translate(75.764 1243.362)">
              <path id="Path_3545" data-name="Path 3545" d="M-280.945,475.924-445.8,380.746V190.385l164.858-95.178,164.858,95.178V380.746ZM-440.176,377.5l159.231,91.928L-121.719,377.5V193.635l-159.226-91.928-159.231,91.928Z" transform="translate(445.803 -95.208)" fill="url(#linear-gradient-51)"/>
            </g>
            <g id="Group_306" data-name="Group 306" transform="translate(399.847 1243.362)">
              <path id="Path_3546" data-name="Path 3546" d="M-223,475.924l-164.858-95.177V190.385L-223,95.208l164.858,95.178V380.746ZM-382.224,377.5-223,469.425-63.773,377.5V193.635L-223,101.707l-159.226,91.928Z" transform="translate(387.856 -95.208)" fill="url(#linear-gradient-52)"/>
            </g>
            <g id="Group_307" data-name="Group 307" transform="translate(2020.275 1243.362)">
              <path id="Path_3547" data-name="Path 3547" d="M66.739,475.924-98.119,380.746V190.385L66.739,95.208l164.846,95.178V380.746ZM-92.493,377.5,66.739,469.425,225.959,377.5V193.635L66.739,101.707-92.493,193.635Z" transform="translate(98.119 -95.208)" fill="url(#linear-gradient-53)"/>
            </g>
            <g id="Group_308" data-name="Group 308" transform="translate(0 1524.026)">
              <path id="Path_3548" data-name="Path 3548" d="M-459.35,210.689l56.072,32.374h11.253l-67.325-38.871Z" transform="translate(459.35 124.661)" fill="url(#linear-gradient-54)"/>
              <path id="Path_3549" data-name="Path 3549" d="M-380.773,145.391l-78.577,45.367v6.5l78.577-45.367,159.227,91.93V427.681l-147.976,85.434h11.253l142.352-82.185V240.57Z" transform="translate(459.35 -145.391)" fill="url(#linear-gradient-55)"/>
            </g>
            <g id="Group_309" data-name="Group 309" transform="translate(237.804 1524.026)">
              <path id="Path_3550" data-name="Path 3550" d="M-263.223,513.115-411.2,427.681V243.819l159.229-91.93,159.227,91.93V427.681L-240.72,513.115h11.253L-87.115,430.93V240.57l-164.856-95.179L-416.83,240.57V430.93l142.353,82.185Z" transform="translate(416.83 -145.391)" fill="url(#linear-gradient-56)"/>
            </g>
            <g id="Group_310" data-name="Group 310" transform="translate(561.889 1524.026)">
              <path id="Path_3551" data-name="Path 3551" d="M-205.276,513.115l-147.977-85.434V243.819l159.229-91.93L-34.8,243.819V427.681l-147.975,85.434h11.253L-29.167,430.93V240.57l-164.857-95.179L-358.882,240.57V430.93l142.353,82.185Z" transform="translate(358.882 -145.391)" fill="url(#linear-gradient-57)"/>
            </g>
            <g id="Group_311" data-name="Group 311" transform="translate(1858.23 1524.026)">
              <path id="Path_3552" data-name="Path 3552" d="M26.513,513.115l-147.977-85.434V243.819l159.229-91.93,159.227,91.93V427.681L49.017,513.115H60.27L202.622,430.93V240.57L37.765,145.391-127.093,240.57V430.93L15.26,513.115Z" transform="translate(127.093 -145.391)" fill="url(#linear-gradient-58)"/>
            </g>
            <g id="Group_312" data-name="Group 312" transform="translate(2182.315 1524.026)">
              <path id="Path_3553" data-name="Path 3553" d="M95.707,151.889l76.99,44.449v-6.5l-76.99-44.45L-69.146,240.57V430.93L73.2,513.115H84.455L-63.516,427.681V243.819Z" transform="translate(69.146 -145.391)" fill="url(#linear-gradient-59)"/>
              <path id="Path_3554" data-name="Path 3554" d="M28.08,204.355l-65.738,37.954h11.253L28.08,210.853Z" transform="translate(213.762 125.414)" fill="url(#linear-gradient-60)"/>
            </g>
            <g id="Group_313" data-name="Group 313" transform="translate(0 1852.878)">
              <path id="Path_3555" data-name="Path 3555" d="M-459.35,204.191v6.5l56.071,32.374h11.256Z" transform="translate(459.35 -204.191)" fill="url(#linear-gradient-61)"/>
            </g>
            <g id="Group_314" data-name="Group 314" transform="translate(89.826 1804.691)">
              <path id="Path_3556" data-name="Path 3556" d="M-432.033,282.633-292.5,202.072l139.536,80.561H-141.7L-292.5,195.575l-150.793,87.058Z" transform="translate(443.288 -195.575)" fill="url(#linear-gradient-62)"/>
            </g>
            <g id="Group_315" data-name="Group 315" transform="translate(413.911 1804.691)">
              <path id="Path_3557" data-name="Path 3557" d="M-374.085,282.633l139.538-80.561,139.536,80.561h11.256l-150.792-87.058-150.794,87.058Z" transform="translate(385.341 -195.575)" fill="url(#linear-gradient-63)"/>
            </g>
            <g id="Group_316" data-name="Group 316" transform="translate(737.996 1804.691)">
              <path id="Path_3558" data-name="Path 3558" d="M-316.138,282.633-176.6,202.072l139.536,80.561h11.256L-176.6,195.575l-150.794,87.058Z" transform="translate(327.394 -195.575)" fill="url(#linear-gradient-64)"/>
            </g>
            <g id="Group_317" data-name="Group 317" transform="translate(1062.081 1804.691)">
              <path id="Path_3559" data-name="Path 3559" d="M-258.191,282.633l139.538-80.561L20.883,282.633H32.139l-150.792-87.058-150.794,87.058Z" transform="translate(269.447 -195.575)" fill="url(#linear-gradient-65)"/>
            </g>
            <g id="Group_318" data-name="Group 318" transform="translate(1386.167 1804.691)">
              <path id="Path_3560" data-name="Path 3560" d="M-200.243,282.633l139.538-80.561L78.83,282.633H90.086L-60.706,195.575-211.5,282.633Z" transform="translate(211.499 -195.575)" fill="url(#linear-gradient-66)"/>
            </g>
            <g id="Group_319" data-name="Group 319" transform="translate(1710.252 1804.691)">
              <path id="Path_3561" data-name="Path 3561" d="M-142.3,282.633-2.758,202.072l139.536,80.561h11.256L-2.758,195.575l-150.793,87.058Z" transform="translate(153.552 -195.575)" fill="url(#linear-gradient-67)"/>
            </g>
            <g id="Group_320" data-name="Group 320" transform="translate(2034.337 1804.691)">
              <path id="Path_3562" data-name="Path 3562" d="M-84.349,282.633,55.189,202.072l139.533,80.561h11.254L55.189,195.575-95.6,282.633Z" transform="translate(95.605 -195.575)" fill="url(#linear-gradient-68)"/>
            </g>
            <g id="Group_321" data-name="Group 321" transform="translate(2358.418 1853.796)">
              <path id="Path_3563" data-name="Path 3563" d="M28.081,204.355l-65.739,37.954H-26.4l54.485-31.457Z" transform="translate(37.658 -204.355)" fill="url(#linear-gradient-69)"/>
            </g>
          </g>
          <g id="Group_323" data-name="Group 323" transform="translate(145.164 221.678)">
            <path id="Path_3564" data-name="Path 3564" d="M-379.72-18.106a8.944,8.944,0,0,0,8.943-8.943,8.944,8.944,0,0,0-8.943-8.943,8.944,8.944,0,0,0-8.943,8.943A8.944,8.944,0,0,0-379.72-18.106Z" transform="translate(638.832 323.907)" fill="url(#linear-gradient-70)"/>
            <path id="Path_3565" data-name="Path 3565" d="M-252.436-82.984a1.512,1.512,0,0,0,1.516-1.51A1.512,1.512,0,0,0-252.436-86a1.511,1.511,0,0,0-1.51,1.51A1.511,1.511,0,0,0-252.436-82.984Z" transform="translate(1257.554 94.214)" fill="url(#linear-gradient-71)"/>
            <path id="Path_3566" data-name="Path 3566" d="M-217.363-75.964A17.145,17.145,0,0,0-234.51-58.822a17.15,17.15,0,0,0,17.147,17.147,17.145,17.145,0,0,0,17.142-17.147A17.14,17.14,0,0,0-217.363-75.964Z" transform="translate(1346.819 140.325)" fill="url(#linear-gradient-72)"/>
            <path id="Path_3567" data-name="Path 3567" d="M-222.631-27.682A10.731,10.731,0,0,0-211.9-38.415a10.731,10.731,0,0,0-10.733-10.732,10.731,10.731,0,0,0-10.732,10.732A10.731,10.731,0,0,0-222.631-27.682Z" transform="translate(1352.087 263.489)" fill="url(#linear-gradient-73)"/>
            <path id="Path_3568" data-name="Path 3568" d="M-201.286-16.813a9.648,9.648,0,0,0,9.653-9.653,9.651,9.651,0,0,0-9.653-9.653,9.655,9.655,0,0,0-9.653,9.653A9.651,9.651,0,0,0-201.286-16.813Z" transform="translate(1455.075 323.324)" fill="url(#linear-gradient-74)"/>
            <circle id="Ellipse_76" data-name="Ellipse 76" cx="4.974" cy="4.974" r="4.974" transform="translate(1248.817 4.745)" fill="url(#linear-gradient-75)"/>
            <path id="Path_3569" data-name="Path 3569" d="M-178.9-54.987a9.836,9.836,0,0,0,9.832-9.838,9.831,9.831,0,0,0-9.832-9.832,9.833,9.833,0,0,0-9.838,9.832A9.837,9.837,0,0,0-178.9-54.987Z" transform="translate(1557.03 146.328)" fill="url(#linear-gradient-76)"/>
            <path id="Path_3570" data-name="Path 3570" d="M-172.8-50.316a17.267,17.267,0,0,0-17.27,17.27,17.27,17.27,0,0,0,17.27,17.27,17.274,17.274,0,0,0,17.27-17.27A17.27,17.27,0,0,0-172.8-50.316Z" transform="translate(1550.926 258.12)" fill="url(#linear-gradient-77)"/>
            <path id="Path_3571" data-name="Path 3571" d="M-158.77-72.478a7.278,7.278,0,0,0,7.282-7.276,7.282,7.282,0,0,0-7.282-7.282,7.282,7.282,0,0,0-7.282,7.282A7.278,7.278,0,0,0-158.77-72.478Z" transform="translate(1661.23 89.474)" fill="url(#linear-gradient-78)"/>
            <path id="Path_3572" data-name="Path 3572" d="M-131.506-48.464a13.417,13.417,0,0,0,13.417-13.417A13.417,13.417,0,0,0-131.506-75.3a13.415,13.415,0,0,0-13.411,13.417A13.415,13.415,0,0,0-131.506-48.464Z" transform="translate(1758.298 143.384)" fill="url(#linear-gradient-79)"/>
            <circle id="Ellipse_77" data-name="Ellipse 77" cx="16.014" cy="16.014" r="16.014" transform="translate(1610.781 209.06)" fill="url(#linear-gradient-80)"/>
            <path id="Path_3573" data-name="Path 3573" d="M-113.416-70.5a8.368,8.368,0,0,0,8.367-8.367,8.368,8.368,0,0,0-8.367-8.367,8.368,8.368,0,0,0-8.367,8.367A8.368,8.368,0,0,0-113.416-70.5Z" transform="translate(1864.547 88.583)" fill="url(#linear-gradient-81)"/>
            <path id="Path_3574" data-name="Path 3574" d="M-90.152-55.37a9.621,9.621,0,0,0,9.625-9.625,9.625,9.625,0,0,0-9.625-9.625,9.629,9.629,0,0,0-9.625,9.625A9.625,9.625,0,0,0-90.152-55.37Z" transform="translate(1965.615 146.498)" fill="url(#linear-gradient-82)"/>
            <circle id="Ellipse_78" data-name="Ellipse 78" cx="6.862" cy="6.862" r="6.862" transform="translate(1868.602 218.211)" fill="url(#linear-gradient-83)"/>
            <path id="Path_3575" data-name="Path 3575" d="M-70.51-73.949a6.471,6.471,0,0,0,6.471-6.471,6.471,6.471,0,0,0-6.471-6.471,6.471,6.471,0,0,0-6.471,6.471A6.471,6.471,0,0,0-70.51-73.949Z" transform="translate(2070.312 90.14)" fill="url(#linear-gradient-84)"/>
            <path id="Path_3576" data-name="Path 3576" d="M-45.225-54.341a10.188,10.188,0,0,0,10.19-10.19,10.192,10.192,0,0,0-10.19-10.19,10.192,10.192,0,0,0-10.19,10.19A10.188,10.188,0,0,0-45.225-54.341Z" transform="translate(2169.359 146.034)" fill="url(#linear-gradient-85)"/>
            <circle id="Ellipse_79" data-name="Ellipse 79" cx="11.573" cy="11.573" r="11.573" transform="translate(2112.562 213.501)" fill="url(#linear-gradient-86)"/>
            <path id="Path_3577" data-name="Path 3577" d="M-23.374-68.032a9.723,9.723,0,0,0,9.72-9.72,9.723,9.723,0,0,0-9.72-9.72,9.724,9.724,0,0,0-9.726,9.72A9.724,9.724,0,0,0-23.374-68.032Z" transform="translate(2271.846 87.472)" fill="url(#linear-gradient-87)"/>
            <path id="Path_3578" data-name="Path 3578" d="M-399.908,2.068A11.436,11.436,0,0,0-411.34,13.505a11.436,11.436,0,0,0,11.432,11.437,11.437,11.437,0,0,0,11.437-11.437A11.437,11.437,0,0,0-399.908,2.068Z" transform="translate(534.682 498.707)" fill="url(#linear-gradient-88)"/>
            <circle id="Ellipse_80" data-name="Ellipse 80" cx="7.198" cy="7.198" r="7.198" transform="translate(3.243 433.229)" fill="url(#linear-gradient-89)"/>
            <path id="Path_3579" data-name="Path 3579" d="M-427.044-24.446a5.468,5.468,0,0,0,5.464-5.464,5.464,5.464,0,0,0-5.464-5.459A5.459,5.459,0,0,0-432.5-29.91,5.464,5.464,0,0,0-427.044-24.446Z" transform="translate(437.486 326.768)" fill="url(#linear-gradient-90)"/>
            <circle id="Ellipse_81" data-name="Ellipse 81" cx="16.72" cy="16.72" r="16.72" transform="translate(118.056 208.354)" fill="url(#linear-gradient-91)"/>
            <path id="Path_3580" data-name="Path 3580" d="M-375.522,16.874A14.054,14.054,0,0,0-361.468,2.82a14.054,14.054,0,0,0-14.055-14.055A14.054,14.054,0,0,0-389.577,2.82,14.054,14.054,0,0,0-375.522,16.874Z" transform="translate(634.635 437.61)" fill="url(#linear-gradient-92)"/>
            <path id="Path_3581" data-name="Path 3581" d="M-198.567,14.893A12.967,12.967,0,0,0-185.6,1.929a12.968,12.968,0,0,0-12.97-12.97,12.967,12.967,0,0,0-12.964,12.97A12.966,12.966,0,0,0-198.567,14.893Z" transform="translate(1452.356 438.501)" fill="url(#linear-gradient-93)"/>
            <path id="Path_3582" data-name="Path 3582" d="M-159.308-35.578a6.624,6.624,0,0,0-6.627,6.627,6.628,6.628,0,0,0,6.627,6.633,6.633,6.633,0,0,0,6.633-6.633A6.628,6.628,0,0,0-159.308-35.578Z" transform="translate(1661.767 325.808)" fill="url(#linear-gradient-94)"/>
            <path id="Path_3583" data-name="Path 3583" d="M-154.646,13.681a12.3,12.3,0,0,0,12.3-12.3,12.3,12.3,0,0,0-12.3-12.3,12.3,12.3,0,0,0-12.3,12.3A12.3,12.3,0,0,0-154.646,13.681Z" transform="translate(1657.106 439.047)" fill="url(#linear-gradient-95)"/>
            <circle id="Ellipse_82" data-name="Ellipse 82" cx="7.765" cy="7.765" r="7.765" transform="translate(1619.03 504.448)" fill="url(#linear-gradient-96)"/>
            <path id="Path_3584" data-name="Path 3584" d="M-105.365-37.642a18.174,18.174,0,0,0-18.171,18.171A18.174,18.174,0,0,0-105.365-1.3,18.174,18.174,0,0,0-87.194-19.471,18.174,18.174,0,0,0-105.365-37.642Z" transform="translate(1856.495 316.329)" fill="url(#linear-gradient-97)"/>
            <path id="Path_3585" data-name="Path 3585" d="M-64.755-9.851A13.474,13.474,0,0,0-51.283-23.329,13.469,13.469,0,0,0-64.755-36.8,13.474,13.474,0,0,0-78.234-23.329,13.479,13.479,0,0,0-64.755-9.851Z" transform="translate(2064.556 320.187)" fill="url(#linear-gradient-98)"/>
            <path id="Path_3586" data-name="Path 3586" d="M-42.566,28.574A13.438,13.438,0,0,0-29.132,15.14,13.433,13.433,0,0,0-42.566,1.712,13.428,13.428,0,0,0-55.994,15.14,13.433,13.433,0,0,0-42.566,28.574Z" transform="translate(2166.7 497.072)" fill="url(#linear-gradient-99)"/>
            <path id="Path_3587" data-name="Path 3587" d="M-62.817,20.118A15.837,15.837,0,0,0-46.984,4.285,15.838,15.838,0,0,0-62.817-11.554,15.839,15.839,0,0,0-78.656,4.285,15.838,15.838,0,0,0-62.817,20.118Z" transform="translate(2062.619 436.145)" fill="url(#linear-gradient-100)"/>
            <path id="Path_3588" data-name="Path 3588" d="M-19.53-8.165a14.4,14.4,0,0,0,14.4-14.4,14.4,14.4,0,0,0-14.4-14.4,14.4,14.4,0,0,0-14.407,14.4A14.4,14.4,0,0,0-19.53-8.165Z" transform="translate(2268.002 319.424)" fill="url(#linear-gradient-101)"/>
            <path id="Path_3589" data-name="Path 3589" d="M-168.174,12.6A10.326,10.326,0,0,0-178.5,2.266a10.33,10.33,0,0,0-10.33,10.33,10.33,10.33,0,0,0,10.33,10.33A10.326,10.326,0,0,0-168.174,12.6Z" transform="translate(1556.625 499.617)" fill="url(#linear-gradient-102)"/>
            <circle id="Ellipse_83" data-name="Ellipse 83" cx="8.327" cy="8.327" r="8.327" transform="translate(1742.803 432.101)" fill="url(#linear-gradient-103)"/>
            <path id="Path_3590" data-name="Path 3590" d="M-90.731,20.359a8.924,8.924,0,0,0,8.926-8.92,8.924,8.924,0,0,0-8.926-8.92,8.92,8.92,0,0,0-8.92,8.92A8.92,8.92,0,0,0-90.731,20.359Z" transform="translate(1966.193 500.774)" fill="url(#linear-gradient-104)"/>
            <circle id="Ellipse_84" data-name="Ellipse 84" cx="8.838" cy="8.838" r="8.838" transform="translate(2239.632 718.729)" fill="url(#linear-gradient-105)"/>
            <path id="Path_3591" data-name="Path 3591" d="M-44.146,27.726a11.506,11.506,0,0,0-11.5,11.51,11.5,11.5,0,0,0,11.5,11.5,11.5,11.5,0,0,0,11.5-11.5A11.506,11.506,0,0,0-44.146,27.726Z" transform="translate(2168.279 616.548)" fill="url(#linear-gradient-106)"/>
            <circle id="Ellipse_85" data-name="Ellipse 85" cx="11.003" cy="11.003" r="11.003" transform="translate(2237.466 429.425)" fill="url(#linear-gradient-107)"/>
            <path id="Path_3592" data-name="Path 3592" d="M-398.544,78.783a13.1,13.1,0,0,0-13.092,13.1,13.1,13.1,0,0,0,13.092,13.1,13.1,13.1,0,0,0,13.1-13.1A13.1,13.1,0,0,0-398.544,78.783Z" transform="translate(533.318 851.04)" fill="url(#linear-gradient-108)"/>
            <circle id="Ellipse_86" data-name="Ellipse 86" cx="1.15" cy="1.15" r="1.15" transform="translate(9.292 869.987)" fill="url(#linear-gradient-109)"/>
            <circle id="Ellipse_87" data-name="Ellipse 87" cx="10.442" cy="10.442" r="10.442" transform="translate(0 717.125)" fill="url(#linear-gradient-110)"/>
            <path id="Path_3593" data-name="Path 3593" d="M-401.906,28.174a9,9,0,0,0-9,9,9,9,0,0,0,9,9,9,9,0,0,0,9-9A9.006,9.006,0,0,0-401.906,28.174Z" transform="translate(536.68 618.606)" fill="url(#linear-gradient-111)"/>
            <path id="Path_3594" data-name="Path 3594" d="M-366.289,87.812a8.144,8.144,0,0,0,8.143,8.143A8.14,8.14,0,0,0-350,87.812a8.14,8.14,0,0,0-8.143-8.143A8.144,8.144,0,0,0-366.289,87.812Z" transform="translate(741.59 855.11)" fill="url(#linear-gradient-112)"/>
            <path id="Path_3595" data-name="Path 3595" d="M-131.607,27.407A13.291,13.291,0,0,0-144.895,40.7a13.29,13.29,0,0,0,13.288,13.288A13.291,13.291,0,0,0-118.313,40.7,13.292,13.292,0,0,0-131.607,27.407Z" transform="translate(1758.399 615.083)" fill="url(#linear-gradient-113)"/>
            <path id="Path_3596" data-name="Path 3596" d="M-122.755,53.954a13.8,13.8,0,0,0,13.8,13.8,13.8,13.8,0,0,0,13.8-13.8,13.8,13.8,0,0,0-13.8-13.8A13.8,13.8,0,0,0-122.755,53.954Z" transform="translate(1860.082 673.613)" fill="url(#linear-gradient-114)"/>
            <circle id="Ellipse_88" data-name="Ellipse 88" cx="8.34" cy="8.34" r="8.34" transform="translate(1867.125 934.581)" fill="url(#linear-gradient-115)"/>
            <circle id="Ellipse_89" data-name="Ellipse 89" cx="10.861" cy="10.861" r="10.861" transform="translate(1740.269 860.276)" fill="url(#linear-gradient-116)"/>
            <circle id="Ellipse_90" data-name="Ellipse 90" cx="11.588" cy="11.588" r="11.588" transform="translate(1863.876 644.194)" fill="url(#linear-gradient-117)"/>
            <circle id="Ellipse_91" data-name="Ellipse 91" cx="16.46" cy="16.46" r="16.46" transform="translate(1983.339 854.677)" fill="url(#linear-gradient-118)"/>
            <path id="Path_3597" data-name="Path 3597" d="M-45.96,98.053a9.3,9.3,0,0,0,9.3-9.3,9.3,9.3,0,0,0-9.3-9.3,9.294,9.294,0,0,0-9.3,9.3A9.294,9.294,0,0,0-45.96,98.053Z" transform="translate(2170.094 854.164)" fill="url(#linear-gradient-119)"/>
            <path id="Path_3598" data-name="Path 3598" d="M-62.45,72.279A16.288,16.288,0,0,0-46.164,55.993,16.288,16.288,0,0,0-62.45,39.707,16.284,16.284,0,0,0-78.736,55.993,16.284,16.284,0,0,0-62.45,72.279Z" transform="translate(2062.251 671.574)" fill="url(#linear-gradient-120)"/>
            <circle id="Ellipse_92" data-name="Ellipse 92" cx="7.387" cy="7.387" r="7.387" transform="translate(2241.082 863.749)" fill="url(#linear-gradient-121)"/>
            <path id="Path_3599" data-name="Path 3599" d="M-374.044,97.166A15.857,15.857,0,0,0-358.188,81.31a15.853,15.853,0,0,0-15.855-15.855A15.853,15.853,0,0,0-389.9,81.31,15.857,15.857,0,0,0-374.044,97.166Z" transform="translate(633.156 789.828)" fill="url(#linear-gradient-122)"/>
            <path id="Path_3600" data-name="Path 3600" d="M-353.774,131.327A13.472,13.472,0,0,0-340.3,117.86a13.473,13.473,0,0,0-13.473-13.473,13.468,13.468,0,0,0-13.467,13.473A13.467,13.467,0,0,0-353.774,131.327Z" transform="translate(737.218 968.633)" fill="url(#linear-gradient-123)"/>
            <path id="Path_3601" data-name="Path 3601" d="M-308.718,112.05a6.4,6.4,0,0,0-6.4-6.4,6.4,6.4,0,0,0-6.4,6.4,6.4,6.4,0,0,0,6.4,6.393A6.4,6.4,0,0,0-308.718,112.05Z" transform="translate(947.231 974.443)" fill="url(#linear-gradient-124)"/>
            <path id="Path_3602" data-name="Path 3602" d="M-287.97,142.182A12.38,12.38,0,0,0-275.593,129.8a12.379,12.379,0,0,0-12.377-12.382A12.381,12.381,0,0,0-300.352,129.8,12.381,12.381,0,0,0-287.97,142.182Z" transform="translate(1044.423 1028.477)" fill="url(#linear-gradient-125)"/>
            <path id="Path_3603" data-name="Path 3603" d="M-254.13,116.615a11.956,11.956,0,0,0-11.957-11.957,11.956,11.956,0,0,0-11.957,11.957,11.959,11.959,0,0,0,11.957,11.957A11.959,11.959,0,0,0-254.13,116.615Z" transform="translate(1146.874 969.878)" fill="url(#linear-gradient-126)"/>
            <path id="Path_3604" data-name="Path 3604" d="M-242.185,145.125a14,14,0,0,0,14-14,14,14,0,0,0-14-14,14,14,0,0,0-13.993,14A14,14,0,0,0-242.185,145.125Z" transform="translate(1247.304 1027.15)" fill="url(#linear-gradient-127)"/>
            <circle id="Ellipse_93" data-name="Ellipse 93" cx="8.068" cy="8.068" r="8.068" transform="translate(126.709 1365.562)" fill="url(#linear-gradient-128)"/>
            <circle id="Ellipse_94" data-name="Ellipse 94" cx="6.441" cy="6.441" r="6.441" transform="translate(4.001 1295.404)" fill="url(#linear-gradient-129)"/>
            <path id="Path_3605" data-name="Path 3605" d="M-432.073,122.139a3.057,3.057,0,0,0,3.053,3.054,3.058,3.058,0,0,0,3.054-3.054,3.054,3.054,0,0,0-3.054-3.054A3.054,3.054,0,0,0-432.073,122.139Z" transform="translate(439.461 1036.138)" fill="url(#linear-gradient-130)"/>
            <circle id="Ellipse_95" data-name="Ellipse 95" cx="12.642" cy="12.642" r="12.642" transform="translate(122.134 1073.848)" fill="url(#linear-gradient-131)"/>
            <path id="Path_3606" data-name="Path 3606" d="M-388.927,153.853a10.419,10.419,0,0,0,10.419,10.419,10.419,10.419,0,0,0,10.419-10.419,10.417,10.417,0,0,0-10.419-10.414A10.418,10.418,0,0,0-388.927,153.853Z" transform="translate(637.62 1147.99)" fill="url(#linear-gradient-132)"/>
            <path id="Path_3607" data-name="Path 3607" d="M-374.047,125.5a7.146,7.146,0,0,0-7.147-7.148,7.146,7.146,0,0,0-7.148,7.148,7.146,7.146,0,0,0,7.148,7.148A7.146,7.146,0,0,0-374.047,125.5Z" transform="translate(640.307 1032.776)" fill="url(#linear-gradient-133)"/>
            <path id="Path_3608" data-name="Path 3608" d="M-337.792,118.585a5.853,5.853,0,0,0-5.856,5.85,5.853,5.853,0,0,0,5.856,5.85,5.848,5.848,0,0,0,5.85-5.85A5.848,5.848,0,0,0-337.792,118.585Z" transform="translate(845.575 1033.841)" fill="url(#linear-gradient-134)"/>
            <path id="Path_3609" data-name="Path 3609" d="M-322.13,166.225a9.843,9.843,0,0,0,9.843,9.843,9.848,9.848,0,0,0,9.849-9.843,9.849,9.849,0,0,0-9.849-9.849A9.845,9.845,0,0,0-322.13,166.225Z" transform="translate(944.402 1207.406)" fill="url(#linear-gradient-135)"/>
            <path id="Path_3610" data-name="Path 3610" d="M-330.949,142.765a14.189,14.189,0,0,0-14.189,14.183,14.19,14.19,0,0,0,14.189,14.189,14.189,14.189,0,0,0,14.183-14.189A14.188,14.188,0,0,0-330.949,142.765Z" transform="translate(838.732 1144.894)" fill="url(#linear-gradient-136)"/>
            <path id="Path_3611" data-name="Path 3611" d="M-241.11,173.174A15.3,15.3,0,0,0-225.8,157.867a15.3,15.3,0,0,0-15.307-15.3,15.3,15.3,0,0,0-15.3,15.3A15.3,15.3,0,0,0-241.11,173.174Z" transform="translate(1246.229 1143.976)" fill="url(#linear-gradient-137)"/>
            <path id="Path_3612" data-name="Path 3612" d="M-91.759,156.766a7.669,7.669,0,0,0-7.668,7.668,7.669,7.669,0,0,0,7.668,7.668,7.665,7.665,0,0,0,7.668-7.668A7.665,7.665,0,0,0-91.759,156.766Z" transform="translate(1967.222 1209.197)" fill="url(#linear-gradient-138)"/>
            <path id="Path_3613" data-name="Path 3613" d="M-90.7,123.1a8.951,8.951,0,0,0,8.954-8.948,8.955,8.955,0,0,0-8.954-8.954,8.955,8.955,0,0,0-8.954,8.954A8.951,8.951,0,0,0-90.7,123.1Z" transform="translate(1966.166 972.344)" fill="url(#linear-gradient-139)"/>
            <path id="Path_3614" data-name="Path 3614" d="M-61.467,116.5A17.483,17.483,0,0,0-78.95,133.988a17.482,17.482,0,0,0,17.483,17.483A17.481,17.481,0,0,0-43.99,133.988,17.481,17.481,0,0,0-61.467,116.5Z" transform="translate(2061.268 1024.288)" fill="url(#linear-gradient-140)"/>
            <path id="Path_3615" data-name="Path 3615" d="M-45.785,124.106a9.506,9.506,0,0,0,9.508-9.5,9.507,9.507,0,0,0-9.508-9.508,9.507,9.507,0,0,0-9.508,9.508A9.506,9.506,0,0,0-45.785,124.106Z" transform="translate(2169.919 971.89)" fill="url(#linear-gradient-141)"/>
            <path id="Path_3616" data-name="Path 3616" d="M-19.668,145.563A14.235,14.235,0,0,0-5.434,131.324a14.235,14.235,0,0,0-14.234-14.239,14.236,14.236,0,0,0-14.239,14.239A14.236,14.236,0,0,0-19.668,145.563Z" transform="translate(2268.14 1026.952)" fill="url(#linear-gradient-142)"/>
            <path id="Path_3617" data-name="Path 3617" d="M-15.764,141.906a18.989,18.989,0,0,0-18.993,18.987,18.99,18.99,0,0,0,18.993,18.993A18.989,18.989,0,0,0,3.223,160.893,18.987,18.987,0,0,0-15.764,141.906Z" transform="translate(2264.236 1140.949)" fill="url(#linear-gradient-143)"/>
            <path id="Path_3618" data-name="Path 3618" d="M-366.518,165.876a9.428,9.428,0,0,0,9.424,9.424,9.425,9.425,0,0,0,9.424-9.424,9.421,9.421,0,0,0-9.424-9.424A9.425,9.425,0,0,0-366.518,165.876Z" transform="translate(740.539 1207.755)" fill="url(#linear-gradient-144)"/>
            <path id="Path_3619" data-name="Path 3619" d="M-352.171,211.894a15.426,15.426,0,0,0,15.425-15.425,15.421,15.421,0,0,0-15.425-15.419,15.417,15.417,0,0,0-15.419,15.419A15.421,15.421,0,0,0-352.171,211.894Z" transform="translate(735.615 1320.728)" fill="url(#linear-gradient-145)"/>
            <circle id="Ellipse_96" data-name="Ellipse 96" cx="16.109" cy="16.109" r="16.109" transform="translate(740.342 1285.736)" fill="url(#linear-gradient-146)"/>
            <circle id="Ellipse_97" data-name="Ellipse 97" cx="5.925" cy="5.925" r="5.925" transform="translate(874.861 1367.705)" fill="url(#linear-gradient-147)"/>
            <path id="Path_3620" data-name="Path 3620" d="M-243.916,218.287A11.885,11.885,0,0,0-232.032,206.4a11.882,11.882,0,0,0-11.885-11.885A11.885,11.885,0,0,0-255.8,206.4,11.889,11.889,0,0,0-243.916,218.287Z" transform="translate(1249.035 1382.583)" fill="url(#linear-gradient-148)"/>
            <circle id="Ellipse_98" data-name="Ellipse 98" cx="18.168" cy="18.168" r="18.168" transform="translate(862.618 1499.032)" fill="url(#linear-gradient-149)"/>
            <path id="Path_3621" data-name="Path 3621" d="M-79.264,192.281a10.318,10.318,0,0,0-10.319-10.319A10.318,10.318,0,0,0-99.9,192.281,10.318,10.318,0,0,0-89.582,202.6,10.318,10.318,0,0,0-79.264,192.281Z" transform="translate(1965.045 1324.916)" fill="url(#linear-gradient-150)"/>
            <path id="Path_3622" data-name="Path 3622" d="M-42.552,182.623a13.446,13.446,0,0,0,13.445-13.445,13.443,13.443,0,0,0-13.445-13.445A13.443,13.443,0,0,0-56,169.178,13.446,13.446,0,0,0-42.552,182.623Z" transform="translate(2166.686 1204.453)" fill="url(#linear-gradient-151)"/>
            <path id="Path_3623" data-name="Path 3623" d="M-42.566,181.407A13.424,13.424,0,0,0-55.994,194.83a13.428,13.428,0,0,0,13.428,13.428A13.428,13.428,0,0,0-29.138,194.83,13.424,13.424,0,0,0-42.566,181.407Z" transform="translate(2166.7 1322.367)" fill="url(#linear-gradient-152)"/>
            <path id="Path_3624" data-name="Path 3624" d="M-427.193,198.6a2.385,2.385,0,0,0-2.383-2.383,2.38,2.38,0,0,0-2.377,2.383,2.375,2.375,0,0,0,2.377,2.377A2.38,2.38,0,0,0-427.193,198.6Z" transform="translate(440.016 1390.386)" fill="url(#linear-gradient-153)"/>
            <path id="Path_3625" data-name="Path 3625" d="M-402.935,182.422a7.745,7.745,0,0,0-7.746,7.746,7.747,7.747,0,0,0,7.746,7.752,7.748,7.748,0,0,0,7.752-7.752A7.747,7.747,0,0,0-402.935,182.422Z" transform="translate(537.709 1327.029)" fill="url(#linear-gradient-154)"/>
            <path id="Path_3626" data-name="Path 3626" d="M-370.815,193.1A19.787,19.787,0,0,0-390.6,212.892a19.782,19.782,0,0,0,19.787,19.781,19.782,19.782,0,0,0,19.787-19.781A19.787,19.787,0,0,0-370.815,193.1Z" transform="translate(629.927 1376.094)" fill="url(#linear-gradient-155)"/>
            <path id="Path_3627" data-name="Path 3627" d="M-332.786,194.506a11.953,11.953,0,0,0-11.952,11.952A11.949,11.949,0,0,0-332.786,218.4a11.944,11.944,0,0,0,11.946-11.946A11.949,11.949,0,0,0-332.786,194.506Z" transform="translate(840.569 1382.528)" fill="url(#linear-gradient-156)"/>
            <path id="Path_3628" data-name="Path 3628" d="M-309.2,208.578a13.6,13.6,0,0,0,13.6-13.6,13.6,13.6,0,0,0-13.6-13.6,13.6,13.6,0,0,0-13.6,13.6A13.6,13.6,0,0,0-309.2,208.578Z" transform="translate(941.316 1322.22)" fill="url(#linear-gradient-157)"/>
            <path id="Path_3629" data-name="Path 3629" d="M-269.807,209.42a15.558,15.558,0,0,0-15.554-15.559A15.559,15.559,0,0,0-300.92,209.42a15.554,15.554,0,0,0,15.559,15.553A15.553,15.553,0,0,0-269.807,209.42Z" transform="translate(1041.814 1379.566)" fill="url(#linear-gradient-158)"/>
            <path id="Path_3630" data-name="Path 3630" d="M-111.515,216.1a10.685,10.685,0,0,0,10.682-10.682,10.681,10.681,0,0,0-10.682-10.682A10.681,10.681,0,0,0-122.2,205.415,10.685,10.685,0,0,0-111.515,216.1Z" transform="translate(1862.645 1383.57)" fill="url(#linear-gradient-159)"/>
            <path id="Path_3631" data-name="Path 3631" d="M-66.119,218.165A11.817,11.817,0,0,0-54.3,206.348,11.817,11.817,0,0,0-66.119,194.53a11.817,11.817,0,0,0-11.818,11.818A11.817,11.817,0,0,0-66.119,218.165Z" transform="translate(2065.921 1382.638)" fill="url(#linear-gradient-160)"/>
          </g>
        </g>
      </g>
    </g>
  </g>
</svg>
