<svg xmlns="http://www.w3.org/2000/svg" width="163" height="381.158" viewBox="0 0 163 381.158">
  <g id="Group_516" data-name="Group 516" transform="translate(-1840.414 -817.249)">
    <g id="Group_513" data-name="Group 513" transform="translate(1840.414 1163.859)">
      <path id="Path_4419" data-name="Path 4419" d="M1881.1,1686.365c-.31,4.225-6.271,4.27-13.035,3.485s-4.966.927-14.437,1.059-12.735-3-13.194-4.352c-.409-1.2,4.153-2.211,9.033-3.4.614-.147,1.23-.3,1.846-.458,5.5-1.4,9.146-5.517,13.853-9.113,4.46-3.406,10.21-15.734,10.21-15.734l12.938-.584s-5.448,11.05-7.495,15.814c-1.2,2.8-.691,6.244-.168,8.887A16.543,16.543,0,0,1,1881.1,1686.365Z" transform="translate(-1840.414 -1657.269)" fill="#ffb27d"/>
      <path id="Path_4420" data-name="Path 4420" d="M1868.07,1725.012c-6.764-.784-4.966.928-14.437,1.059s-12.735-3-13.194-4.352c-.409-1.2,4.153-2.211,9.033-3.4l.058.09a26.541,26.541,0,0,0,13.9,2.489c6.357-.637,12.843-3.29,17.228-3.766a16.545,16.545,0,0,1,.449,4.394C1880.794,1725.752,1874.834,1725.8,1868.07,1725.012Z" transform="translate(-1840.414 -1692.432)" fill="#233862"/>
    </g>
    <g id="Group_514" data-name="Group 514" transform="translate(1929.768 1156.081)">
      <path id="Path_4421" data-name="Path 4421" d="M2097.656,1676.168c-.305,4.225-6.266,4.277-13.031,3.5s-4.965.933-14.436,1.073-12.738-2.985-13.2-4.338c-.41-1.2,4.151-2.216,9.029-3.409.614-.148,1.23-.3,1.845-.459,5.5-1.4,9.14-5.527,13.844-9.127,4.455-3.411,0-23.6,0-23.6l14.23-1.385s-.682,17-.673,24.731c0,3.05,1.406,5.983,1.933,8.625A16.56,16.56,0,0,1,2097.656,1676.168Z" transform="translate(-2056.966 -1638.419)" fill="#ffb27d"/>
      <path id="Path_4422" data-name="Path 4422" d="M2084.625,1727.15c-6.765-.778-4.965.933-14.436,1.073s-12.738-2.986-13.2-4.338c-.41-1.2,4.151-2.216,9.029-3.409l.058.09a26.54,26.54,0,0,0,13.9,2.475c6.357-.644,12.84-3.3,17.225-3.783a16.557,16.557,0,0,1,.452,4.394C2097.351,1727.876,2091.39,1727.928,2084.625,1727.15Z" transform="translate(-2056.966 -1685.902)" fill="#233862"/>
    </g>
    <path id="Path_4423" data-name="Path 4423" d="M2053.767,844.84c-2.45-10.075,1.1-14.768,4.3-17.266,1.52-3.708,3.254-6.381,5.028-7.389a18.146,18.146,0,0,1,9.821-1.879,4.6,4.6,0,0,0-2.072-.983c1.681-.25,5.433,1.417,5.433,1.417,23.383-9.01,27.058,25.419,26.567,33.418s-.423,17.418,11.743,23.72c23.211,12.025-7.715,57.339-7.715,57.339.59-6.464-29.233-40.575-44.794-50.79-3.787-5.577-5.133-15.428-5.235-16.2.654,7.811,1.99,12.192,3.184,14.659C2052.941,874.356,2051.89,858.683,2053.767,844.84Z" transform="translate(-124.838)" fill="#a9453d"/>
    <path id="Path_4424" data-name="Path 4424" d="M2077.319,943.649c-.077.035,7.513,3.976,13.223,2.415,5.371-1.464,8.88-8.428,8.805-8.443-2.274-.452-2.93-3.577-2.882-17.008l-1.028.2-17.289,3.423s.393,5.441.405,10.566C2078.565,939.108,2078.3,943.189,2077.319,943.649Z" transform="translate(-139.152 -60.713)" fill="#ffb27d"/>
    <path id="Path_4425" data-name="Path 4425" d="M2079.331,924.526s.393,5.441.405,10.567c9.675-.272,14.787-9.1,16.884-13.99Z" transform="translate(-140.335 -61.002)" fill="#ed975d"/>
    <path id="Path_4426" data-name="Path 4426" d="M1908.568,1400.925a4.243,4.243,0,0,0,3.845,5.526l6.754.316,7.146.219a5.74,5.74,0,0,0,4.626-2.111c5.7-7,23.262-30.321,33.913-64.208q.45-1.426.95-2.886c7.034-20.509,21.615-46.253,29.3-69.555,1.223-3.712,2.321-7.205,3.307-10.512q.474-1.589.915-3.124c5.662-19.676,7.3-32.594,8.814-46.4l-55.487.444S1940.968,1299.431,1908.568,1400.925Z" transform="translate(-39.913 -229.632)" fill="#2a4e96"/>
    <path id="Path_4427" data-name="Path 4427" d="M2023.065,1029.633c.14,26.4-3.874,37.732-3.874,37.732a74.561,74.561,0,0,0,51.994,3.185c.332-.1,20.2-5.731,20.2-5.731-.473-1.069-4.4-18.735-4.859-19.716-5.962-12.8-7.586-18.177-8.293-22.113a83.714,83.714,0,0,1-.687-22.122,177.516,177.516,0,0,1,6.846-34.74c-7.693-1.75-14.9-4.826-22.906-7.829-1.842,2.294-7.473,4.694-12.357,4.583-5.624-.124-7.448-2.532-7.156-5.16-5.994,3.335-10.776,6.486-10.776,6.486-5.094,8.849-15.425,17.442-16.174,31.015C2014.84,998.562,2023.061,1028.893,2023.065,1029.633Z" transform="translate(-102.561 -82.512)" fill="#fff"/>
    <path id="Path_4428" data-name="Path 4428" d="M2138.3,1073.81c2.426,3.433,7.076,24.3,18.645,26.921-5.961-14.871-10.488-21.391-11.2-25.963a112.768,112.768,0,0,1-.687-25.7c-3.873-6.788-6.763-11.442-6.763-11.442-.3-1.1-6.155-19.188-8.03-3.018S2135.588,1069.97,2138.3,1073.81Z" transform="translate(-170.073 -123.746)" fill="#5f9aa8"/>
    <path id="Path_4429" data-name="Path 4429" d="M2060.649,886.181s22.889.378,22.9-13.88,2.981-23.812-11.633-24.656-17.459,4.593-18.622,9.351S2054.7,885.715,2060.649,886.181Z" transform="translate(-124.883 -17.803)" fill="#ffb27d"/>
    <path id="Path_4430" data-name="Path 4430" d="M2073.554,842.8s6.267,16.727,15.885,19.2,13.79-.1,13.79-.1a27.238,27.238,0,0,1-8.908-16.091S2078.281,834.835,2073.554,842.8Z" transform="translate(-136.941 -13.304)" fill="#a9453d"/>
    <path id="Path_4431" data-name="Path 4431" d="M2060.82,846.33s-4.68,3.735-5.821,7.366-1.654,11.1-3.833,10.851c0,0-4.721-11.37.585-17.8C2057.377,839.925,2060.82,846.33,2060.82,846.33Z" transform="translate(-122.654 -15.48)" fill="#a9453d"/>
    <path id="Path_4432" data-name="Path 4432" d="M1968.826,1176.414l-10.811,32.961,6.167,2.473,17.875-29.121Z" transform="translate(-69.076 -210.966)" fill="#ffb27d"/>
    <path id="Path_4433" data-name="Path 4433" d="M2009.539,968.738s-12.747,5.059-16.436,12.945-9.276,60.787-11.5,66.219-3.9,9.734-3.9,9.734,6.427,5.415,12.891,5.813S2009.539,968.738,2009.539,968.738Z" transform="translate(-80.641 -88.982)" fill="#ec91bc"/>
    <path id="Path_4434" data-name="Path 4434" d="M2031,957.724s-13.243,32.716-13.633,39.337-1.558,108.271-1.558,108.271.779,4.673-8.179,2.726-11.295-3.895-11.295-3.895,8.568-62.7,6.232-84.514,17.915-57.381,17.915-57.381Z" transform="translate(-91.585 -82.512)" fill="#ec91bc"/>
    <path id="Path_4435" data-name="Path 4435" d="M1934.542,1463.987l7.759.238a4.483,4.483,0,0,0,3.6-1.625c5.215-6.316,23.4-29.959,34.328-64.713q.449-1.426.95-2.886c7.033-20.51,21.615-46.253,29.3-69.555,1.223-3.712,2.321-7.205,3.307-10.512q.474-1.589.915-3.124l-8.171-6.2s-24.532,39.726-32.127,77.111C1967.8,1415.2,1941.381,1454.271,1934.542,1463.987Z" transform="translate(-55.289 -286.854)" fill="#1e3d70"/>
    <path id="Path_4436" data-name="Path 4436" d="M2099.171,1371.2c-.133,17.2.683,55.534,2.776,74.272a3.387,3.387,0,0,0,3.368,3.009h5.79c2.44,0,4.265-.018,5.479-.036a2.228,2.228,0,0,0,2.148-1.8c5.757-29.3,9.878-53.637,12.894-74.669,2.524-17.6,4.767-32.7,6.492-45.688,1.737-13.074,2.945-24.022,3.377-33.272.066-1.457.117-2.874.144-4.249s.035-2.726.023-4.031l-47.943-4.674C2094.323,1311.915,2099.249,1360.629,2099.171,1371.2Z" transform="translate(-148.786 -271.846)" fill="#2a4e96"/>
    <path id="Path_4437" data-name="Path 4437" d="M2135.854,1466.918c2.192,0,3.887-.014,5.089-.031a2.7,2.7,0,0,0,2.611-2.181c5.718-29.129,9.817-53.351,12.82-74.292,2.524-17.6,4.767-32.7,6.492-45.688,1.737-13.074,2.944-24.022,3.377-33.272l-17.592,10.348s11.229,3.961,6.944,33.95S2141.817,1462.672,2135.854,1466.918Z" transform="translate(-173.535 -290.286)" fill="#1e3d70"/>
    <path id="Path_4438" data-name="Path 4438" d="M2107.045,1104.334s3.376,12.2,15.061,10.644,28.3-8.568,28.3-8.568-4.993-15.778-11.2-36.505c-7.517-25.094-16.821-57.442-21.207-77.846a126.322,126.322,0,0,1-2.383-13.912l-9.694-18.807s-14.453,32.439-15.232,40.617S2107.045,1104.334,2107.045,1104.334Z" transform="translate(-146.99 -83.461)" fill="#ec91bc"/>
    <path id="Path_4439" data-name="Path 4439" d="M2094.353,998.738l-12.794-39.4c.035.016,16.158,4.8,24.269,8.9,0,0,5.07,6.535,8.207,21.614,0,0,3.313,36.2-4.086,49.444,0,0-23.368,4.674-60.757-8.179v-8.568s40.894,2.142,49.268,3.116Z" transform="translate(-122.632 -83.461)" fill="#ffb27d"/>
    <path id="Path_4440" data-name="Path 4440" d="M2131.607,1063.671c.522,13.242,3.638,38.946,31.418,52.706.074.035.148.074.222.105-7.517-25.094-16.821-57.442-21.207-77.846C2136.939,1046.261,2131.323,1056.38,2131.607,1063.671Z" transform="translate(-171.035 -130.038)" fill="#c56191"/>
    <path id="Path_4441" data-name="Path 4441" d="M2125.684,959.34s23.716,1.671,29.428,14.393,7.53,55.044.26,67.507c0,0-10.009,2.851-27.712-.459l-.654-.125s-5.647-13.826-.584-16.552c0,0,14.929.779,13.372-4.154S2125.684,959.34,2125.684,959.34Z" transform="translate(-166.757 -83.461)" fill="#ec91bc"/>
    <g id="Group_515" data-name="Group 515" transform="translate(1896.652 932.273)">
      <path id="Path_4442" data-name="Path 4442" d="M1983.529,1108.12l.7,2.245,38.916-12.106a1.5,1.5,0,0,0,.263-1.376,1.1,1.1,0,0,0-.962-.869Z" transform="translate(-1980.714 -1096.014)" fill="#a9453d"/>
      <path id="Path_4443" data-name="Path 4443" d="M1976.708,1127.474l2.814-2.122.7,2.245Z" transform="translate(-1976.708 -1113.247)" fill="#a9453d"/>
    </g>
    <path id="Path_4444" data-name="Path 4444" d="M1944.946,1254.111s-9.872,5.455-11.171,9.612-.406,12.859,1.161,12.73,3.905-9.353,5.2-10,3.117-2.6,3.117-1.169-1.3,4.026-.65,4.416,2.729-3.635,4.157-4.416,2.029-7.2,3.417-8.927S1944.946,1254.111,1944.946,1254.111Z" transform="translate(-54.471 -256.604)" fill="#ffb27d"/>
    <path id="Path_4445" data-name="Path 4445" d="M2017.385,1105.849s-8.828-5.437-12.532-4.6-13.142,7.673-8.6,9.153,8.216-.073,9.962,1,3.035,3.041,11.172,3.014S2017.385,1105.849,2017.385,1105.849Z" transform="translate(-90.825 -166.764)" fill="#ffb27d"/>
  </g>
</svg>
