<svg xmlns="http://www.w3.org/2000/svg" width="30.851" height="30.194" viewBox="0 0 30.851 30.194">
  <g id="Group_1688" data-name="Group 1688" transform="translate(-671.75 -680.056)">
    <path id="Path_151" data-name="Path 151" d="M672,708.577a.759.759,0,0,1,.8-.425c.443.022.887.005,1.377.005v-.391q0-8.476,0-16.951c0-.692.161-.851.856-.852q1.837,0,3.675,0c.521,0,.733.212.737.74,0,.552,0,1.1,0,1.683h4.645v-.356q0-4.342,0-8.683c0-.588.194-.782.781-.784l1.333-.007c.017,0,.034-.014.083-.035,0-.478,0-.969,0-1.46,0-.545.21-.756.751-.756h10.076c.547,0,.755.2.759.747,0,.492,0,.983,0,1.512.452,0,.873,0,1.3,0,.55,0,.752.2.753.751q0,4.949,0,9.9c0,.059,0,.119,0,.178a.589.589,0,0,1-1.168.063,1.845,1.845,0,0,1-.013-.325q0-4.49,0-8.98v-.377H685.3v24.365h4.134v-.326q0-2.208,0-4.416c0-.554.2-.756.743-.757q1.793,0,3.586,0c.518,0,.717.2.718.716q0,2.223,0,4.445v.338h4.259v-.349q0-4.49,0-8.979a1.484,1.484,0,0,1,.033-.381.561.561,0,0,1,.631-.418.572.572,0,0,1,.515.525c.011.108.005.217.005.326q0,4.445,0,8.891v.405h.707c.306,0,.614.017.918,0a.749.749,0,0,1,.8.424v.356a.829.829,0,0,1-.81.416q-14.365-.011-28.731,0a.828.828,0,0,1-.81-.416Zm9.6-.441h2.47V693.626h-8.687v14.516h2.4v-.335c0-.75,0-1.5,0-2.251,0-.491.22-.7.71-.7.78,0,1.56,0,2.34,0,.558,0,.763.209.764.774C681.6,706.454,681.6,707.283,681.6,708.136Zm11.675.014v-4.3h-2.632v4.3Zm3.389-25.6v-1.034H687.49v1.034Zm-18.414,8.618h-2.858v1.223h2.858Zm2.137,16.976v-2.089h-1.4v2.089Z" fill="#192842" stroke="#2a2960" stroke-width="0.5"/>
    <path id="Path_152" data-name="Path 152" d="M672,1042.5a.828.828,0,0,0,.81.416q14.365-.011,28.731,0a.83.83,0,0,0,.81-.416v1.067H672Z" transform="translate(0 -333.567)" fill="#192842" stroke="#2a2960" stroke-width="0.5"/>
    <path id="Path_153" data-name="Path 153" d="M939.562,883.789c0,.394,0,.789,0,1.183,0,.445-.211.665-.644.669q-1.2.01-2.4,0a.58.58,0,0,1-.647-.665q-.006-1.183,0-2.366a.586.586,0,0,1,.657-.657q1.183-.007,2.366,0a.592.592,0,0,1,.664.653c0,.02,0,.039,0,.059Zm-2.489.648h1.286v-1.285h-1.286Z" transform="translate(-243.015 -185.706)" fill="#192842" stroke="#2a2960" stroke-width="0.5"/>
    <path id="Path_154" data-name="Path 154" d="M867.338,885.641c-.4,0-.809.007-1.213,0a.58.58,0,0,1-.629-.628q-.011-1.213,0-2.425a.59.59,0,0,1,.655-.635q1.2-.007,2.4,0a.571.571,0,0,1,.639.616q.017,1.227,0,2.455a.569.569,0,0,1-.636.617C868.147,885.647,867.743,885.641,867.338,885.641Zm.644-1.2v-1.287H866.7v1.287Z" transform="translate(-178.198 -185.705)" fill="#192842" stroke="#2a2960" stroke-width="0.5"/>
    <path id="Path_155" data-name="Path 155" d="M867.367,754.45c-.4,0-.809.008-1.213,0a.593.593,0,0,1-.652-.669q-.007-1.183,0-2.366a.6.6,0,0,1,.664-.659q1.183-.008,2.366,0a.59.59,0,0,1,.662.656q.013,1.2,0,2.4a.58.58,0,0,1-.645.642C868.156,754.458,867.762,754.45,867.367,754.45Zm.634-2.5h-1.29v1.286H868Z" transform="translate(-178.205 -64.876)" fill="#192842" stroke="#2a2960" stroke-width="0.5"/>
    <path id="Path_156" data-name="Path 156" d="M939.561,752.6c0,.4,0,.808,0,1.213a.57.57,0,0,1-.618.636q-1.227.018-2.455,0a.568.568,0,0,1-.613-.64q-.008-1.2,0-2.4a.591.591,0,0,1,.662-.656q1.183-.007,2.366,0a.594.594,0,0,1,.659.659C939.565,751.807,939.561,752.2,939.561,752.6Zm-1.2-.639h-1.285v1.292h1.285Z" transform="translate(-243.014 -64.876)" fill="#192842" stroke="#2a2960" stroke-width="0.5"/>
    <path id="Path_157" data-name="Path 157" d="M867.359,820.085c-.4,0-.809.005-1.213,0a.6.6,0,0,1-.651-.643q-.01-1.213,0-2.425a.569.569,0,0,1,.6-.621q1.242-.016,2.484,0a.553.553,0,0,1,.6.592q.018,1.242,0,2.484a.58.58,0,0,1-.643.615C868.148,820.09,867.753,820.085,867.359,820.085Zm-.655-2.5v1.289h1.279v-1.289Z" transform="translate(-178.197 -125.325)" fill="#192842" stroke="#2a2960" stroke-width="0.5"/>
    <path id="Path_158" data-name="Path 158" d="M937.74,816.4c.384,0,.769-.005,1.153,0a.584.584,0,0,1,.662.652q.007,1.2,0,2.4a.588.588,0,0,1-.644.645q-1.2.01-2.4,0a.586.586,0,0,1-.647-.641q-.008-1.213,0-2.425a.57.57,0,0,1,.628-.625C936.912,816.4,937.326,816.4,937.74,816.4Zm-.671,1.2v1.29h1.283V817.6Z" transform="translate(-243.01 -125.337)" fill="#192842" stroke="#2a2960" stroke-width="0.5"/>
    <path id="Path_159" data-name="Path 159" d="M1010.955,872.087a.579.579,0,0,1-.059,1.156.594.594,0,0,1-.572-.6A.583.583,0,0,1,1010.955,872.087Z" transform="translate(-311.583 -176.623)" fill="#192842" stroke="#2a2960" stroke-width="0.5"/>
    <path id="Path_160" data-name="Path 160" d="M731.031,870.208q0-1.731,0-3.463a2.594,2.594,0,0,1,.011-.325.569.569,0,0,1,.536-.5.561.561,0,0,1,.6.422,1.552,1.552,0,0,1,.037.38q0,3.492,0,6.984c0,.03,0,.059,0,.089-.008.453-.236.732-.6.731s-.585-.277-.585-.736Q731.029,872,731.031,870.208Z" transform="translate(-54.365 -170.941)" fill="#192842" stroke="#2a2960" stroke-width="0.5"/>
    <path id="Path_161" data-name="Path 161" d="M761.741,870.217q0-1.746,0-3.492a2.113,2.113,0,0,1,.015-.324.582.582,0,0,1,1.131-.062,1.544,1.544,0,0,1,.037.381q0,3.492,0,6.984c0,.537-.207.822-.593.825s-.592-.281-.592-.819Q761.74,871.963,761.741,870.217Z" transform="translate(-82.648 -170.945)" fill="#192842" stroke="#2a2960" stroke-width="0.5"/>
    <path id="Path_162" data-name="Path 162" d="M792.436,870.194q0-1.731,0-3.462a2.205,2.205,0,0,1,.018-.354.581.581,0,0,1,1.139-.026,1.536,1.536,0,0,1,.027.323q0,3.522,0,7.043a1.716,1.716,0,0,1-.019.294.581.581,0,0,1-1.154-.031,4.387,4.387,0,0,1-.012-.473Q792.435,871.852,792.436,870.194Z" transform="translate(-110.917 -170.926)" fill="#192842" stroke="#2a2960" stroke-width="0.5"/>
  </g>
</svg>
