<svg xmlns="http://www.w3.org/2000/svg" width="35.151" height="35.151" viewBox="0 0 35.151 35.151">
  <path id="Icon_metro-question" data-name="Icon metro-question" d="M17.949,26.094h4.394v4.394H17.949Zm8.788-15.378a2.2,2.2,0,0,1,2.2,2.2V19.5L22.343,23.9H17.949V21.7l6.591-4.394v-2.2H13.555V10.716H26.737ZM20.146,5.223a14.28,14.28,0,1,0,10.1,4.183,14.186,14.186,0,0,0-10.1-4.183Zm0-3.3A17.575,17.575,0,1,1,2.571,19.5,17.575,17.575,0,0,1,20.146,1.928Z" transform="translate(-2.571 -1.928)" fill="#4e4e4e"/>
</svg>
