<svg id="Group_1756" data-name="Group 1756" xmlns="http://www.w3.org/2000/svg" width="27" height="26.743" viewBox="0 0 27 26.743">
  <path id="Icon_ionic-ios-settings" data-name="Icon ionic-ios-settings" d="M29.271,17.868a3.442,3.442,0,0,1,2.229-3.21,13.564,13.564,0,0,0-1.666-3.976,3.551,3.551,0,0,1-1.413.3,3.5,3.5,0,0,1-2.454-1,3.418,3.418,0,0,1-.717-3.829A13.8,13.8,0,0,0,21.241,4.5a3.484,3.484,0,0,1-6.483,0,13.847,13.847,0,0,0-4.015,1.65,3.408,3.408,0,0,1-.717,3.829,3.483,3.483,0,0,1-2.454,1,3.435,3.435,0,0,1-1.413-.3A13.863,13.863,0,0,0,4.5,14.665a3.427,3.427,0,0,1,.007,6.419A13.564,13.564,0,0,0,6.173,25.06a3.535,3.535,0,0,1,1.406-.292,3.5,3.5,0,0,1,2.454,1,3.419,3.419,0,0,1,.717,3.822,13.928,13.928,0,0,0,4.015,1.65,3.477,3.477,0,0,1,6.469,0,13.847,13.847,0,0,0,4.015-1.65,3.421,3.421,0,0,1,.717-3.822,3.471,3.471,0,0,1,2.454-1,3.51,3.51,0,0,1,1.406.292,13.643,13.643,0,0,0,1.666-3.976A3.458,3.458,0,0,1,29.271,17.868ZM18.063,23.431a5.57,5.57,0,1,1,5.625-5.57A5.6,5.6,0,0,1,18.063,23.431Z" transform="translate(-4.5 -4.5)" fill="#2a2960"/>
</svg>
