<svg xmlns="http://www.w3.org/2000/svg" width="18.299" height="18.331" viewBox="0 0 18.299 18.331">
  <path id="Icon_feather-phone-call" data-name="Icon feather-phone-call" d="M13.524,4.7a4,4,0,0,1,3.162,3.162M13.524,1.5a7.2,7.2,0,0,1,6.363,6.355m-.8,6.387v2.4a1.6,1.6,0,0,1-1.745,1.6,15.84,15.84,0,0,1-6.908-2.457,15.608,15.608,0,0,1-4.8-4.8,15.84,15.84,0,0,1-2.457-6.94A1.6,1.6,0,0,1,4.767,2.3h2.4a1.6,1.6,0,0,1,1.6,1.377,10.277,10.277,0,0,0,.56,2.249,1.6,1.6,0,0,1-.36,1.689L7.953,8.632a12.807,12.807,0,0,0,4.8,4.8l1.017-1.017a1.6,1.6,0,0,1,1.689-.36,10.277,10.277,0,0,0,2.249.56A1.6,1.6,0,0,1,19.087,14.243Z" transform="translate(-2.417 -0.672)" fill="none" stroke="#fcc55b" stroke-linecap="round" stroke-linejoin="round" stroke-width="1.5"/>
</svg>
