<svg xmlns="http://www.w3.org/2000/svg" width="35" height="35" viewBox="0 0 35 35"><defs><style>.a,.b,.d{fill:none;}.a{stroke:#fcc55b;stroke-linecap:round;stroke-linejoin:round;stroke-width:2px;}.b{stroke:#192842;}.c{stroke:none;}</style></defs><g transform="translate(-289 -6805)"><path class="a" d="M31.9,4.5a15.062,15.062,0,0,1-4.339,2.114A6.191,6.191,0,0,0,16.7,10.758V12.14A14.73,14.73,0,0,1,4.264,5.881s-5.527,12.436,6.909,17.963A16.085,16.085,0,0,1,1.5,26.608c12.436,6.909,27.636,0,27.636-15.891a6.218,6.218,0,0,0-.111-1.147A10.668,10.668,0,0,0,31.9,4.5Z" transform="translate(290 6806.016)"/><g class="b" transform="translate(289 6805)"><rect class="c" width="35" height="35"/><rect class="d" x="0.5" y="0.5" width="34" height="34"/></g></g></svg>