<svg xmlns="http://www.w3.org/2000/svg" width="35" height="35" viewBox="0 0 35 35"><defs><style>.a,.b,.d{fill:none;}.a{stroke:#fcc55b;stroke-linecap:round;stroke-linejoin:round;stroke-width:2px;}.b{stroke:#192842;}.c{stroke:none;}</style></defs><g transform="translate(-139 -6805)"><g transform="translate(141 6812)"><path class="a" d="M31.852,9.41a3.917,3.917,0,0,0-2.734-2.818C26.695,6,17,6,17,6S7.305,6,4.882,6.648A3.917,3.917,0,0,0,2.148,9.466,40.863,40.863,0,0,0,1.5,16.92a40.863,40.863,0,0,0,.648,7.51,3.917,3.917,0,0,0,2.734,2.705c2.424.648,12.118.648,12.118.648s9.695,0,12.118-.648a3.917,3.917,0,0,0,2.734-2.818,40.863,40.863,0,0,0,.648-7.4,40.862,40.862,0,0,0-.648-7.51Z" transform="translate(-1.5 -6)"/><path class="a" d="M14.625,21.936l8.1-4.608-8.1-4.608Z" transform="translate(-2.295 -6.407)"/></g><g class="b" transform="translate(139 6805)"><rect class="c" width="35" height="35"/><rect class="d" x="0.5" y="0.5" width="34" height="34"/></g></g></svg>