<svg xmlns="http://www.w3.org/2000/svg" width="61.514" height="60.194" viewBox="0 0 61.514 60.194">
  <g id="Group_1728" data-name="Group 1728" transform="translate(-671.75 -680.056)">
    <path id="Path_151" data-name="Path 151" d="M672,737.14a1.526,1.526,0,0,1,1.611-.854c.89.045,1.783.011,2.769.011v-.786q0-17.039,0-34.078c0-1.391.323-1.712,1.72-1.712q3.694,0,7.387,0c1.048,0,1.474.427,1.482,1.488.008,1.111,0,2.221,0,3.384h9.337v-.716q0-8.728,0-17.456c0-1.183.39-1.571,1.57-1.576q1.34-.005,2.68-.015c.035,0,.069-.028.167-.071,0-.96,0-1.948,0-2.935,0-1.1.421-1.52,1.51-1.52q10.128,0,20.256,0c1.1,0,1.517.41,1.525,1.5.007.988,0,1.977,0,3.039.908,0,1.755,0,2.6,0,1.105,0,1.513.408,1.513,1.509q0,9.949,0,19.9c0,.119,0,.239-.007.357a1.185,1.185,0,0,1-2.349.127,3.7,3.7,0,0,1-.027-.653q0-9.026,0-18.052v-.758H698.731v48.981h8.31V735.6q0-4.438,0-8.877c0-1.114.4-1.52,1.494-1.522q3.6,0,7.209,0c1.041,0,1.442.4,1.443,1.44q.007,4.468,0,8.937v.679h8.562v-.7q0-9.026,0-18.052a2.982,2.982,0,0,1,.066-.765,1.128,1.128,0,0,1,1.268-.841,1.15,1.15,0,0,1,1.035,1.056c.021.216.011.436.011.655q0,8.936,0,17.873v.815h1.422c.616,0,1.234.035,1.846-.009a1.507,1.507,0,0,1,1.61.852v.715a1.667,1.667,0,0,1-1.628.837q-28.879-.022-57.757,0a1.665,1.665,0,0,1-1.629-.837Zm19.3-.886h4.965V707.083H678.8v29.181h4.827v-.674c0-1.508-.008-3.017,0-4.526.008-.987.442-1.411,1.427-1.415,1.568-.006,3.136,0,4.7,0,1.121,0,1.534.421,1.536,1.556C691.3,732.871,691.3,734.538,691.3,736.254Zm23.471.027v-8.651h-5.29v8.651Zm6.814-51.469v-2.079H703.139v2.079Zm-37.017,17.325h-5.746V704.6h5.746Zm4.3,34.127v-4.2h-2.813v4.2Z" transform="translate(0 0)" fill="#192842" stroke="#2a2960" stroke-width="0.5"/>
    <path id="Path_152" data-name="Path 152" d="M672,1042.5a1.664,1.664,0,0,0,1.629.836q28.878-.021,57.757,0a1.668,1.668,0,0,0,1.628-.837v2.145H672Z" transform="translate(0 -304.645)" fill="#192842" stroke="#2a2960" stroke-width="0.5"/>
    <path id="Path_153" data-name="Path 153" d="M943.292,885.647c0,.793.006,1.586,0,2.378-.009.894-.424,1.338-1.3,1.345q-2.408.021-4.816,0a1.166,1.166,0,0,1-1.3-1.337q-.013-2.379,0-4.757a1.179,1.179,0,0,1,1.322-1.321q2.379-.013,4.757,0a1.189,1.189,0,0,1,1.335,1.312c0,.04,0,.079,0,.119Zm-5,1.3h2.584v-2.582h-2.584Z" transform="translate(-221.944 -169.605)" fill="#192842" stroke="#2a2960" stroke-width="0.5"/>
    <path id="Path_154" data-name="Path 154" d="M869.2,889.373c-.813,0-1.626.014-2.438,0a1.166,1.166,0,0,1-1.264-1.262q-.022-2.437,0-4.876a1.187,1.187,0,0,1,1.317-1.276q2.408-.014,4.817,0a1.148,1.148,0,0,1,1.284,1.238q.034,2.467,0,4.935a1.144,1.144,0,0,1-1.278,1.241C870.83,889.385,870.017,889.373,869.2,889.373Zm1.294-2.413v-2.588h-2.585v2.588Z" transform="translate(-162.747 -169.603)" fill="#192842" stroke="#2a2960" stroke-width="0.5"/>
    <path id="Path_155" data-name="Path 155" d="M869.255,758.188c-.813,0-1.626.017-2.438,0a1.193,1.193,0,0,1-1.31-1.344q-.014-2.379,0-4.757a1.2,1.2,0,0,1,1.335-1.325q2.379-.015,4.757,0a1.186,1.186,0,0,1,1.332,1.319q.025,2.408,0,4.816a1.165,1.165,0,0,1-1.3,1.29C870.841,758.2,870.047,758.188,869.255,758.188Zm1.275-5.017h-2.593v2.586h2.593Z" transform="translate(-162.754 -59.251)" fill="#192842" stroke="#2a2960" stroke-width="0.5"/>
    <path id="Path_156" data-name="Path 156" d="M943.29,754.461c0,.812.009,1.625,0,2.438a1.146,1.146,0,0,1-1.242,1.279q-2.468.036-4.935,0a1.141,1.141,0,0,1-1.233-1.286q-.016-2.408,0-4.816a1.189,1.189,0,0,1,1.33-1.318q2.379-.014,4.757,0a1.193,1.193,0,0,1,1.324,1.325C943.3,752.875,943.291,753.668,943.29,754.461Zm-2.416-1.284h-2.583v2.6h2.583Z" transform="translate(-221.943 -59.251)" fill="#192842" stroke="#2a2960" stroke-width="0.5"/>
    <path id="Path_157" data-name="Path 157" d="M869.247,823.823c-.813,0-1.625.011-2.438,0a1.2,1.2,0,0,1-1.308-1.294q-.021-2.437,0-4.876a1.144,1.144,0,0,1,1.215-1.248q2.5-.033,4.995,0a1.112,1.112,0,0,1,1.2,1.189q.036,2.5,0,4.994a1.165,1.165,0,0,1-1.293,1.235C870.832,823.833,870.039,823.823,869.247,823.823ZM867.93,818.8v2.591H870.5V818.8Z" transform="translate(-162.746 -114.458)" fill="#192842" stroke="#2a2960" stroke-width="0.5"/>
    <path id="Path_158" data-name="Path 158" d="M939.634,816.4c.773,0,1.546-.011,2.319,0a1.174,1.174,0,0,1,1.331,1.31q.014,2.408,0,4.816a1.182,1.182,0,0,1-1.294,1.3q-2.408.019-4.816,0a1.179,1.179,0,0,1-1.3-1.289q-.017-2.438,0-4.876a1.147,1.147,0,0,1,1.262-1.256C937.969,816.391,938.8,816.405,939.634,816.4Zm-1.35,2.406V821.4h2.58v-2.593Z" transform="translate(-221.94 -114.47)" fill="#192842" stroke="#2a2960" stroke-width="0.5"/>
    <path id="Path_159" data-name="Path 159" d="M1011.594,872.088a1.163,1.163,0,0,1-.119,2.323,1.193,1.193,0,0,1-1.15-1.2A1.173,1.173,0,0,1,1011.594,872.088Z" transform="translate(-284.567 -161.309)" fill="#192842" stroke="#2a2960" stroke-width="0.5"/>
    <path id="Path_160" data-name="Path 160" d="M731.032,874.543q0-3.48,0-6.961a5.219,5.219,0,0,1,.021-.653,1.143,1.143,0,0,1,1.077-1.009,1.127,1.127,0,0,1,1.207.847,3.125,3.125,0,0,1,.074.765q.006,7.02,0,14.04c0,.059,0,.119,0,.178-.015.911-.475,1.472-1.2,1.47s-1.175-.557-1.177-1.479Q731.027,878.142,731.032,874.543Z" transform="translate(-49.651 -156.12)" fill="#192842" stroke="#2a2960" stroke-width="0.5"/>
    <path id="Path_161" data-name="Path 161" d="M761.741,874.557q0-3.51,0-7.02a4.255,4.255,0,0,1,.031-.652,1.17,1.17,0,0,1,2.274-.125,3.109,3.109,0,0,1,.074.765q.006,7.02,0,14.04c0,1.079-.415,1.652-1.192,1.658s-1.19-.564-1.19-1.646Q761.74,878.067,761.741,874.557Z" transform="translate(-75.482 -156.123)" fill="#192842" stroke="#2a2960" stroke-width="0.5"/>
    <path id="Path_162" data-name="Path 162" d="M792.436,874.532q0-3.48,0-6.961a4.426,4.426,0,0,1,.036-.711,1.169,1.169,0,0,1,2.289-.053,3.088,3.088,0,0,1,.054.65q0,7.08,0,14.159a3.456,3.456,0,0,1-.037.592,1.168,1.168,0,0,1-2.319-.063,8.833,8.833,0,0,1-.024-.95Q792.435,877.864,792.436,874.532Z" transform="translate(-101.3 -156.106)" fill="#192842" stroke="#2a2960" stroke-width="0.5"/>
  </g>
</svg>
