<?xml version="1.0" encoding="UTF-8"?>
<svg xmlns="http://www.w3.org/2000/svg" xmlns:xlink="http://www.w3.org/1999/xlink" width="160pt" height="159pt" viewBox="0 0 160 159" version="1.1">
<g id="surface1">
<path style="fill:none;stroke-width:6;stroke-linecap:round;stroke-linejoin:miter;stroke:rgb(9.803922%,15.686275%,25.882353%);stroke-opacity:1;stroke-miterlimit:4;" d="M 3.390625 66.289062 C 3.390625 66.289062 11.390625 9.289062 69.390625 3.289062 "/>
<path style="fill:none;stroke-width:6;stroke-linecap:round;stroke-linejoin:miter;stroke:rgb(9.803922%,15.686275%,25.882353%);stroke-opacity:1;stroke-miterlimit:4;" d="M 156.039062 70.171875 C 156.039062 70.171875 166.039062 126.851562 112.738281 150.480469 "/>
<path style=" stroke:none;fill-rule:nonzero;fill:rgb(9.803922%,15.686275%,25.882353%);fill-opacity:1;" d="M 80.390625 6.289062 C 78.730469 6.289062 77.390625 4.949219 77.390625 3.289062 C 77.390625 1.628906 78.730469 0.289062 80.390625 0.289062 C 82.050781 0.289062 83.390625 1.628906 83.390625 3.289062 C 83.390625 4.949219 82.050781 6.289062 80.390625 6.289062 Z M 80.390625 6.289062 "/>
<path style=" stroke:none;fill-rule:nonzero;fill:rgb(9.803922%,15.686275%,25.882353%);fill-opacity:1;" d="M 153.390625 64.289062 C 151.730469 64.289062 150.390625 62.949219 150.390625 61.289062 C 150.390625 59.628906 151.730469 58.289062 153.390625 58.289062 C 155.050781 58.289062 156.390625 59.628906 156.390625 61.289062 C 156.390625 62.949219 155.050781 64.289062 153.390625 64.289062 Z M 153.390625 64.289062 "/>
<path style=" stroke:none;fill-rule:nonzero;fill:rgb(9.803922%,15.686275%,25.882353%);fill-opacity:1;" d="M 103.390625 158.289062 C 101.730469 158.289062 100.390625 156.949219 100.390625 155.289062 C 100.390625 153.628906 101.730469 152.289062 103.390625 152.289062 C 105.050781 152.289062 106.390625 153.628906 106.390625 155.289062 C 106.390625 156.949219 105.050781 158.289062 103.390625 158.289062 Z M 103.390625 158.289062 "/>
<path style=" stroke:none;fill-rule:nonzero;fill:rgb(9.803922%,15.686275%,25.882353%);fill-opacity:1;" d="M 3.390625 80.289062 C 1.730469 80.289062 0.390625 78.949219 0.390625 77.289062 C 0.390625 75.628906 1.730469 74.289062 3.390625 74.289062 C 5.050781 74.289062 6.390625 75.628906 6.390625 77.289062 C 6.390625 78.949219 5.050781 80.289062 3.390625 80.289062 Z M 3.390625 80.289062 "/>
</g>
</svg>
