<svg xmlns="http://www.w3.org/2000/svg" width="23.622" height="31" viewBox="0 0 23.622 31">
  <g id="Group_233" data-name="Group 233" transform="translate(0 0)">
    <path id="Path_3478" data-name="Path 3478" d="M739,703H720.1a.216.216,0,0,0-.052-.031,2.736,2.736,0,0,1-2.31-2.974q0-9.53,0-19.06c0-2.057,0-4.115,0-6.172a2.567,2.567,0,0,1,1.153-2.243A6.9,6.9,0,0,1,720.1,672h13.322a5.363,5.363,0,0,1,.565.435q3.485,3.471,6.962,6.95a1.308,1.308,0,0,1,.41,1c-.009,3.178-.005,6.356-.005,9.534q0,5.145,0,10.291a2.72,2.72,0,0,1-1.813,2.634C739.366,702.9,739.18,702.947,739,703Zm-6.721-29.183H720.642c-.745,0-1.082.341-1.082,1.1q0,12.593,0,25.185c0,.746.342,1.086,1.094,1.086h17.8a.947.947,0,0,0,1.088-1.091q0-9.338,0-18.677v-.333h-.374c-1.393,0-2.785.008-4.178,0a2.688,2.688,0,0,1-2.664-2.27,6.409,6.409,0,0,1-.048-1.025C732.273,676.474,732.276,675.164,732.276,673.816Zm1.818,1.365c0,1.079-.01,2.146,0,3.212a.885.885,0,0,0,.9.869c1.027.009,2.054,0,3.081,0a.257.257,0,0,0,.078-.018Z" transform="translate(-717.742 -672)" fill="#7d7d7d"/>
    <path id="Path_3479" data-name="Path 3479" d="M791.6,830.98c1.784,0,3.569,0,5.354,0a.91.91,0,1,1-.017,1.816q-2.48,0-4.961,0-2.889,0-5.777,0a.908.908,0,0,1-.909-1.267.923.923,0,0,1,.926-.55C788.014,830.982,789.808,830.98,791.6,830.98Z" transform="translate(-779.763 -818.144)" fill="#7d7d7d"/>
    <path id="Path_3480" data-name="Path 3480" d="M791.567,875.98c1.795,0,3.589,0,5.384,0a.91.91,0,1,1-.013,1.816q-2.193,0-4.386,0-3.176,0-6.352,0a.908.908,0,0,1-.912-1.265.922.922,0,0,1,.925-.552C788,875.982,789.783,875.98,791.567,875.98Z" transform="translate(-779.76 -859.511)" fill="#7d7d7d"/>
    <path id="Path_3481" data-name="Path 3481" d="M791.568,920.98c1.795,0,3.589,0,5.384,0a.91.91,0,1,1-.014,1.816q-2.253,0-4.507,0-3.115,0-6.231,0a.908.908,0,0,1-.912-1.265.922.922,0,0,1,.925-.552C788,920.982,789.784,920.98,791.568,920.98Z" transform="translate(-779.76 -900.878)" fill="#7d7d7d"/>
    <path id="Path_3482" data-name="Path 3482" d="M789.847,965.995q1.738,0,3.477,0a.914.914,0,1,1,.012,1.815q-3.522,0-7.045,0a.913.913,0,1,1-.012-1.815Q788.063,965.992,789.847,965.995Z" transform="translate(-779.823 -942.26)" fill="#7d7d7d"/>
  </g>
</svg>
