<?xml version="1.0" standalone="no"?>
<!DOCTYPE svg PUBLIC "-//W3C//DTD SVG 20010904//EN"
 "http://www.w3.org/TR/2001/REC-SVG-20010904/DTD/svg10.dtd">
<svg version="1.0" xmlns="http://www.w3.org/2000/svg"
 width="246.000000pt" height="237.000000pt" viewBox="0 0 246.000000 237.000000"
 preserveAspectRatio="xMidYMid meet">
<metadata>
Created by potrace 1.16, written by Peter Selinger 2001-2019
</metadata>
<g transform="translate(0.000000,237.000000) scale(0.100000,-0.100000)"
fill="#192842" stroke="none">
<path d="M60 1276 c0 -616 4 -1045 9 -1059 15 -38 70 -96 112 -118 37 -18 64
-19 619 -19 l580 0 0 60 0 59 -553 3 -553 3 -37 25 c-24 16 -41 37 -47 60 -6
22 -10 386 -10 968 l0 932 750 0 750 0 0 -245 0 -245 60 0 60 0 0 305 0 305
-870 0 -870 0 0 -1034z"/>
<path d="M340 1770 l0 -60 580 0 580 0 0 60 0 60 -580 0 -580 0 0 -60z"/>
<path d="M1572 1625 c-35 -8 -69 -18 -75 -23 -7 -5 -33 -16 -59 -26 -120 -44
-271 -182 -338 -307 -123 -232 -99 -582 55 -769 25 -30 45 -58 45 -62 0 -6 49
-46 144 -116 24 -18 84 -47 132 -65 86 -30 95 -32 249 -32 143 0 168 3 230 24
39 13 86 32 105 43 299 160 447 511 351 830 -34 116 -68 180 -141 266 -68 81
-134 133 -220 173 -36 16 -73 34 -83 40 -66 36 -278 49 -395 24z m286 -140
c213 -50 387 -226 431 -433 27 -128 6 -285 -52 -396 -41 -78 -145 -183 -232
-234 -170 -100 -412 -95 -573 11 -212 139 -311 354 -273 589 26 157 136 320
266 393 143 80 289 104 433 70z"/>
<path d="M1872 1051 c-94 -98 -181 -190 -193 -205 -11 -14 -24 -26 -28 -26 -5
0 -46 34 -92 75 -46 41 -91 75 -100 75 -22 0 -79 -65 -79 -89 0 -11 21 -35 50
-56 28 -20 56 -45 63 -54 22 -33 144 -131 161 -131 19 0 49 30 311 303 99 103
181 194 183 201 3 15 -74 86 -92 86 -6 -1 -89 -81 -184 -179z"/>
<path d="M350 1370 l0 -60 335 0 335 0 0 60 0 60 -335 0 -335 0 0 -60z"/>
<path d="M350 965 l0 -65 285 0 285 0 0 65 0 65 -285 0 -285 0 0 -65z"/>
</g>
</svg>
