<svg xmlns="http://www.w3.org/2000/svg" width="49.63" height="73.583" viewBox="0 0 49.63 73.583">
  <path id="Path_5440" data-name="Path 5440" d="M1240.535,436.377c.6.138,1.2.265,1.8.416a13.3,13.3,0,0,1,10.128,12.661c.031,1.245-.008,2.491.026,3.735a1.839,1.839,0,0,0,.283.92,4.566,4.566,0,0,1-3,7.107.647.647,0,0,0-.616.628,10.082,10.082,0,0,1-3.274,5.755,1.537,1.537,0,0,0-.425.961c-.05.784-.269,1.763.1,2.311s1.368.669,2.1.954q4.946,1.923,9.9,3.833a9.516,9.516,0,0,1,6.487,9.3c.035,2.227.01,4.454,0,6.681,0,.26.031.6-.114.763-.266.292-.67.678-.984.651a1.693,1.693,0,0,1-.973-.759c-.153-.215-.076-.6-.079-.913-.022-2.418.049-4.841-.078-7.253a6.882,6.882,0,0,0-4.364-6.171c-2.416-1.087-4.936-1.946-7.411-2.9a1.3,1.3,0,0,0-.27-.03c-.667,1.329-1.341,2.671-2.014,4.014-.353.706-.7,1.414-1.054,2.12-.9,1.8-1.764,2.067-3.509,1.051a2.381,2.381,0,0,0-.77,2.2c1.064,5.981,2.053,11.976,3.073,17.964a2.134,2.134,0,0,1-.619,1.9c-1.034,1.124-2.054,2.26-3.154,3.473h11.609v-.854q0-9.842,0-19.685a3.552,3.552,0,0,1,.077-.924.964.964,0,0,1,1.074-.76,1,1,0,0,1,.974.893,4.274,4.274,0,0,1,.028.788q0,9.807,0,19.613v.931c.225.017.429.046.632.046q2.335.006,4.67,0c.973,0,1.1-.127,1.1-1.13q0-4.347,0-8.693c0-.192,0-.383,0-.575.02-.91.406-1.4,1.088-1.387.661.013,1.059.486,1.062,1.352.011,3.209.028,6.418-.005,9.627a2.761,2.761,0,0,1-3.043,2.96q-14.045.006-28.091,0c-.12,0-.24,0-.359-.005a1.068,1.068,0,0,1-1.1-1.084,1.048,1.048,0,0,1,1.122-1.056c1.125-.026,2.251-.009,3.376-.01h.853c-1.1-1.213-2.07-2.321-3.083-3.39a2.517,2.517,0,0,1-.687-2.355c1.027-5.89,1.99-11.792,3.031-17.68a2.472,2.472,0,0,0-.768-2.177c-.144.086-.266.157-.386.231a1.861,1.861,0,0,1-2.879-.792c-1.006-1.956-1.974-3.932-2.959-5.9-.116-.233-.24-.461-.39-.751-.329.12-.638.227-.943.345q-3.01,1.163-6.019,2.33a7.4,7.4,0,0,0-5.111,7.3c-.031,7.28-.012,14.56-.008,21.84,0,.845.163.993,1.018.995,1.767,0,3.534,0,5.383,0v-.9q0-9.807,0-19.613c0-.239-.011-.48.009-.718a1.048,1.048,0,0,1,1.056-1.047,1.028,1.028,0,0,1,1.065.963,4.117,4.117,0,0,1,.025.716q0,9.842,0,19.685v.914c.732,0,1.4-.008,2.06,0,.842.013,1.318.422,1.3,1.1-.014.649-.477,1.049-1.279,1.051-3.329.008-6.657.018-9.986,0a2.7,2.7,0,0,1-2.775-2.552,7.162,7.162,0,0,1-.036-.788c0-7.136.016-14.273-.009-21.409a9.565,9.565,0,0,1,4.492-8.552,9.363,9.363,0,0,1,1.724-.871q5.875-2.3,11.768-4.562a.9.9,0,0,0,.649-.922,3.578,3.578,0,0,0-1.347-3.408,8.4,8.4,0,0,1-2.634-5.065c-.073-.4-.222-.531-.623-.6a4.517,4.517,0,0,1-2.954-7.043,1.906,1.906,0,0,0,.244-.933,55.1,55.1,0,0,1,.264-5.728,13.2,13.2,0,0,1,11.119-10.978,4.168,4.168,0,0,0,.53-.154Zm3.979,12.877a23.706,23.706,0,0,1-6.469,2.869,22.519,22.519,0,0,1-6.995.771c0,2.236-.01,4.385.006,6.534a12.977,12.977,0,0,0,.13,1.857,7.976,7.976,0,0,0,8.528,6.6,7.84,7.84,0,0,0,7.437-7.458c.083-2.63.033-5.265.028-7.9a.944.944,0,0,0-.191-.583C1246.194,451.051,1245.374,450.182,1244.514,449.254Zm5.745,3.017c.49-5.294-1-9.637-5.8-12.361A10.988,10.988,0,0,0,1232.134,441c-3.633,2.922-4.563,6.87-4.145,11.423.385-.151.891-.191.992-.415.556-1.23,1.568-1.316,2.7-1.272a18.93,18.93,0,0,0,8.121-1.5c1.207-.507,2.354-1.162,3.51-1.785.793-.427,1.635-.687,2.331-.012,1.216,1.18,2.328,2.468,3.478,3.715a.508.508,0,0,1,.152.319C1249.23,452.2,1249.695,452.277,1250.259,452.272Zm-11.021,55c1.215-1.338,2.325-2.627,3.515-3.837a1.675,1.675,0,0,0,.472-1.655c-.724-4.145-1.416-8.295-2.121-12.442-.284-1.669-.572-3.337-.865-5.046a9.461,9.461,0,0,1-1.273-.01c-.645-.092-.81.225-.882.789-.127,1-.321,1.982-.489,2.972q-1.194,7.071-2.381,14.144a1.007,1.007,0,0,0,.084.723C1236.575,504.357,1237.885,505.779,1239.238,507.267Zm0-30.945c1.117-1.379,2.077-2.733,3.216-3.917a3.56,3.56,0,0,0,.779-3.147,11.051,11.051,0,0,1-8.1.043c.077.808-.1,1.673.254,2.172C1236.544,473.132,1237.891,474.659,1239.236,476.322Zm8.536-2.141c-.986-.38-1.871-.733-2.768-1.053a.533.533,0,0,0-.474.11c-1.247,1.509-2.474,3.033-3.734,4.589l3.806,2.7Zm-10.1,3.646c-1.256-1.552-2.453-3.04-3.669-4.512a.6.6,0,0,0-.51-.193c-.918.321-1.82.687-2.79,1.063l3.169,6.343Zm11.711-23.466v4.664a2.287,2.287,0,0,0,2.053-2.214A2.4,2.4,0,0,0,1249.384,454.361Zm-12.228,26.489c.48,1.793,1.863,1.193,2.965,1.275.84.063.826-.774,1.283-1.212-.67-.48-1.276-.938-1.911-1.349a.623.623,0,0,0-.552.031C1238.323,480,1237.733,480.438,1237.155,480.849Zm-8.292-26.376a2.329,2.329,0,0,0-2.031,2.33,2.279,2.279,0,0,0,2.031,2.24Z" transform="translate(-1214.428 -436.377)" fill="#192842"/>
</svg>
