<svg xmlns="http://www.w3.org/2000/svg" width="83.354" height="78.303" viewBox="0 0 83.354 78.303">
  <g id="Group_501" data-name="Group 501" transform="translate(-801.854 -386.902)">
    <path id="Path_4400" data-name="Path 4400" d="M24.881,0a24.881,24.881,0,0,1,0,49.763c-2.614,0-8.4,2.83-13.539,4.109-2.539.632-6.918,2.152-7.778,0s5.691-2.7,4.336-8.606A34.308,34.308,0,0,1,0,24.881,24.881,24.881,0,0,1,24.881,0Z" transform="translate(804.405 389.161)" fill="#75bfd3"/>
    <path id="Path_4393" data-name="Path 4393" d="M801.854,412.58c.362-1.966.6-3.965,1.112-5.89a26.012,26.012,0,0,1,7.1-11.953,26.54,26.54,0,0,1,13.264-7.186,27.008,27.008,0,0,1,19.056,2.76,1.262,1.262,0,0,1,.646,1.83c-.331.635-1,.8-1.835.357a25.065,25.065,0,0,0-8.029-2.749,24.793,24.793,0,0,0-27.2,33.238c.211.557.458,1.1.66,1.661a1.248,1.248,0,0,1-.558,1.727,1.265,1.265,0,0,1-1.727-.764,26.591,26.591,0,0,1-2.174-7.3c-.1-.717-.21-1.434-.316-2.151Z"/>
    <path id="Path_4394" data-name="Path 4394" d="M874.047,432.606a27.459,27.459,0,0,1-21.972,31.761,24.059,24.059,0,0,0,4.851,9.074,24.519,24.519,0,0,0,14.828,8.416,23.562,23.562,0,0,0,8.26-.028,3.165,3.165,0,0,1,2.184.335,32.792,32.792,0,0,0,10.355,3.716c1,.163,2.035.162,3.055.236l.113-.239c-.215-.25-.416-.515-.648-.748a17.9,17.9,0,0,1-4.023-6.245c-.456-1.174-.417-1.494.579-2.321a24.876,24.876,0,0,0,7.1-29.009,23.666,23.666,0,0,0-4.534-7c-.147-.159-.291-.322-.423-.494a1.226,1.226,0,1,1,1.868-1.574,27.361,27.361,0,0,1-1.827,39.457,3.564,3.564,0,0,1-.374.261,15.015,15.015,0,0,0,3.3,5.116,8.879,8.879,0,0,1,1.093,1.307c1.041,1.6.472,3.258-1.4,3.618a12.581,12.581,0,0,1-4.025.088,34.825,34.825,0,0,1-10.944-3.75,2.5,2.5,0,0,0-1.371-.241A27.114,27.114,0,0,1,857.5,477.5a26.2,26.2,0,0,1-7.672-12.069c-.189-.615-.446-.749-1.064-.76-2-.034-4-.183-6-.248a2.421,2.421,0,0,0-1.14.25,38.4,38.4,0,0,1-9.973,3.634,11.116,11.116,0,0,1-4.84.153c-2.127-.511-2.742-2.142-1.456-3.923.473-.656,1.128-1.182,1.6-1.841.964-1.358,1.857-2.766,2.645-3.952-1.713-1.987-3.248-3.735-4.736-5.521a1.61,1.61,0,0,1-.421-1.159c.094-.4.509-.973.849-1.022a1.845,1.845,0,0,1,1.383.537c1.134,1.2,2.148,2.51,3.255,3.737a18.756,18.756,0,0,0,1.635,1.465,1.465,1.465,0,0,1,.509,2.067,17.745,17.745,0,0,1-3.909,6.221c-.228.232-.439.48-.653.725a1.23,1.23,0,0,0-.105.232,19.445,19.445,0,0,0,2.864-.021,29.11,29.11,0,0,0,9.558-3.282,6.482,6.482,0,0,1,4.265-.7,23.36,23.36,0,0,0,13.02-1.861,24.449,24.449,0,0,0,12.605-12.478,24.785,24.785,0,0,0-5.99-28.624c-.241-.218-.486-.434-.716-.665-.635-.64-.726-1.268-.27-1.793a1.236,1.236,0,0,1,1.93-.06,40.083,40.083,0,0,1,2.967,2.9,25.935,25.935,0,0,1,5.508,9.77c.214.7.487.965,1.271.915a26.359,26.359,0,0,1,15.4,3.738c.7.413,1.379.864,2.042,1.334a1.245,1.245,0,0,1,.449,1.762,1.219,1.219,0,0,1-1.852.232A25.44,25.44,0,0,0,882.2,433.3,24.341,24.341,0,0,0,874.047,432.606Z" transform="translate(-17.969 -23.251)"/>
    <path id="Path_4395" data-name="Path 4395" d="M1062.1,597.265a3.726,3.726,0,0,1-.005,7.452,3.79,3.79,0,0,1-3.768-3.781A3.736,3.736,0,0,1,1062.1,597.265Z" transform="translate(-204.158 -167.454)"/>
    <path id="Path_4396" data-name="Path 4396" d="M1128.722,597.268a3.725,3.725,0,1,1-3.752,3.686A3.693,3.693,0,0,1,1128.722,597.268Z" transform="translate(-257.209 -167.456)"/>
    <path id="Path_4397" data-name="Path 4397" d="M921.1,500.645a3.78,3.78,0,1,1,.039,7.559,3.78,3.78,0,0,1-.039-7.559Zm-1.233,3.716a1.3,1.3,0,0,0,1.169,1.327,1.267,1.267,0,0,0,.125-2.53A1.3,1.3,0,0,0,919.871,504.361Z" transform="translate(-91.953 -90.542)"/>
    <path id="Path_4398" data-name="Path 4398" d="M854.536,508.2a3.78,3.78,0,1,1,3.792-3.76A3.81,3.81,0,0,1,854.536,508.2Zm1.26-3.778a1.24,1.24,0,1,0-1.221,1.269A1.256,1.256,0,0,0,855.8,504.426Z" transform="translate(-38.944 -90.541)"/>
    <path id="Path_4399" data-name="Path 4399" d="M987.505,508.205a3.779,3.779,0,1,1,3.784-3.776A3.8,3.8,0,0,1,987.505,508.205Zm-.007-5.047a1.268,1.268,0,1,0,1.276,1.236A1.321,1.321,0,0,0,987.5,503.159Z" transform="translate(-144.78 -90.544)"/>
  </g>
</svg>
